<?xml version="1.0" encoding="UTF-8"?>
<svg id="Layer_1" data-name="Layer 1" xmlns="http://www.w3.org/2000/svg" viewBox="0 0 361 91">
  <g>
    <g isolation="isolate">
      <path d="M57.32,84.07v-.03s.02-.06.06-.06c.56,0,.98-.11,1.24-.32.26-.21.42-.49.48-.82.06-.33.09-.8.09-1.4v-14.52c0-.74-.01-1.21-.04-1.42-.03-.21-.1-.31-.22-.31-.16,0-.34.07-.56.2-.12.08-.25.15-.39.22-.15.07-.32.1-.51.1-.04,0-.06-.02-.06-.06v-.03s.02-.06.06-.06c.31-.02.64-.13.98-.34.34-.2.74-.49,1.21-.86.58-.47.95-.7,1.11-.7v9.73c.78-1.19,1.76-2.21,2.95-3.07s2.44-1.29,3.74-1.29,2.35.34,3.24,1.02,1.57,1.61,2.02,2.79.67,2.5.67,3.96-.26,2.75-.79,3.93c-.53,1.18-1.28,2.11-2.25,2.81-.97.69-2.11,1.04-3.42,1.04-.94,0-1.68-.14-2.23-.42-.56-.28-1.11-.66-1.65-1.12-.35-.29-.61-.49-.79-.6-.18-.11-.37-.16-.58-.16-.29,0-.52.19-.67.56-.16.37-.23.73-.23,1.08v.15s-.02.06-.06.06h-3.33s-.06-.02-.06-.06ZM61.07,81.38c.21-.39.49-.58.86-.58.23,0,.45.1.64.31.19.2.44.52.73.95.53.74,1.04,1.32,1.55,1.75.51.43,1.19.64,2.05.64.99,0,1.85-.35,2.56-1.05.71-.7,1.25-1.63,1.62-2.79.37-1.16.55-2.43.55-3.81s-.22-2.63-.66-3.7c-.44-1.06-1.06-1.88-1.86-2.47-.8-.58-1.7-.88-2.72-.88-1.23,0-2.27.36-3.13,1.1-.86.73-1.49,1.6-1.9,2.62-.41,1.01-.61,1.95-.61,2.81v6.19c0-.33.1-.69.31-1.08Z" fill="#171717" stroke-width="0"/>
    </g>
    <g isolation="isolate">
      <path d="M79.73,83.56c-1.17-.69-2.07-1.63-2.72-2.82-.64-1.19-.96-2.49-.96-3.92s.33-2.73.98-3.92,1.54-2.13,2.66-2.82,2.34-1.04,3.67-1.04,2.41.28,3.43.85c1.02.56,1.86,1.35,2.51,2.35.65,1,1.07,2.13,1.24,3.37h-12.68c-.04.51-.06.9-.06,1.17,0,1.34.26,2.56.79,3.64.53,1.08,1.27,1.93,2.22,2.54s2.05.92,3.27.92c1.38,0,2.55-.34,3.51-1.02.95-.68,1.68-1.6,2.16-2.75.02-.04.05-.05.09-.03.04.02.05.05.03.09-.47,1.32-1.25,2.39-2.34,3.2-1.09.81-2.36,1.21-3.8,1.21s-2.83-.35-4-1.04ZM88.73,75.48c-.04-1.13-.29-2.17-.75-3.13-.46-.95-1.09-1.71-1.9-2.28s-1.72-.85-2.73-.85c-.94,0-1.79.28-2.57.83-.78.55-1.42,1.31-1.91,2.26-.5.95-.82,2.01-.98,3.16h10.84Z" fill="#171717" stroke-width="0"/>
    </g>
    <g isolation="isolate">
      <path d="M94.02,77.71c.6-.73,1.41-1.3,2.43-1.69s2.1-.6,3.27-.6c.99,0,1.89-.24,2.7-.72.81-.48,1.22-1.05,1.24-1.71,0-.94-.04-1.65-.12-2.13-.08-.49-.24-.85-.48-1.1s-.62-.36-1.12-.36c-.64,0-1.23.16-1.77.48-.54.32-1.15.78-1.86,1.39-.66.55-1.19.94-1.58,1.18s-.81.36-1.26.36c-.6,0-1.06-.26-1.36-.77s-.45-1.34-.45-2.47c0-.04.02-.06.06-.06h.03s.06.02.06.06c.02.35.12.69.31,1.01.18.32.44.48.77.48.31,0,.64-.06.99-.19.35-.13.82-.32,1.4-.57.86-.41,1.63-.72,2.31-.94.68-.21,1.41-.32,2.19-.32,2.2,0,3.35,1.51,3.45,4.53v7.31c0,.74.01,1.21.04,1.42.03.21.1.31.22.31.18,0,.36-.07.56-.2.12-.08.25-.15.39-.22s.32-.1.51-.1c.04,0,.06.02.06.06v.03s-.02.06-.06.06c-.31.02-.64.13-.98.34s-.75.49-1.21.86c-.58.47-.95.7-1.11.7,0-.35-.08-.71-.25-1.07-.17-.36-.41-.54-.72-.54-.21,0-.4.05-.57.16-.16.11-.38.29-.66.54-.51.43-.99.77-1.46,1.01-.47.24-1.12.36-1.96.36-1.44,0-2.62-.4-3.55-1.2-.93-.8-1.39-1.84-1.39-3.13,0-.97.3-1.83.9-2.56ZM103.18,75.7c-.22.22-.5.34-.83.34-.23,0-.62-.08-1.17-.23-.58-.16-1.03-.23-1.34-.23-.94,0-1.77.22-2.5.66-.73.44-1.3,1.02-1.71,1.74-.41.72-.61,1.49-.61,2.31,0,1.25.3,2.25.91,3.01.6.76,1.35,1.14,2.25,1.14.7,0,1.25-.18,1.65-.54.4-.36.79-.86,1.18-1.5.27-.47.52-.81.73-1.02s.47-.32.76-.32c.37,0,.66.19.86.57.21.38.31.73.31,1.07v-8.12c-.1.55-.26.93-.48,1.15Z" fill="#171717" stroke-width="0"/>
    </g>
    <g isolation="isolate">
      <path d="M119.22,83.25c-1.28.9-2.56,1.34-3.84,1.34s-2.23-.36-2.95-1.1-1.1-1.87-1.14-3.43h-.03v-7.31c0-.74-.01-1.21-.04-1.42s-.1-.31-.22-.31c-.16,0-.34.07-.55.2-.12.08-.25.15-.39.22s-.32.1-.51.1c-.04,0-.06-.02-.06-.06v-.03s.02-.06.06-.06c.31-.02.64-.13.98-.34.34-.2.75-.49,1.21-.86.58-.47.95-.7,1.11-.7v10.14c0,1.5.29,2.58.86,3.24.57.66,1.46.99,2.64.99s2.33-.37,3.24-1.1c.92-.73,1.61-1.61,2.09-2.64.48-1.03.72-1.96.72-2.78v-4.62c0-.74-.01-1.21-.04-1.42s-.1-.31-.22-.31c-.16,0-.34.07-.56.2-.12.08-.25.15-.39.22s-.32.1-.51.1c-.04,0-.06-.02-.06-.06v-.03s.02-.06.06-.06c.31-.02.64-.13.98-.34.34-.2.74-.49,1.21-.86.58-.47.95-.7,1.11-.7v11.37c0,.74.02,1.21.04,1.42.03.21.1.31.22.31.18,0,.36-.07.56-.2.12-.08.25-.15.39-.22s.32-.1.51-.1c.04,0,.06.02.06.06v.03s-.02.06-.06.06c-.31.02-.64.13-.98.34s-.75.49-1.21.86c-.58.47-.95.7-1.11.7v-4.03c-.84,1.21-1.89,2.26-3.17,3.16Z" fill="#171717" stroke-width="0"/>
      <path d="M130.18,83.53c-.4-.4-.62-.8-.67-1.2-.05-.4-.07-.98-.07-1.74v-10.81c-.45-.08-.93-.12-1.43-.12-.04,0-.06-.02-.06-.06v-.03s.02-.06.06-.06c.51,0,.98-.18,1.42-.54s.79-.85,1.05-1.46c.26-.61.39-1.27.39-1.97,0-.04.02-.06.06-.06h.03s.06.02.06.06v3.97h2.57s.06.02.06.06v1.02l-.03.09c-.56-.19-1.43-.41-2.6-.64v10.72c0,1.03.07,1.81.22,2.32.15.52.52.77,1.12.77.43,0,.78-.17,1.05-.51.27-.34.42-.8.44-1.39,0-.04.02-.06.06-.06h.03s.06.03.06.09c-.02.68-.2,1.21-.54,1.58-.34.37-.78.56-1.33.56-.9,0-1.54-.2-1.94-.6Z" fill="#171717" stroke-width="0"/>
    </g>
    <g isolation="isolate">
      <path d="M138.63,71.27c-.41-1.03-.95-1.57-1.64-1.61-.04,0-.06-.02-.06-.06v-.03s.02-.06.06-.06h4.62s.06.02.06.06v.03s-.02.06-.06.06c-.33.02-.64.12-.92.29-.28.18-.42.44-.42.79,0,.19.04.38.12.56l4.18,11.13,4.29-11.19c.08-.27.12-.45.12-.53,0-.33-.14-.58-.42-.76-.28-.18-.58-.27-.89-.29-.04,0-.06-.02-.06-.06v-.03s.02-.06.06-.06h2.98s.06.02.06.06v.03s-.02.06-.06.06c-.29.02-.58.16-.86.42-.28.26-.53.66-.74,1.18l-5.52,14.4c-.35.92-.67,1.65-.95,2.21-.28.56-.63,1.04-1.05,1.46s-.91.63-1.48.63c-.53,0-.95-.07-1.27-.2-.32-.14-.65-.33-.98-.58-.25-.19-.48-.34-.69-.42-.2-.09-.43-.13-.69-.13-.33,0-.59.14-.77.41-.19.27-.29.58-.31.91,0,.04-.02.06-.06.06h-.03s-.06-.02-.06-.06c0-2.06.57-3.1,1.72-3.1.23,0,.45.07.64.22s.44.37.73.69c.39.41.74.72,1.07.94.32.21.72.32,1.18.32.6,0,1.12-.3,1.55-.91.43-.6.86-1.44,1.29-2.51l.56-1.46h-.32l-4.97-12.86Z" fill="#171717" stroke-width="0"/>
    </g>
    <g isolation="isolate">
      <path d="M165.01,83.56c-1.12-.69-2.01-1.64-2.66-2.83s-.98-2.5-.98-3.9.33-2.73.98-3.92,1.54-2.13,2.66-2.82,2.34-1.04,3.67-1.04,2.54.35,3.65,1.04,1.99,1.63,2.64,2.82c.65,1.19.98,2.49.98,3.92s-.33,2.7-.98,3.89c-.65,1.19-1.54,2.13-2.66,2.83-1.12.7-2.33,1.05-3.64,1.05s-2.55-.35-3.67-1.04ZM163.87,80.66c.5,1.16,1.17,2.07,2.02,2.75.85.67,1.78,1.01,2.79,1.01s1.94-.34,2.79-1.01c.85-.67,1.52-1.59,2.02-2.75.5-1.16.74-2.45.74-3.87s-.25-2.68-.74-3.84c-.5-1.16-1.17-2.07-2.02-2.75-.85-.67-1.78-1.01-2.79-1.01s-1.94.34-2.79,1.01c-.85.67-1.52,1.59-2.02,2.75-.5,1.16-.75,2.44-.75,3.84s.25,2.71.75,3.87Z" fill="#171717" stroke-width="0"/>
    </g>
    <g isolation="isolate">
      <path d="M178.19,84.07v-.03s.02-.06.06-.06c.56,0,.98-.11,1.24-.32s.42-.49.48-.82.09-.8.09-1.4v-11.66c-.7-.08-1.21-.12-1.52-.12-.04,0-.06-.02-.06-.06v-.03s.02-.06.06-.06h1.52v-.99c.04-3.23.98-4.85,2.83-4.85.45,0,.83.09,1.15.28.32.18.67.44,1.04.77.04.04.14.13.31.26.16.14.31.24.44.31.13.07.26.1.39.1.33,0,.59-.16.77-.48.18-.32.29-.66.31-1.01,0-.04.02-.06.06-.06h.03s.06.02.06.06c0,1.11-.13,1.93-.39,2.45-.26.53-.63.79-1.1.79s-.8-.16-1.07-.47c-.26-.31-.53-.76-.8-1.34-.23-.51-.44-.88-.63-1.13-.18-.24-.43-.36-.74-.36-.43,0-.71.38-.85,1.14s-.2,2.03-.2,3.8v.73h2.45s.06.02.06.06v1.02l-.03.09c-.6-.21-1.43-.42-2.48-.61v11.37c0,.6.03,1.07.09,1.4.06.33.22.6.48.82.26.21.68.32,1.24.32.04,0,.06.02.06.06v.03s-.02.06-.06.06h-5.23s-.06-.02-.06-.06Z" fill="#171717" stroke-width="0"/>
    </g>
    <g isolation="isolate">
      <path d="M197.36,84.07v-.03s.02-.06.06-.06c.56,0,.98-.11,1.24-.32.26-.21.42-.49.48-.82.06-.33.09-.8.09-1.4v-8.68c0-.74-.01-1.21-.04-1.42-.03-.2-.1-.31-.22-.31-.16,0-.34.07-.55.2-.12.08-.25.15-.39.22s-.32.1-.51.1c-.04,0-.06-.02-.06-.06v-.03s.02-.06.06-.06c.31-.02.64-.13.98-.34.34-.2.75-.49,1.21-.86.58-.47.95-.7,1.11-.7v4.03c.84-1.21,1.89-2.26,3.16-3.16,1.27-.9,2.54-1.34,3.83-1.34,2.63,0,4,1.51,4.12,4.53v7.86c0,.6.03,1.07.09,1.4.06.33.22.6.48.82s.68.32,1.24.32c.04,0,.06.02.06.06v.03s-.02.06-.06.06h-5.2s-.06-.02-.06-.06v-.03s.02-.06.06-.06c.56,0,.98-.11,1.24-.32.26-.21.42-.49.48-.82.06-.33.09-.8.09-1.4v-7.45c0-1.5-.29-2.58-.86-3.24-.58-.66-1.46-.99-2.64-.99-1.25,0-2.32.36-3.23,1.1s-1.6,1.61-2.07,2.64c-.48,1.03-.72,1.96-.72,2.78v5.17c0,.6.03,1.07.09,1.4.06.33.22.6.48.82.26.21.68.32,1.24.32.04,0,.06.02.06.06v.03s-.02.06-.06.06h-5.2s-.06-.02-.06-.06Z" fill="#171717" stroke-width="0"/>
    </g>
    <g isolation="isolate">
      <path d="M217.29,77.71c.6-.73,1.41-1.3,2.43-1.69s2.1-.6,3.27-.6c.99,0,1.89-.24,2.7-.72.81-.48,1.22-1.05,1.24-1.71,0-.94-.04-1.65-.12-2.13-.08-.49-.24-.85-.48-1.1s-.62-.36-1.12-.36c-.64,0-1.23.16-1.77.48-.54.32-1.15.78-1.86,1.39-.66.55-1.19.94-1.58,1.18s-.81.36-1.26.36c-.6,0-1.06-.26-1.36-.77s-.45-1.34-.45-2.47c0-.04.02-.06.06-.06h.03s.06.02.06.06c.02.35.12.69.31,1.01.18.32.44.48.77.48.31,0,.64-.06.99-.19.35-.13.82-.32,1.4-.57.86-.41,1.63-.72,2.31-.94.68-.21,1.41-.32,2.19-.32,2.2,0,3.35,1.51,3.45,4.53v7.31c0,.74.01,1.21.04,1.42.03.21.1.31.22.31.18,0,.36-.07.56-.2.12-.08.25-.15.39-.22s.32-.1.51-.1c.04,0,.06.02.06.06v.03s-.02.06-.06.06c-.31.02-.64.13-.98.34s-.75.49-1.21.86c-.58.47-.95.7-1.11.7,0-.35-.08-.71-.25-1.07-.17-.36-.41-.54-.72-.54-.21,0-.4.05-.57.16-.16.11-.38.29-.66.54-.51.43-.99.77-1.46,1.01-.47.24-1.12.36-1.96.36-1.44,0-2.62-.4-3.55-1.2-.93-.8-1.39-1.84-1.39-3.13,0-.97.3-1.83.9-2.56ZM226.45,75.7c-.22.22-.5.34-.83.34-.23,0-.62-.08-1.17-.23-.58-.16-1.03-.23-1.34-.23-.94,0-1.77.22-2.5.66-.73.44-1.3,1.02-1.71,1.74-.41.72-.61,1.49-.61,2.31,0,1.25.3,2.25.91,3.01.6.76,1.35,1.14,2.25,1.14.7,0,1.25-.18,1.65-.54.4-.36.79-.86,1.18-1.5.27-.47.52-.81.73-1.02s.47-.32.76-.32c.37,0,.66.19.86.57.21.38.31.73.31,1.07v-8.12c-.1.55-.26.93-.48,1.15Z" fill="#171717" stroke-width="0"/>
    </g>
    <g isolation="isolate">
      <path d="M235.42,83.53c-.4-.4-.62-.8-.67-1.2-.05-.4-.07-.98-.07-1.74v-10.81c-.45-.08-.93-.12-1.43-.12-.04,0-.06-.02-.06-.06v-.03s.02-.06.06-.06c.51,0,.98-.18,1.42-.54s.79-.85,1.05-1.46c.26-.61.39-1.27.39-1.97,0-.04.02-.06.06-.06h.03s.06.02.06.06v3.97h2.57s.06.02.06.06v1.02l-.03.09c-.56-.19-1.43-.41-2.6-.64v10.72c0,1.03.07,1.81.22,2.32.15.52.52.77,1.12.77.43,0,.78-.17,1.05-.51.27-.34.42-.8.44-1.39,0-.04.02-.06.06-.06h.03s.06.03.06.09c-.02.68-.2,1.21-.54,1.58-.34.37-.78.56-1.33.56-.9,0-1.54-.2-1.94-.6Z" fill="#171717" stroke-width="0"/>
    </g>
    <g isolation="isolate">
      <path d="M252.28,83.25c-1.28.9-2.56,1.34-3.84,1.34s-2.23-.36-2.95-1.1-1.1-1.87-1.14-3.43h-.03v-7.31c0-.74-.01-1.21-.04-1.42s-.1-.31-.22-.31c-.16,0-.34.07-.55.2-.12.08-.25.15-.39.22s-.32.1-.51.1c-.04,0-.06-.02-.06-.06v-.03s.02-.06.06-.06c.31-.02.64-.13.98-.34.34-.2.75-.49,1.21-.86.58-.47.95-.7,1.11-.7v10.14c0,1.5.29,2.58.86,3.24.57.66,1.46.99,2.64.99s2.33-.37,3.24-1.1c.92-.73,1.61-1.61,2.09-2.64.48-1.03.72-1.96.72-2.78v-4.62c0-.74-.01-1.21-.04-1.42s-.1-.31-.22-.31c-.16,0-.34.07-.56.2-.12.08-.25.15-.39.22s-.32.1-.51.1c-.04,0-.06-.02-.06-.06v-.03s.02-.06.06-.06c.31-.02.64-.13.98-.34.34-.2.74-.49,1.21-.86.58-.47.95-.7,1.11-.7v11.37c0,.74.02,1.21.04,1.42.03.21.1.31.22.31.18,0,.36-.07.56-.2.12-.08.25-.15.39-.22s.32-.1.51-.1c.04,0,.06.02.06.06v.03s-.02.06-.06.06c-.31.02-.64.13-.98.34s-.75.49-1.21.86c-.58.47-.95.7-1.11.7v-4.03c-.84,1.21-1.89,2.26-3.17,3.16Z" fill="#171717" stroke-width="0"/>
    </g>
    <g isolation="isolate">
      <path d="M261.38,84.07v-.03s.02-.06.06-.06c.56,0,.98-.11,1.24-.32.26-.21.42-.49.48-.82.06-.33.09-.8.09-1.4v-8.68c0-.74-.01-1.21-.04-1.42-.03-.2-.1-.31-.22-.31-.16,0-.34.07-.55.2-.12.08-.25.15-.39.22s-.32.1-.51.1c-.04,0-.06-.02-.06-.06v-.03s.02-.06.06-.06c.31-.02.64-.13.98-.34.34-.2.75-.49,1.21-.86.58-.47.95-.7,1.11-.7v4.09c.84-1.23,1.91-2.29,3.21-3.2,1.3-.91,2.58-1.36,3.83-1.36v1.87c-.66-.19-1.31-.29-1.93-.29-.88,0-1.69.2-2.43.58-.86.45-1.52,1.15-1.99,2.1s-.7,1.94-.7,2.95v5.17c0,.6.03,1.07.09,1.4.06.33.22.6.48.82.26.21.68.32,1.24.32.04,0,.06.02.06.06v.03s-.02.06-.06.06h-5.2s-.06-.02-.06-.06Z" fill="#171717" stroke-width="0"/>
    </g>
    <g isolation="isolate">
      <path d="M277.25,83.56c-1.17-.69-2.07-1.63-2.72-2.82-.64-1.19-.96-2.49-.96-3.92s.33-2.73.98-3.92,1.54-2.13,2.66-2.82,2.34-1.04,3.67-1.04,2.41.28,3.43.85c1.02.56,1.86,1.35,2.51,2.35.65,1,1.07,2.13,1.24,3.37h-12.68c-.04.51-.06.9-.06,1.17,0,1.34.26,2.56.79,3.64.53,1.08,1.27,1.93,2.22,2.54s2.05.92,3.27.92c1.38,0,2.55-.34,3.51-1.02.95-.68,1.68-1.6,2.16-2.75.02-.04.05-.05.09-.03.04.02.05.05.03.09-.47,1.32-1.25,2.39-2.34,3.2-1.09.81-2.36,1.21-3.8,1.21s-2.83-.35-4-1.04ZM286.25,75.48c-.04-1.13-.29-2.17-.75-3.13-.46-.95-1.09-1.71-1.9-2.28s-1.72-.85-2.73-.85c-.94,0-1.79.28-2.57.83-.78.55-1.42,1.31-1.91,2.26-.5.95-.82,2.01-.98,3.16h10.84Z" fill="#171717" stroke-width="0"/>
    </g>
  </g>
  <g>
    <path d="M136.72,51.7c-1.79,1.65-3.52,2.78-5.19,3.39h-.08c-.11.05-.23.11-.34.17-.05,0-.11.03-.17.08-.11,0-.22.03-.34.08h-.17c-2.79.78-5.64.66-8.55-.38-2.91-1.03-5.48-3.11-7.71-6.24-1.51-2.29-2.88-5.28-4.11-8.97l33.27-24.8-.5-.67c0-.05-.03-.11-.08-.17-5.31-6.37-12.37-9.19-21.2-8.46-2.79.17-5.39.62-7.79,1.34-3.02.95-5.76,2.43-8.21,4.44-2.46,1.96-4.39,4.5-5.78,7.62-1.4,3.52-2.09,7.5-2.09,11.94s.7,8.45,2.09,12.03c1.4,3.07,3.32,5.61,5.78,7.62,2.46,1.96,5.19,3.41,8.21,4.36,6.93,1.95,13.83,1.95,20.7,0,5.53-2.01,10-4.97,13.41-8.88h-7.29c-.79,2.01-2.07,3.84-3.86,5.49h0ZM106.89,20.83c.39-3.8,1.59-6.9,3.6-9.3,2.01-2.4,4.44-3.99,7.29-4.78h.08c.11-.05.22-.08.34-.08.05,0,.14-.03.25-.08h.34l.08-.08c2.68-.5,5.36-.21,8.04.88,2.68,1.09,5.06,3.09,7.12,5.99.95,1.4,1.87,3.13,2.77,5.19l-27.07,20.2c-2.12-6.87-3.07-12.85-2.85-17.93h0Z" fill="#171717" stroke-width="0"/>
    <path d="M51.93,46.5c-.25,0-.46.08-.63.25-1.9,2.46-4.4,4.41-7.5,5.87-3.1,1.45-6.05,2.29-8.84,2.51-5.14.39-9.67-1.98-13.58-7.12-2.18-3.35-3.99-7.85-5.45-13.49s-2.07-10.47-1.84-14.5c.39-3.8,1.59-6.9,3.6-9.3,2.01-2.4,4.44-3.99,7.29-4.78h.08c.11-.05.22-.08.34-.08.05,0,.14-.03.25-.08h.34l.08-.08c4.47-.67,8.56.36,12.28,3.1,3.72,2.74,6.3,6.28,7.75,10.64v-11.4c-2.85-1.9-6.59-3.02-11.23-3.35-4.64-.34-9.27.2-13.91,1.59-3.02.95-5.76,2.43-8.21,4.44-2.46,1.96-4.39,4.5-5.78,7.62-1.4,3.52-2.09,7.5-2.09,11.94s.7,8.45,2.09,12.03c1.4,3.07,3.32,5.61,5.78,7.63,2.46,1.96,5.19,3.41,8.21,4.36,6.93,1.95,13.83,1.95,20.7,0,3.07-.95,5.81-2.4,8.21-4.36.95-.73,1.79-1.54,2.51-2.43.17-.22.2-.45.08-.67s-.29-.34-.54-.34h0Z" fill="#171717" stroke-width="0"/>
    <path d="M90.19,4.85c-1.84,0-3.68.29-5.49.88-1.82.59-3.42,1.55-4.82,2.89-.95.95-1.9,1.93-2.85,2.93-2.23,2.24-4.5,4.47-6.79,6.7v-8.04c-.05-1.62-.74-2.99-2.05-4.11-1.31-1.12-2.78-1.31-4.4-.59l-8.55,4.52h1.09c1.34-.05,2.29,0,2.85.17.56.17.91.6,1.05,1.3.14.7.18,1.86.13,3.48v36.87c-.11,1.23-.55,2.15-1.3,2.77s-1.49,1.01-2.22,1.17h16.93c-.73-.17-1.45-.56-2.18-1.17-.73-.61-1.17-1.53-1.34-2.77V19.77l9.97-9.97c1.51-1.62,3.41-2.38,5.7-2.26.78.06,1.47.32,2.05.8s1.41,1.33,2.47,2.55c.39.45.87.98,1.42,1.59l6.7-5.03c-2.07-1.73-4.86-2.6-8.38-2.6h0Z" fill="#171717" stroke-width="0"/>
    <path d="M332.61,6.45c-.78-2.23-1.79-4.05-3.02-5.45l-4.53,6.28c.73.34,1.37.62,1.93.84,1.51.67,2.57,1.2,3.19,1.59.61.39,1.09.98,1.42,1.76.9,2.12.84,4.19-.17,6.2-3.69,8.33-7.37,16.68-11.06,25.06l-13.49-36.03c-.5-1.23-1.36-2.18-2.55-2.85-1.2-.67-2.42-.78-3.65-.34-.39.17-.7.38-.92.63-.23.25-.45.52-.67.8-.05.05-.11.11-.17.17l-10.47,13.16,1.42-.08,4.61-5.95c.28-.28.62-.53,1.01-.75.39-.22.84-.28,1.34-.17.67.23,1.2.7,1.59,1.42.39.73.7,1.4.92,2.01,0,.11.03.2.08.25l15.25,40.73-21.79,28.4h10.47l12.49-28.4,16.76-38.13c1.4-3.69,1.4-7.4,0-11.14h0Z" fill="#171717" stroke-width="0"/>
    <path d="M196.54,52.91c-.98-1.17-1.57-2.57-1.76-4.19-.2-1.62-.29-3.32-.29-5.11v-7.79c-2.35,1.68-4.37,3.44-6.08,5.28s-2.58,3.55-2.64,5.11c.11,3.07,1.09,5.25,2.93,6.54,1.84,1.29,3.95,2.07,6.33,2.35,2.37.28,4.37.36,5.99.25h.17c-2.12-.45-3.67-1.26-4.65-2.43h0Z" fill="#171717" stroke-width="0"/>
    <path d="M220.63,51.48V18.13c-.28.22-.56.45-.84.67-2.24,1.68-4.29,3.52-6.16,5.53-1.87,2.01-2.84,4.36-2.89,7.04v20.11c-.17,1.23-.62,2.15-1.34,2.77s-1.45.98-2.18,1.09h16.93c-.73-.11-1.47-.47-2.22-1.09-.75-.61-1.19-1.54-1.3-2.77h0Z" fill="#171717" stroke-width="0"/>
    <path d="M285.75,51.48V19.05c0-9.72-4.22-14.58-12.65-14.58-.67,0-1.34.03-2.01.08l-3.6,2.18-14.5,8.55c-1.01-7.21-5.17-10.81-12.48-10.81h-1.42c-.62,0-1.09.03-1.42.08-3.57,2.18-6.95,4.41-10.14,6.7-2.18,1.57-4.47,3.13-6.87,4.69v-6.28c-.11-1.62-.83-2.96-2.14-4.02-1.31-1.06-2.78-1.23-4.4-.5l-8.55,4.52h1.09c1.34-.05,2.31,0,2.89.17s.94.6,1.05,1.3c.11.7.17,1.86.17,3.48v7.79l-16.26,10.89v-12.99c0-4.36-.88-7.79-2.64-10.31s-4.02-4.26-6.79-5.24c-2.77-.98-5.74-1.36-8.93-1.13-4.08.22-7.74.87-10.98,1.93-3.24,1.06-6.37,2.91-9.38,5.53v10.64c.17-.28.36-.61.59-1.01,1.4-2.35,3.8-5.38,7.21-9.09,3.41-3.72,7.63-6.13,12.65-7.25,4.24-.5,7.26.84,9.05,4.02,1.9,2.91,1.98,6.03.25,9.38-.95,1.68-2.29,2.88-4.02,3.6-2.12.78-4.36,1.37-6.7,1.76-.84.11-1.62.25-2.35.42-4.91,1.01-9.05,3-12.4,5.99-3.35,2.99-5.14,7.19-5.36,12.61-.05,3.74.89,6.87,2.85,9.38,1.96,2.51,4.8,3.77,8.55,3.77,2.12,0,3.94-.31,5.45-.92,1.51-.61,2.85-1.42,4.02-2.43,2.57-2.23,4.41-4.11,5.53-5.61,1.06-1.34,2.5-2.83,4.32-4.48,1.81-1.65,4.82-3.81,9.01-6.5l26.23-17.6,14.91-10.22c2.18-.22,4.11.73,5.78,2.85,1.28,1.84,1.93,4.47,1.93,7.88v4.02l24.89-14.75c2.18-.22,4.08.73,5.7,2.85,1.34,1.84,2.01,4.47,2.01,7.88v33.18c-.11,1.23-.55,2.15-1.3,2.77s-1.49.98-2.22,1.09h16.93c-.73-.11-1.45-.47-2.18-1.09-.73-.61-1.17-1.54-1.34-2.77h0ZM185.78,27.85c-.05,4.19-.08,8.19-.08,11.98-2.63,1.96-4.89,4-6.79,6.12-2.12,2.51-4.19,4.22-6.2,5.11-2.01.9-4.39-.03-7.12-2.77-1.96-2.18-2.9-4.86-2.85-8.04.05-3.91,1.27-7.28,3.65-10.1,2.38-2.82,5.32-4.68,8.84-5.57.61-.17,1.68-.49,3.18-.97,1.51-.47,2.99-1.1,4.44-1.89,1.45-.78,2.43-1.7,2.93-2.77v8.88h0Z" fill="#171717" stroke-width="0"/>
    <path d="M253.23,51.48V16.71c-2.91,1.79-5.29,3.6-7.17,5.45s-2.81,3.77-2.81,5.78v23.55c-.11,1.23-.55,2.15-1.3,2.77s-1.47.98-2.14,1.09h16.93c-.73-.11-1.47-.47-2.22-1.09-.75-.61-1.19-1.54-1.3-2.77h0Z" fill="#171717" stroke-width="0"/>
  </g>
  <g>
    <g isolation="isolate">
      <g isolation="isolate">
        <path d="M347.34,1.76v1.41h-1.72v5.17h-1.57V3.17h-1.72v-1.41h5.02Z" fill="#171717" stroke-width="0"/>
        <path d="M355.8,8.34h-1.57l-.47-3.76-1.41,3.76h-.94l-1.41-3.76-.47,3.76h-1.57l.78-6.58h1.57l1.57,3.92,1.57-3.92h1.57l.78,6.58Z" fill="#171717" stroke-width="0"/>
      </g>
    </g>
    <g isolation="isolate">
      <g isolation="isolate">
        <path d="M347.65,1.76v1.41h-1.72v5.17h-1.57V3.17h-1.72v-1.41h5.02Z" fill="#171717" stroke-width="0"/>
        <path d="M356.12,8.34h-1.57l-.47-3.76-1.41,3.76h-.94l-1.41-3.76-.47,3.76h-1.57l.78-6.58h1.57l1.57,3.92,1.57-3.92h1.57l.78,6.58Z" fill="#171717" stroke-width="0"/>
      </g>
    </g>
  </g>
</svg>