<?xml version="1.0" encoding="UTF-8"?>
<svg id="Layer_1" data-name="Layer 1" xmlns="http://www.w3.org/2000/svg" viewBox="0 0 507 86">
  <g>
    <path d="M13.91,65.22c-1.33.16-2.64.24-3.92.24s-2-.59-2-1.76c0-.48.16-.92.48-1.32.32-.4.85-.92,1.6-1.56,1.07-.8,1.93-1.61,2.6-2.44.67-.83,1.13-1.91,1.4-3.24l7.68-36c.11-.53.16-.93.16-1.2,0-1.07-.29-1.95-.88-2.64-.59-.69-1.44-1.47-2.56-2.32-.69-.48-1.23-.92-1.6-1.32-.37-.4-.56-.81-.56-1.24,0-1.17.67-1.76,2-1.76l3.52.16c1.44.16,2.72.24,3.84.24h18.88c6.72,0,12,1.77,15.84,5.32,3.84,3.55,5.76,8.52,5.76,14.92,0,2.35-.29,4.93-.88,7.76-1.23,5.81-3.41,10.83-6.56,15.04-3.15,4.21-6.96,7.43-11.44,9.64-4.48,2.21-9.36,3.32-14.64,3.32h-15.28c-.59,0-1.73.05-3.44.16ZM33.44,60.9c7.84,0,13.49-7.95,16.96-23.84,1.01-4.8,1.52-8.8,1.52-12,0-7.89-2.75-11.84-8.24-11.84h-6.48l-10.08,47.68h6.32Z" fill="#171717" stroke-width="0"/>
    <path d="M76.72,24.02v6.56h.24c1.28-2.4,2.69-4.17,4.24-5.32,1.55-1.15,3.49-1.72,5.84-1.72,1.12,0,1.97.11,2.56.32v9.52h-.24c-3.68-.37-6.64.43-8.88,2.4-2.24,1.97-3.36,5.07-3.36,9.28v20h-10.88V24.02h10.48Z" fill="#171717" stroke-width="0"/>
    <path d="M94.32,17.62V7.86h10.88v9.76h-10.88ZM94.32,65.06V24.02h10.88v41.04h-10.88Z" fill="#171717" stroke-width="0"/>
    <path d="M112.24,78.5V24.02h10.48v5.12h.24c3.04-4.16,7.07-6.24,12.08-6.24,5.39,0,9.71,2,12.96,6,3.25,4,4.88,9.23,4.88,15.68s-1.63,11.88-4.88,15.8c-3.25,3.92-7.55,5.88-12.88,5.88s-9.28-1.95-11.84-5.84h-.16v18.08h-10.88ZM132.8,57.22c2.77,0,4.97-1.09,6.6-3.28,1.63-2.19,2.44-5.2,2.44-9.04,0-4.11-.77-7.33-2.32-9.68-1.55-2.35-3.92-3.52-7.12-3.52s-5.65,1.21-7.2,3.64c-1.55,2.43-2.32,5.61-2.32,9.56s.85,6.79,2.56,9c1.71,2.21,4.16,3.32,7.36,3.32Z" fill="#171717" stroke-width="0"/>
    <path d="M157.92,78.5V24.02h10.48v5.12h.24c3.04-4.16,7.07-6.24,12.08-6.24,5.39,0,9.71,2,12.96,6,3.25,4,4.88,9.23,4.88,15.68s-1.63,11.88-4.88,15.8c-3.25,3.92-7.55,5.88-12.88,5.88s-9.28-1.95-11.84-5.84h-.16v18.08h-10.88ZM178.48,57.22c2.77,0,4.97-1.09,6.6-3.28,1.63-2.19,2.44-5.2,2.44-9.04,0-4.11-.77-7.33-2.32-9.68-1.55-2.35-3.92-3.52-7.12-3.52s-5.65,1.21-7.2,3.64c-1.55,2.43-2.32,5.61-2.32,9.56s.85,6.79,2.56,9c1.71,2.21,4.16,3.32,7.36,3.32Z" fill="#171717" stroke-width="0"/>
    <path d="M203.61,78.5V24.02h10.48v5.12h.24c3.04-4.16,7.07-6.24,12.08-6.24,5.39,0,9.71,2,12.96,6,3.25,4,4.88,9.23,4.88,15.68s-1.63,11.88-4.88,15.8c-3.25,3.92-7.55,5.88-12.88,5.88s-9.28-1.95-11.84-5.84h-.16v18.08h-10.88ZM224.17,57.22c2.77,0,4.97-1.09,6.6-3.28,1.63-2.19,2.44-5.2,2.44-9.04,0-4.11-.77-7.33-2.32-9.68-1.55-2.35-3.92-3.52-7.12-3.52s-5.65,1.21-7.2,3.64c-1.55,2.43-2.32,5.61-2.32,9.56s.85,6.79,2.56,9c1.71,2.21,4.16,3.32,7.36,3.32Z" fill="#171717" stroke-width="0"/>
    <path d="M267.73,65.26c-2.91-.72-5.11-1.61-6.6-2.68-1.49-1.07-2.21-2.11-2.16-3.12.27-4.59.56-8.27.88-11.04l.16-2.24c0-.69.35-1.04,1.04-1.04.27,0,.6.28,1,.84s.92,1.43,1.56,2.6c1.39,2.4,2.73,4.51,4.04,6.32,1.31,1.81,2.96,3.41,4.96,4.8,2,1.39,4.25,2.08,6.76,2.08,2.72,0,4.88-.79,6.48-2.36,1.6-1.57,2.4-3.48,2.4-5.72,0-1.92-.77-3.67-2.32-5.24-1.55-1.57-4-3.59-7.36-6.04-2.77-1.97-5.03-3.71-6.76-5.2-1.73-1.49-3.2-3.23-4.4-5.2-1.2-1.97-1.8-4.13-1.8-6.48,0-3.68,1.16-6.85,3.48-9.52,2.32-2.67,5.43-4.71,9.32-6.12,3.89-1.41,8.13-2.12,12.72-2.12s8.39.44,11.08,1.32c2.69.88,4.04,1.99,4.04,3.32l-.16,4.48c-.05,1.33-.11,2.8-.16,4.4-.05,1.6-.11,2.59-.16,2.96-.16.8-.59,1.2-1.28,1.2-.43,0-.88-.29-1.36-.88-.48-.59-1.15-1.57-2-2.96-1.81-2.88-3.63-5.2-5.44-6.96-1.81-1.76-4.03-2.64-6.64-2.64-2.88,0-5.11.71-6.68,2.12-1.57,1.41-2.36,3.13-2.36,5.16,0,1.87.77,3.57,2.32,5.12,1.55,1.55,3.95,3.47,7.2,5.76,2.77,1.92,5.03,3.61,6.76,5.08,1.73,1.47,3.2,3.19,4.4,5.16,1.2,1.97,1.8,4.13,1.8,6.48,0,3.89-1.07,7.31-3.2,10.24-2.13,2.93-5.05,5.2-8.76,6.8-3.71,1.6-7.85,2.4-12.44,2.4-4,0-7.45-.36-10.36-1.08Z" fill="#171717" stroke-width="0"/>
    <path d="M305.61,31.22v-7.2h5.68v-12.8h10.64v12.8h7.04v7.2h-7.04v21.76c0,2.72,1.36,4.08,4.08,4.08l3.2-.08v8c-1.65.11-3.92.16-6.8.16-3.15,0-5.79-.76-7.92-2.28-2.13-1.52-3.2-4.04-3.2-7.56v-24.08h-5.68Z" fill="#171717" stroke-width="0"/>
    <path d="M370.98,65.06h-10.48v-4.8h-.24c-1.49,2.03-3.13,3.52-4.92,4.48-1.79.96-4.07,1.44-6.84,1.44-4.48,0-7.97-1.33-10.48-4-2.51-2.67-3.76-6.27-3.76-10.8v-27.36h10.8v25.52c0,4.96,2.27,7.44,6.8,7.44,2.51,0,4.51-.85,6-2.56,1.49-1.71,2.24-3.95,2.24-6.72v-23.68h10.88v41.04Z" fill="#171717" stroke-width="0"/>
    <path d="M393.38,66.26c-5.17,0-9.36-1.96-12.56-5.88-3.2-3.92-4.8-9.19-4.8-15.8s1.64-11.61,4.92-15.64c3.28-4.03,7.48-6.04,12.6-6.04s8.99,2.03,11.6,6.08h.24V7.86h10.88v57.2h-10.48v-5.36h-.16c-2.67,4.37-6.75,6.56-12.24,6.56ZM395.78,57.14c3.2,0,5.64-1.09,7.32-3.28,1.68-2.19,2.52-5.2,2.52-9.04,0-8.75-3.17-13.12-9.52-13.12-2.93,0-5.17,1.17-6.72,3.52-1.55,2.35-2.32,5.47-2.32,9.36s.76,7.09,2.28,9.28c1.52,2.19,3.67,3.28,6.44,3.28Z" fill="#171717" stroke-width="0"/>
    <path d="M423.3,17.62V7.86h10.88v9.76h-10.88ZM423.3,65.06V24.02h10.88v41.04h-10.88Z" fill="#171717" stroke-width="0"/>
    <path d="M476.1,60.06c-4,4.13-9.15,6.2-15.44,6.2s-11.44-2.07-15.44-6.2c-4-4.13-6-9.29-6-15.48s2-11.35,6-15.48c4-4.13,9.15-6.2,15.44-6.2s11.44,2.07,15.44,6.2c4,4.13,6,9.29,6,15.48s-2,11.35-6,15.48ZM460.66,57.94c3.25,0,5.8-1.21,7.64-3.64,1.84-2.43,2.76-5.67,2.76-9.72s-.92-7.31-2.76-9.76c-1.84-2.45-4.39-3.68-7.64-3.68s-5.87,1.21-7.68,3.64c-1.81,2.43-2.72,5.69-2.72,9.8s.91,7.29,2.72,9.72c1.81,2.43,4.37,3.64,7.68,3.64Z" fill="#171717" stroke-width="0"/>
  </g>
  <path d="M492.66,16.22v.14c.95.06,1.39.67,1.39,1.62v2.28s-1.91,0-1.91,0v-1.91c0-.95-.35-1.3-1.24-1.3h-1.27v3.21s-1.94,0-1.94,0v-8.59s3.5,0,3.5,0c1.94,0,2.95.81,2.95,2.54.04.45-.09.91-.36,1.27-.27.37-.66.62-1.11.72ZM489.63,13.33v2.14h1.47c.15,0,.29-.01.43-.06.14-.05.26-.13.37-.24.1-.1.19-.23.24-.37.05-.14.07-.29.06-.43,0-.14-.01-.28-.07-.42-.05-.13-.13-.25-.23-.35-.1-.1-.22-.17-.35-.22-.13-.05-.28-.06-.42-.05h-1.5Z" fill="#171717" stroke-width="0"/>
  <path d="M490.55,9.63c1.25,0,2.48.37,3.52,1.07,1.04.7,1.86,1.69,2.34,2.85.48,1.16.6,2.44.36,3.67-.25,1.23-.85,2.36-1.74,3.25-.89.89-2.02,1.49-3.24,1.74-1.23.24-2.5.12-3.66-.36-1.16-.48-2.15-1.29-2.85-2.34-.7-1.04-1.07-2.27-1.07-3.53,0-1.68.67-3.3,1.86-4.49,1.19-1.19,2.8-1.86,4.48-1.86ZM490.55,7.5c-1.68,0-3.31.5-4.7,1.43-1.39.93-2.47,2.25-3.12,3.8-.64,1.55-.81,3.25-.48,4.9.33,1.64,1.13,3.15,2.31,4.34,1.18,1.18,2.69,1.99,4.33,2.32,1.64.33,3.34.16,4.89-.48,1.54-.64,2.87-1.73,3.8-3.12.93-1.39,1.42-3.03,1.42-4.71,0-2.25-.89-4.4-2.48-5.99-1.59-1.59-3.74-2.48-5.98-2.48Z" fill="#171717" stroke-width="0"/>
</svg>