<?xml version="1.0" encoding="UTF-8"?>
<svg id="Layer_1" data-name="Layer 1" xmlns="http://www.w3.org/2000/svg" viewBox="0 0 372 131">
  <g>
    <path d="M102.18,50.36v10.83h9.47v-10.83h6.96v27.65h-6.96v-11.14h-9.47v11.14h-6.96v-27.65h6.96Z" fill="#171717" stroke-width="0"/>
    <path d="M122.48,50.36h8.51l5.68,17.63h.08l5.68-17.63h8.51v27.65h-6.57v-17.21h-.08l-5.14,17.21h-4.87l-5.14-17.21h-.08v17.21h-6.57v-27.65Z" fill="#171717" stroke-width="0"/>
    <path d="M177.42,69.88c0,5.3-4.02,8.74-10.94,8.74s-12.61-3.56-12.61-9.71h6.96c0,2.94,2.55,4.02,5.65,4.02,2.59,0,3.98-1.01,3.98-2.4,0-2.2-2.98-2.71-6.88-3.87-4.76-1.39-8.93-3.44-8.93-8.54,0-6.03,4.72-8.39,10.67-8.39,6.46,0,11.52,3.4,11.72,9.01h-6.96c-.31-2.09-2.09-3.32-4.76-3.32-2.09,0-3.71.66-3.71,2.2,0,1.7,1.74,2.24,5.22,3.21,5.22,1.43,10.59,3.13,10.59,9.05Z" fill="#171717" stroke-width="0"/>
    <path d="M186.84,50.58h13.31c5.71,0,9.28,2.99,9.28,8.74s-3.57,8.74-9.28,8.74h-6.4v9.93h-6.9v-27.42ZM193.74,62.43h4.95c2.38,0,3.83-.81,3.83-3.11s-1.46-3.11-3.83-3.11h-4.95v6.21Z" fill="#171717" stroke-width="0"/>
    <path d="M224.15,58.18v5.37h-.08c-3.14-.58-6.48,1.15-6.48,5.33v9.13h-6.14v-19.63h6.14v3.22h.08c.96-2.19,2.65-3.57,4.79-3.57.54,0,1,0,1.69.15Z" fill="#171717" stroke-width="0"/>
    <path d="M235.39,78.62c-6.56,0-10.51-4.33-10.51-10.43s3.95-10.43,10.51-10.43,10.47,4.33,10.47,10.43-3.95,10.43-10.47,10.43ZM235.39,74.01c2.68,0,4.33-2.03,4.33-5.83s-1.65-5.83-4.33-5.83-4.37,2.03-4.37,5.83,1.65,5.83,4.37,5.83Z" fill="#171717" stroke-width="0"/>
    <path d="M268.41,68.19c0,6.44-3.34,10.43-8.55,10.43-2.84,0-4.91-1.53-5.68-2.57h-.08v8.74h-6.14v-26.42h6.14v1.96h.08c.77-1.04,2.84-2.57,5.68-2.57,5.22,0,8.55,3.99,8.55,10.43ZM262.27,68.19c0-3.83-1.53-5.83-4.03-5.83s-4.03,1.99-4.03,5.83,1.53,5.83,4.03,5.83,4.03-1.99,4.03-5.83Z" fill="#171717" stroke-width="0"/>
    <path d="M283.36,58.18v5.37h-.08c-3.14-.58-6.48,1.15-6.48,5.33v9.13h-6.14v-19.63h6.14v3.22h.08c.96-2.19,2.65-3.57,4.79-3.57.54,0,1,0,1.69.15Z" fill="#171717" stroke-width="0"/>
    <path d="M297.93,72.06h6.1c-1.07,3.95-4.14,6.56-9.47,6.56-6.52,0-10.47-4.29-10.47-10.43s3.87-10.43,10.12-10.43c6.71,0,10.12,4.91,10.12,12.04h-14.11c0,2.76,2.03,4.22,4.22,4.22s3.11-1,3.49-1.96ZM290.23,66.08h7.98c0-2.72-1.65-4.1-3.99-4.1s-3.99,1.38-3.99,4.1Z" fill="#171717" stroke-width="0"/>
    <path d="M313.85,62.97v8.13c0,2.22.81,2.22,3.41,2.22v4.6c-1.11.23-2.07.42-3.8.42-4.49,0-5.75-2.38-5.75-6.79v-8.59h-2.72v-4.6h2.72v-5.48h6.14v5.48h3.41v4.6h-3.41Z" fill="#171717" stroke-width="0"/>
    <path d="M332.29,72.06h6.1c-1.07,3.95-4.14,6.56-9.47,6.56-6.52,0-10.47-4.29-10.47-10.43s3.87-10.43,10.12-10.43c6.71,0,10.12,4.91,10.12,12.04h-14.11c0,2.76,2.03,4.22,4.22,4.22s3.11-1,3.49-1.96ZM324.59,66.08h7.98c0-2.72-1.65-4.1-3.99-4.1s-3.99,1.38-3.99,4.1ZM330.8,55.76h-4.6l1.65-5.37h6.9l-3.95,5.37Z" fill="#171717" stroke-width="0"/>
  </g>
  <path d="M118.15,5.17c-.05-.06-.09-.11-.14-.17-25.65,7.44-51.29,14.89-77.32,22.45,7.31,16.59,14.48,32.92,21.67,49.26l10.52,23.9c-5.04.34-6.79-2.38-8.24-5.67-7.36-16.7-14.8-33.39-22.18-50.1-3.03-6.88-5.95-13.81-9.05-21.03,2.82-.98,4.87-1.69,6.92-2.4l1.43-.51-1.54-.16v-.02c-.11,0-.2,0-.31-.02h0c-4.71-.28-9.44-.58-14.82-.9,1.84,4.37,3.26,7.74,4.86,11.53-4.3,1.17-8.13,2.21-12.53,3.4,1.98,3.82,3.72,7.17,5.74,11.06-5.01,1.31-9.45,2.47-14.47,3.78,14.48,25.7,28.66,50.84,43.1,76.44,13.5-6.85,26.6-13.51,39.69-20.16l1.1-.72-1.34-.48c-5.16-1.1-10.34-2.2-15.3-3.25l1.51-26.62v-.11c.03-.6.06-1.21.11-1.81-2.89-.2-4.92-.34-7.84-.54,15.14-20.46,29.94-40.46,44.71-60.41,10.82,10.08,21.36,19.9,30.9,28.77-8.29-10.94-17.5-23.08-27.05-35.67-.04.06-.08.11-.12.17ZM54.99,120.83c-12.26-23.16-24.29-45.9-36.55-69.06,2.32-1.17,4.11-2.06,6.36-3.18,5.13,10.33,10.09,20.25,15.01,30.18,5.44,10.98,10.91,21.95,16.22,33,1.39,2.9,3.04,3.58,6.07,2.46,3.23-1.2,6.68-1.81,10.04-2.69.15.44.31.89.47,1.33-5.72,2.59-11.44,5.16-17.61,7.95ZM82.44,104.82c.05.55.09,1.1.13,1.65-6.48.88-12.94,1.94-19.44,2.46-1.22.1-3.14-1.77-3.82-3.17-10.99-22.5-21.84-45.08-32.68-67.67-.27-.55-.26-1.24-.38-1.87,3.38-2.8,5.48-2.29,7.3,1.8,8.72,19.65,17.75,39.15,26.39,58.83,1.98,4.5,4.29,7.12,9.63,6.89,4.27-.17,8.58.69,12.87,1.08Z" fill="#171717" stroke-width="0"/>
  <path d="M359.05,69.18c-5.81-6.17-13.23-9.26-21.43-10.54,2.61,1.52,5.26,2.98,7.82,4.58,11.77,7.35,12.16,16.41.98,24.6-12.75,9.33-27.67,13.16-42.8,16.23-22.96,4.66-46.27,4.09-69.53,4.28-1.81.01-3.64,0-5.46,0,.93,1.31,1.92,1.58,2.91,1.62,8.66.29,17.31.67,25.98.79,18.26.26,36.37-.71,54.1-4.18,33.84-4.84,46.7-18.45,49.24-21.57.14-.17.24-.3.32-.4.02-.02.03-.03.04-.05.05-.06.08-.11.1-.14.02-.03.03-.05.03-.05,3.36-4.63,2.25-10.34-2.3-15.16Z" fill="#171717" stroke-width="0"/>
</svg>