<?xml version="1.0" encoding="UTF-8"?>
<svg id="Layer_1" data-name="Layer 1" xmlns="http://www.w3.org/2000/svg" viewBox="0 0 706 90">
  <path d="M184.62,10.79l13.29,37.29c2.66,7.79,2.66,12.75,2.66,14.7h2.66c0-1.95,0-6.91,2.66-14.7l13.29-37.29h12.67l7.53,70.85h-14l-3.46-41.98c-.35-4.07,3.37-4.43,3.01-8.59l-1.77-1.15-5.05,14.44-9.3,28.16h-14l-9.13-27.99-5.05-14.53-1.77,1.15c-.35,4.16,3.37,4.52,3.01,8.59l-3.46,41.89h-14l7.44-70.85h12.76Z" fill="#171717" stroke-width="0"/>
  <path d="M297.36,10.48v11.44h-37.44v13.84h28.55v11.35h-28.55v22.97h38.33v11.35h-52.38V10.48h51.49Z" fill="#171717" stroke-width="0"/>
  <path d="M365.99,41.41v14.82l3.22,24.95h-6.62l-4.27-12.09c-1.22-2.98,1.48-4,.26-6.98l-1.57-.51-2.18,7.75c-3.4,6.64-9.14,11.84-18.63,11.84-21.33,0-36.04-14.56-36.04-35.42,0-22.14,15.76-35.42,35.35-35.42,12.36,0,24.2,7.32,30.21,18.39l-12.8,2.89c-3.57-6.56-10.88-10.3-17.85-10.3-11.4,0-21.16,10.13-21.16,24.44s9.75,24.78,21.16,24.78,17.33-7.07,18.98-13.96v-5.96h-19.59l-.09-9.2h31.6Z" fill="#171717" stroke-width="0"/>
  <path d="M435.45,81.05h-15.01l-4.33-13.18h-24.29l-4.33,13.18h-15.01l25.43-70.78h12.19l25.35,70.78ZM413.02,58.31l-6.36-20.35c-1.77-5.66-1.77-9.11-1.77-10.44h-1.77c0,1.33,0,4.78-1.77,10.44l-6.45,20.35h18.1Z" fill="#171717" stroke-width="0"/>
  <path d="M494.96,62.14c0,10.28-7.59,19.86-25.44,19.86-16.66,0-29.58-8.89-30.57-25.1h8.87c.99,9.68,6.9,17.19,21.69,17.19,12.23,0,16.57-5.63,16.57-11.95,0-9.68-5.23-11.46-21-15.12-10.55-2.47-23.17-6.13-23.17-19.86,0-11.16,8.58-18.57,24.16-18.57s25.44,7.71,26.62,22.33h-8.87c-1.28-9.48-6.61-14.42-17.75-14.42-9.96,0-15.28,3.85-15.28,9.68,0,9.39,7.59,10.67,17.95,13.24,15.88,3.95,26.23,6.62,26.23,22.72Z" fill="#171717" stroke-width="0"/>
  <path d="M501.94,45.11c0-21.3,14.01-36.75,35.04-36.75s35.04,15.45,35.04,36.75-14.01,36.85-35.04,36.85-35.04-15.55-35.04-36.85ZM563,45.11c0-15.25-8.01-28.83-26.03-28.83s-26.03,13.57-26.03,28.83,8.01,28.92,26.03,28.92,26.03-13.67,26.03-28.92Z" fill="#171717" stroke-width="0"/>
  <path d="M622.89,40.29v8.23h-32.46v33.24h-9.16V8.18h49.35v8.23h-40.19v23.87h32.46Z" fill="#171717" stroke-width="0"/>
  <path d="M662.75,16.23h-24.43v-8.23h58.09v8.23h-24.43v65.34h-9.24V16.23Z" fill="#171717" stroke-width="0"/>
  <path d="M48.22,11c4.73.22,9.51,2.28,12.46,7.25,8.04,13.54,16.08,27.08,23.83,40.78,4.17,7.35,1.34,16.59-5.79,20.7-7.66,4.41-17.08,2.28-21.63-5.31-7.97-13.29-15.83-26.65-23.41-40.16-5.93-10.56,1.6-23.17,14.54-23.26Z" fill="#171717" stroke-width="0"/>
  <path d="M94.54,11c4.73.22,9.51,2.28,12.46,7.25,8.04,13.54,16.08,27.08,23.83,40.78,4.17,7.35,1.34,16.59-5.79,20.7-7.66,4.41-17.08,2.28-21.63-5.31-7.97-13.29-15.83-26.65-23.41-40.16-5.93-10.56,1.6-23.17,14.54-23.26Z" fill="#171717" stroke-width="0"/>
  <path d="M9.59,65.89c.04-8.75,6.9-15.55,15.68-15.54,8.88,0,15.78,7.02,15.7,15.95-.08,8.63-7.17,15.45-15.93,15.32-8.82-.13-15.49-6.92-15.45-15.73Z" fill="#171717" stroke-width="0"/>
  <path d="M122.03,26.54c.04-8.75,6.9-15.55,15.68-15.54,8.88,0,15.78,7.02,15.7,15.95-.08,8.63-7.17,15.45-15.93,15.32-8.82-.13-15.49-6.92-15.45-15.73Z" fill="#171717" stroke-width="0"/>
</svg>