<?xml version="1.0" encoding="UTF-8"?>
<svg id="Layer_1" data-name="Layer 1" xmlns="http://www.w3.org/2000/svg" viewBox="0 0 493 89.5">
  <path d="M125.48,5.42v46.64c0,11.7-3.98,19.02-17.73,19.02s-18.63-7.84-18.63-19.4V5.42h-14.65v20.94h11.23v36.67h-10.08c2.74,10.85,10.33,17.67,21.96,20.06,3.1.64,6.5.96,10.16.96s6.93-.32,9.96-.96c14.54-3.07,22.29-13.41,22.29-30V5.42h-14.52Z" fill="#171717" stroke-width="0"/>
  <path d="M147.91,5.42v13.75h24.22v64.8h14.92V19.16h24.22V5.42h-63.36,0Z" fill="#171717" stroke-width="0"/>
  <path d="M234.88,70.59V5.27h-14.95v78.7h50.5v-13.38h-35.54,0Z" fill="#171717" stroke-width="0"/>
  <path d="M320.86,6.46c-.09-.02-.19-.04-.28-.06-.1-.02-.2-.04-.3-.06-2.96-.61-6.12-.92-9.47-.92s-6.51.31-9.47.92c-.1.02-.2.04-.3.06-.1.02-.19.04-.28.06-17.44,3.84-27.66,18.01-27.66,38.05s9.66,34.62,27.39,38.53c3.18.7,6.63,1.07,10.33,1.07s7.11-.37,10.29-1.07c17.67-3.91,27.43-18.29,27.43-38.53s-10.22-34.21-27.66-38.05h0ZM310.68,71.67c-16.22,0-23.38-10.69-23.38-27.15s7.29-26.53,23.51-26.53,23.38,10.56,23.38,26.53-7.04,27.15-23.51,27.15Z" fill="#171717" stroke-width="0"/>
  <rect x="61.13" y="16.6" width="11.24" height="11.24" fill="#171717" stroke-width="0"/>
  <g>
    <rect x="61.13" y="61.55" width="11.24" height="11.18" fill="#171717" stroke-width="0"/>
    <rect x="27.41" y="72.73" width="33.72" height="11.24" fill="#171717" stroke-width="0"/>
    <rect x="16.24" y="61.55" width="11.18" height="11.18" fill="#171717" stroke-width="0"/>
    <rect x="5" y="50.31" width="11.24" height="11.24" fill="#171717" stroke-width="0"/>
    <rect x="16.24" y="39.07" width="11.18" height="11.24" fill="#171717" stroke-width="0"/>
    <rect x="5" y="27.83" width="11.24" height="11.24" fill="#171717" stroke-width="0"/>
    <rect x="16.24" y="16.6" width="11.18" height="11.24" fill="#171717" stroke-width="0"/>
    <rect x="27.41" y="5.42" width="33.72" height="11.18" fill="#171717" stroke-width="0"/>
    <rect x="72.37" y="27.83" width="11.24" height="33.72" fill="#171717" stroke-width="0"/>
  </g>
  <g>
    <path d="M464.91,16.14v.12h.54v-.12h-.54ZM420.4,83.73v.13h45.05v-.13h-45.05Z" fill="#171717" stroke-width="0"/>
    <rect x="431.67" y="27.53" width="11.21" height="11.28" fill="#171717" stroke-width="0"/>
    <polygon points="465.45 5.39 465.45 16.14 464.91 16.14 464.91 16.25 431.67 16.25 431.67 27.53 420.4 27.53 420.4 5.39 465.45 5.39" fill="#171717" stroke-width="0"/>
    <rect x="465.45" y="16.25" width="11.27" height="11.28" fill="#171717" stroke-width="0"/>
    <rect x="476.72" y="27.53" width="11.28" height="33.83" fill="#171717" stroke-width="0"/>
    <polygon points="465.45 72.58 465.45 83.73 420.4 83.73 420.4 38.81 431.67 38.81 431.67 72.58 465.45 72.58" fill="#171717" stroke-width="0"/>
    <rect x="465.45" y="61.37" width="11.27" height="11.21" fill="#171717" stroke-width="0"/>
  </g>
  <path d="M422.97,28.64v9.41h-4.67v33.73c-4.42,6.98-11.93,11.14-22.25,12.19-1.74.18-3.55.27-5.45.27s-3.78-.09-5.55-.27c-17.82-1.77-27.85-12.4-27.85-30.82V5.39h14.7v46.33c0,11.61,4.26,19.48,18.7,19.48s17.8-7.35,17.8-19.09V5.39h9.91v23.24h4.67Z" fill="#171717" stroke-width="0"/>
</svg>