<?xml version="1.0" encoding="UTF-8"?>
<svg id="Layer_1" data-name="Layer 1" xmlns="http://www.w3.org/2000/svg" viewBox="0 0 16 16">
  <path d="M7.77.1c1.59,0,2.89.26,4.08.96.13.08.27.16.39.26,1.17,1,2.3,2.01,2.99,3.44,1.17,2.43.8,5.51-1.03,7.51-1.27,1.39-2.73,2.56-4.56,3.17-2.29.76-4.52.59-6.62-.64-.89-.52-1.42-1.34-1.81-2.27C.47,10.77.01,8.94.11,7.01c.1-1.83.68-3.47,1.98-4.82.65-.68,1.49-1.07,2.34-1.41C5.57.32,6.76.09,7.77.1ZM6.96,15.07c.88,0,1.72-.16,2.55-.44,1.41-.49,2.55-1.4,3.61-2.4,2.32-2.21,2.62-5.53.74-8.12-.43-.6-1.02-1.08-1.53-1.61-.77-.81-1.75-1.24-2.83-1.43-1.66-.3-3.29-.11-4.85.53-.72.29-1.41.62-1.96,1.19-1.16,1.19-1.67,2.66-1.74,4.28-.08,1.84.37,3.58,1.08,5.27.35.82.85,1.49,1.64,1.91,1.03.55,2.13.83,3.3.83Z" fill="#cecce6" stroke-width="0"/>
</svg>