<?xml version="1.0" encoding="UTF-8"?>
<svg id="Layer_1" data-name="Layer 1" xmlns="http://www.w3.org/2000/svg" viewBox="0 0 16 16">
  <path d="M15.95,11.67c0,.36-.04.73-.11,1.08-.07.33-.16.65-.34.93-.59.94-1.87.75-2.69.26-.45-.27-.84-.65-1.16-1.06-.4-.51-.72-1.07-1.07-1.61s-.73-1.14-1.09-1.71c-.42-.66-.84-1.33-1.26-1.99-.09-.15-.19-.29-.28-.44-.74-1.16-1.47-2.31-2.23-3.45-.22-.32-.49-.63-.81-.86-.19-.14-.41-.24-.64-.26-.16-.01-.37.02-.5.11-.16.11-.29.33-.39.49-.24.36-.41.75-.58,1.14-.64,1.5-1.14,3.05-1.5,4.64-.25,1.11-.43,2.24-.34,3.37.02.24.05.49.16.71s.3.41.54.46c.23.05.48-.04.69-.14,1.1-.55,1.82-1.66,2.46-2.67.33-.52.64-1.04.97-1.56.16-.26.33-.52.5-.78.14-.21.28-.48.49-.63.2-.14.51-.12.6.14.03.09.03.19.01.29-.04.23-.17.44-.3.64-.6.93-1.17,1.86-1.82,2.75-.09.12-.18.24-.27.36-.35.46-.72.91-1.11,1.34-.35.39-.74.74-1.22.96-.61.28-1.39.29-1.91-.14-.39-.33-.57-.84-.66-1.34-.17-.96-.07-1.94.1-2.9.26-1.42.67-2.81,1.13-4.17.33-.98.7-1.97,1.25-2.85.21-.33.44-.65.78-.86.32-.2.73-.3,1.11-.23.4.08.76.29,1.08.53.46.35.84.8,1.17,1.27.19.26.36.53.53.8.08.13.16.26.24.39.21.34.41.68.62,1.03l2.22,3.61.65,1.06c.63,1.03,1.29,2.09,2.28,2.79.38.27.92.48,1.31.21.25-.18.34-.51.39-.81.11-.69.07-1.39-.01-2.08-.26-1.99-.99-3.88-1.68-5.76-.22-.6-.44-1.2-.82-1.71-.18-.24-.44-.47-.74-.48-.24,0-.45.13-.64.28-.57.45-1.03,1.06-1.43,1.67-.1.15-.2.3-.35.41-.18.12-.44.13-.58-.02-.11-.12-.12-.3-.07-.45s.15-.28.24-.4c.47-.6.94-1.2,1.5-1.72.41-.38.92-.73,1.48-.69.4.03.76.25,1.03.54s.46.65.64,1c.87,1.72,1.54,3.54,1.97,5.42.17.76.34,1.52.41,2.3.02.27.04.54.03.81Z" fill="#da262b" stroke-width="0"/>
</svg>