<?xml version="1.0" encoding="UTF-8"?>
<svg id="Layer_1" data-name="Layer 1" xmlns="http://www.w3.org/2000/svg" viewBox="0 0 16 16">
  <path d="M14.18,12.56c-1.08,0-1.78-.43-2.09-1.29-.18-.51-.43-.89-.98-.92-.52-.03-.82.37-1.07.78-.19.31-.35.64-.59.9-.37.39-.91.6-1.44.59-.84-.01-1.58-.52-1.87-1.31-.18-.5-.41-.88-.98-.91-.57-.03-.84.36-1.09.8-.68,1.21-1.48,1.66-2.46,1.41-1.27-.33-1.95-1.71-1.32-2.89.99-1.84,2.04-3.66,3.12-5.45.57-.94,1.76-1.17,2.66-.64.96.56,1.29,1.67.79,2.69-.19.38-.53.78-.47,1.24.02.13.05.26.13.36.06.08.17.1.26.09.08,0,.15-.04.22-.08.45-.24.68-.72.89-1.15.06-.12.12-.24.19-.36.36-.62.7-1.24,1.06-1.86.69-1.2,1.81-1.57,2.9-.97.62.35.98.99.97,1.7,0,.41-.11.82-.31,1.17-.17.3-.33.66-.37,1-.03.32.06.67.32.87.27.21.65.18.99.18.84,0,1.68.27,2.08,1.07.32.64.29,1.45-.08,2.06-.14.23-.34.44-.56.59-.09.06-.18.11-.28.15-.24.11-.52.14-.62.17Z" fill="#dcdce4" stroke-width="0"/>
</svg>