<?xml version="1.0" encoding="UTF-8"?>
<svg id="Layer_1" data-name="Layer 1" xmlns="http://www.w3.org/2000/svg" viewBox="0 0 16 16">
  <path d="M11.71,6.05c-.57.35-1.08.64-1.56.96-.1.06-.17.25-.16.38.09,1.48.18,2.96.31,4.44.11,1.24-.27,2.18-1.18,2.66-.8.42-1.61.42-2.38-.07-.78-.5-1.14-1.25-1.08-2.18.08-1.29.19-2.57.28-3.86.05-.75.1-1.5.16-2.34-.57.34-1.08.63-1.57.96-.09.06-.14.26-.13.39.09,1.36.18,2.71.3,4.06.13,1.42-.85,2.61-2.26,2.68C1.13,14.2,0,13.09.05,11.72c.07-1.68.23-3.35.36-5.03.09-1.23.19-2.46.29-3.69.08-.95.76-1.62,1.64-1.62.91,0,1.61.66,1.7,1.62.02.22.03.44.04.75.57-.42,1.07-.78,1.56-1.15.45-.33.89-.67,1.34-1,.54-.4,1.11-.5,1.73-.21.61.29.91.8.94,1.47.01.28.04.55.07.89,1-.74,1.94-1.43,2.87-2.14.46-.35.96-.48,1.53-.32.61.18,1.08.75,1.13,1.37.23,2.96.46,5.92.68,8.88.1,1.4-.84,2.49-2.21,2.59-1.25.09-2.43-.95-2.43-2.3,0-1.17.16-2.35.24-3.52.05-.72.11-1.45.17-2.27Z" fill="#dcdce4" stroke-width="0"/>
</svg>