<?xml version="1.0" encoding="UTF-8"?>
<svg id="Layer_1" data-name="Layer 1" xmlns="http://www.w3.org/2000/svg" viewBox="0 0 16 16">
  <style>
    :root {
      --icon-color: #000000; /* Default for light mode */
    }
    
    @media (prefers-color-scheme: dark) {
      :root {
        --icon-color: #dcdce4; /* Your original color for dark mode */
      }
    }
    
    .icon-path {
      fill: var(--icon-color);
    }
  </style>
  <path class="icon-path" d="M10.39,4.5c-.48.29-.9.53-1.3.79-.08.05-.14.21-.13.31.08,1.22.15,2.45.26,3.67.09,1.02-.22,1.8-.98,2.19-.66.35-1.34.35-1.98-.06-.65-.41-.95-1.03-.9-1.8.07-1.06.15-2.12.23-3.18.04-.62.09-1.24.13-1.93-.47.28-.9.52-1.31.79-.08.05-.12.22-.11.32.07,1.12.15,2.24.25,3.35.11,1.18-.71,2.15-1.88,2.21-1.08.06-2.03-.86-1.98-2,.06-1.38.19-2.77.3-4.15.08-1.01.16-2.03.24-3.04.06-.78.63-1.34,1.36-1.34.76,0,1.34.54,1.41,1.34.02.18.02.36.04.62.47-.34.88-.65,1.3-.95.37-.27.74-.55,1.11-.83.44-.33.93-.41,1.43-.17.51.24.75.66.78,1.21.01.23.04.45.06.74.83-.61,1.61-1.18,2.38-1.76.39-.29.8-.4,1.27-.26.5.15.9.62.94,1.13.19,2.44.38,4.89.56,7.33.08,1.16-.7,2.05-1.84,2.14-1.04.08-2.01-.78-2.02-1.89,0-.97.13-1.94.2-2.9.05-.6.09-1.2.14-1.88Z" stroke-width="0"/>
  <path class="icon-path" d="M13.99,11.45c.63,0,1.12.38,1.26.94.14.56-.1,1.15-.62,1.41-1.1.54-2.2,1.07-3.32,1.56-.86.38-1.86-.08-2.19-.95-.33-.88.12-1.93,1.02-2.15,1.24-.32,2.5-.54,3.76-.79.04,0,.09,0,.1,0Z" stroke-width="0"/>
</svg>