<?xml version="1.0" encoding="UTF-8"?>
<svg id="Layer_1" data-name="Layer 1" xmlns="http://www.w3.org/2000/svg" viewBox="0 0 24 24">
  <path d="M23.93,14.99c0,.23-.01.48-.03.71-.11,1.72-.59,3.35-1.16,4.95-.04.12-.08.23-.12.35-.09.26-.25.38-.52.38-1.72,0-3.43,0-5.15,0-.19,0-.34-.07-.44-.19-.1-.13-.13-.32-.06-.53.75-2.25,1.5-4.5,2.25-6.74.71-2.11,1.41-4.22,2.1-6.33.03-.07.05-.14.07-.21.09-.25.02-.46-.17-.6-.18-.13-.44-.13-.61,0-.09.08-.14.18-.19.29-1.18,3.56-2.38,7.12-3.57,10.68l-1.07,3.22c-.1.28-.26.4-.56.4-1.81,0-3.62,0-5.44,0-.3,0-.46-.11-.56-.41-.98-2.95-1.98-5.91-2.96-8.86-.53-1.57-1.05-3.15-1.58-4.72-.11-.31-.38-.46-.66-.36-.29.1-.41.37-.3.69.02.06.04.13.06.19.59,1.77,1.18,3.53,1.77,5.3.83,2.48,1.64,4.95,2.48,7.42.06.18.04.38-.06.52-.1.14-.26.23-.48.23-1.68-.01-3.37,0-5.05,0-.34,0-.48-.1-.59-.41-.31-.97-.67-1.93-.91-2.93-.24-1.07-.37-2.16-.39-3.25,0-.01,0-.03,0-.04-.01-.4,0-.8.02-1.2.08-1.22.35-2.42.65-3.61.54-2.12,1.07-4.25,1.6-6.38.04-.16.09-.32.13-.48.09-.36.24-.48.61-.48h5.38c.29,0,.46.12.54.38.51,1.55,1.04,3.1,1.54,4.66.36,1.14.59,2.31.76,3.5.21,1.46.2,2.93.19,4.4v3.84c0,.22.09.39.3.49.19.09.38.06.54-.07.15-.11.19-.27.19-.46v-4.86c0-.75,0-1.5.07-2.25.16-1.84.54-3.63,1.13-5.38.43-1.27.86-2.55,1.28-3.82.11-.33.25-.43.59-.43h5.36c.36,0,.51.13.59.48.6,2.37,1.19,4.73,1.78,7.1.2.77.39,1.54.49,2.33.11.83.14,1.64.13,2.47Z" fill="#d8272b" stroke-width="0"/>
</svg>