<?xml version="1.0" encoding="UTF-8"?>
<svg id="Layer_1" data-name="Layer 1" xmlns="http://www.w3.org/2000/svg" viewBox="0 0 182 14">
  <path d="M7.56,4.3c.01-.23.01-.44,0-.63-.01-.16-.03-.31-.07-.45-.03-.14-.09-.21-.15-.21-.13,0-.25.15-.36.44-.11.29-.29.74-.53,1.36l-3.24,8.11H.93l3.22-8.11c.24-.65.48-1.22.71-1.71s.49-.9.76-1.23c.27-.33.57-.57.9-.74.33-.16.7-.25,1.12-.25.6,0,1.1.29,1.47.87s.57,1.43.57,2.54v5.21c-.01.24-.01.46,0,.65.01.16.03.31.05.44.02.13.07.2.15.2.1,0,.2-.11.3-.33.1-.22.23-.54.4-.98h-.02l1.87-4.68c.24-.65.48-1.22.71-1.71.23-.49.49-.9.76-1.23s.57-.57.9-.74c.33-.16.7-.25,1.12-.25.6,0,1.1.29,1.47.87.38.58.57,1.43.57,2.54v8.62h-2.13V4.3c.01-.23.01-.44,0-.63-.01-.16-.03-.31-.07-.45-.03-.14-.09-.21-.15-.21-.13,0-.25.15-.36.44-.12.29-.29.74-.53,1.36l-1.68,4.22c-.24.65-.48,1.22-.71,1.71-.23.48-.48.89-.75,1.22s-.57.57-.89.73c-.33.16-.7.24-1.12.24-.61,0-1.09-.29-1.46-.88-.37-.59-.56-1.43-.56-2.53v-5.21Z" fill="#fff" stroke-width="0"/>
  <path d="M25.87.77c.85,0,1.64.16,2.38.48.74.32,1.39.76,1.95,1.31.56.55,1,1.21,1.32,1.95.32.75.48,1.55.48,2.39s-.16,1.64-.48,2.38c-.32.74-.76,1.39-1.32,1.95s-1.21,1-1.95,1.32c-.74.32-1.54.48-2.38.48s-1.64-.16-2.39-.48c-.75-.32-1.4-.76-1.95-1.32-.55-.56-.99-1.21-1.31-1.95-.32-.74-.48-1.54-.48-2.38s.16-1.64.48-2.39c.32-.75.76-1.4,1.31-1.95s1.21-.99,1.95-1.31c.75-.32,1.55-.48,2.39-.48ZM25.87,10.91c.55,0,1.07-.11,1.55-.32.49-.21.91-.5,1.28-.87.37-.37.65-.8.87-1.29.21-.48.32-1,.32-1.55s-.11-1.07-.32-1.55c-.21-.49-.5-.91-.87-1.27-.36-.36-.79-.64-1.28-.86-.48-.21-1-.32-1.55-.32s-1.07.11-1.55.32c-.49.21-.91.5-1.28.86-.37.36-.65.78-.87,1.27-.21.48-.32,1-.32,1.55s.11,1.07.32,1.55c.21.49.5.91.87,1.29.36.37.79.66,1.28.87.48.21,1,.32,1.55.32Z" fill="#fff" stroke-width="0"/>
  <path d="M38.16,12.95c-.68,0-1.3-.13-1.89-.38s-1.09-.6-1.53-1.04-.79-.95-1.04-1.53c-.25-.58-.38-1.21-.38-1.89V.92h2.13v7.2c0,.38.07.73.21,1.05.14.33.34.61.58.86s.53.44.86.58c.33.14.68.21,1.05.21s.73-.07,1.05-.21c.33-.14.61-.34.85-.58.24-.25.43-.53.57-.86.14-.33.22-.68.22-1.05V.92h2.13v7.2c0,.67-.13,1.3-.38,1.89s-.6,1.09-1.04,1.53c-.44.44-.95.79-1.53,1.04s-1.21.38-1.87.38Z" fill="#fff" stroke-width="0"/>
  <path d="M56.36,9.37c0,.66-.08,1.22-.22,1.67-.15.45-.33.82-.55,1.1-.22.28-.45.48-.7.6s-.48.18-.69.18c-.42,0-.79-.05-1.1-.15-.31-.1-.6-.29-.87-.57-.27-.27-.55-.66-.83-1.15-.28-.49-.6-1.13-.97-1.9l-1.71-3.6c-.09-.18-.2-.41-.33-.69-.12-.28-.26-.55-.4-.82-.14-.27-.29-.5-.43-.69-.14-.19-.27-.3-.38-.33-.11-.02-.19.07-.26.27s-.09.58-.08,1.13v8.5h-2.13V4.42c0-.66.07-1.22.22-1.67s.33-.81.54-1.09.44-.47.69-.59.48-.18.69-.18c.42,0,.79.05,1.1.15.31.1.6.29.87.57.27.27.55.65.83,1.14.28.48.6,1.12.97,1.89l1.78,3.74c.1.23.22.48.35.76.13.28.27.54.41.79.14.25.28.45.41.62s.25.25.35.24c.1,0,.18-.11.23-.33.05-.21.07-.57.06-1.09V.89h2.13v8.48Z" fill="#fff" stroke-width="0"/>
  <path d="M58.11.9h2.13v12.02h-2.13V.9Z" fill="#fff" stroke-width="0"/>
  <path d="M69.71,7.71l2.78,5.21h-2.4l-1.18-2.26c-.16-.27-.32-.57-.49-.89s-.33-.61-.49-.87c-.16-.26-.33-.48-.5-.66-.17-.18-.34-.27-.51-.27h-1.41c-.39,0-.72.14-.99.41-.27.27-.41.6-.41.99v3.55h-2.13v-3.55c0-.49.09-.95.27-1.38.18-.43.43-.8.75-1.12.32-.32.69-.57,1.12-.75.43-.18.89-.27,1.38-.27h2.86c.31,0,.57-.07.78-.21.21-.14.37-.31.47-.52.1-.21.15-.44.15-.69s-.05-.47-.15-.69-.26-.39-.47-.52c-.21-.14-.47-.21-.78-.21h-6.39V.89h6.39c.64,0,1.2.13,1.69.4.48.27.88.61,1.17,1.04.3.42.5.9.6,1.42s.09,1.04-.03,1.54-.35.97-.69,1.41-.81.77-1.41,1.01Z" fill="#fff" stroke-width="0"/>
  <path d="M82.16,10.79h4.46v2.13h-4.46c-.49,0-.95-.09-1.38-.28-.43-.19-.8-.44-1.12-.76-.32-.32-.57-.69-.76-1.12-.19-.43-.28-.89-.28-1.38V.9h2.13v8.47c0,.4.14.74.41,1.01.27.27.61.41,1.01.41Z" fill="#fff" stroke-width="0"/>
  <path d="M101.06,12.92h-2.13V4.42c0-.45-.05-.8-.14-1.07-.09-.27-.29-.4-.58-.4-.24,0-.48.08-.7.25-.23.17-.44.36-.63.59s-.37.46-.52.7c-.15.24-.28.44-.39.6l-5.07,7.83h-2.54l5.07-7.83c.43-.67.84-1.28,1.22-1.81.38-.53.77-.98,1.17-1.34.39-.37.82-.64,1.27-.83.45-.19.97-.28,1.55-.28.72,0,1.3.31,1.75.94s.67,1.51.67,2.66v8.5Z" fill="#fff" stroke-width="0"/>
  <path d="M111.04,7.98h-3.43v-2.13h3.43c.49,0,.95.09,1.38.27s.8.43,1.12.75.57.69.75,1.12c.18.43.27.89.27,1.38s-.09.95-.27,1.38c-.18.43-.43.8-.75,1.12s-.69.57-1.12.75c-.43.18-.89.27-1.38.27h-2.25c-.82,0-1.6-.16-2.33-.48-.73-.32-1.37-.75-1.9-1.29s-.96-1.17-1.28-1.9-.47-1.51-.47-2.33.16-1.62.47-2.35.74-1.37,1.29-1.91,1.18-.97,1.91-1.29,1.51-.47,2.35-.47h4.34v2.13h-4.34c-.54,0-1.04.1-1.52.31-.47.21-.89.48-1.24.83-.35.35-.63.76-.83,1.23s-.3.98-.3,1.52.1,1.04.3,1.51c.2.47.48.88.83,1.23s.77.63,1.24.83c.48.2.98.3,1.52.3h2.21c.47,0,.82-.15,1.05-.44.23-.29.35-.61.35-.97s-.12-.68-.35-.97c-.24-.29-.59-.44-1.05-.44Z" fill="#fff" stroke-width="0"/>
  <path d="M118.9,9.68c-.26.26-.38.48-.36.64s.15.29.39.36c.25.07.56.11.94.11h6.15v2.13h-6.15c-.74,0-1.35-.09-1.81-.28-.46-.19-.82-.42-1.08-.7-.26-.28-.43-.58-.52-.89-.09-.31-.14-.6-.14-.85,0-.39.07-.74.22-1.05s.34-.58.57-.82.49-.45.76-.64c.27-.19.53-.36.77-.51l3.34-1.83c.56-.31,1.02-.6,1.39-.88.36-.28.6-.53.7-.74.1-.21.05-.38-.15-.5-.2-.13-.58-.19-1.14-.19h-5.97V.9h5.97c.75,0,1.36.09,1.82.28.46.19.82.42,1.08.7s.43.58.52.89.14.59.14.83c0,.41-.09.78-.26,1.11-.17.33-.38.61-.63.86-.25.25-.52.47-.81.66-.29.19-.56.36-.81.51l-3.62,1.99c-.63.36-1.07.68-1.33.94Z" fill="#fff" stroke-width="0"/>
  <path d="M133.39.77c.85,0,1.64.16,2.38.48.74.32,1.39.76,1.95,1.31.56.55,1,1.21,1.32,1.95.32.75.48,1.55.48,2.39s-.16,1.64-.48,2.38c-.32.74-.76,1.39-1.32,1.95s-1.21,1-1.95,1.32c-.74.32-1.54.48-2.38.48s-1.64-.16-2.39-.48c-.75-.32-1.4-.76-1.95-1.32-.55-.56-.99-1.21-1.31-1.95-.32-.74-.48-1.54-.48-2.38s.16-1.64.48-2.39c.32-.75.76-1.4,1.31-1.95s1.21-.99,1.95-1.31c.75-.32,1.55-.48,2.39-.48ZM133.39,10.91c.55,0,1.07-.11,1.55-.32.49-.21.91-.5,1.28-.87.37-.37.65-.8.87-1.29.21-.48.32-1,.32-1.55s-.11-1.07-.32-1.55c-.21-.49-.5-.91-.87-1.27-.36-.36-.79-.64-1.28-.86-.48-.21-1-.32-1.55-.32s-1.07.11-1.55.32c-.49.21-.91.5-1.28.86-.37.36-.65.78-.87,1.27-.21.48-.32,1-.32,1.55s.11,1.07.32,1.55c.21.49.5.91.87,1.29.36.37.79.66,1.28.87.48.21,1,.32,1.55.32Z" fill="#fff" stroke-width="0"/>
  <path d="M145.68,12.95c-.68,0-1.3-.13-1.89-.38s-1.09-.6-1.53-1.04-.79-.95-1.04-1.53c-.25-.58-.38-1.21-.38-1.89V.92h2.13v7.2c0,.38.07.73.21,1.05.14.33.34.61.58.86s.53.44.86.58c.33.14.68.21,1.05.21s.73-.07,1.05-.21c.33-.14.61-.34.85-.58.24-.25.43-.53.57-.86.14-.33.22-.68.22-1.05V.92h2.13v7.2c0,.67-.13,1.3-.38,1.89s-.6,1.09-1.04,1.53c-.44.44-.95.79-1.53,1.04s-1.21.38-1.87.38Z" fill="#fff" stroke-width="0"/>
  <path d="M155.79,10.79h4.46v2.13h-4.46c-.49,0-.95-.09-1.38-.28-.43-.19-.8-.44-1.12-.76-.32-.32-.57-.69-.76-1.12-.19-.43-.28-.89-.28-1.38V.9h2.13v8.47c0,.4.14.74.41,1.01.27.27.61.41,1.01.41Z" fill="#fff" stroke-width="0"/>
  <path d="M161.99.9h2.13v12.02h-2.13V.9Z" fill="#fff" stroke-width="0"/>
  <path d="M174.67.67c3.49,0,6.33,2.64,6.33,6.33s-2.84,6.33-6.33,6.33-6.33-2.64-6.33-6.33,2.84-6.33,6.33-6.33ZM174.67,12.12c2.73,0,4.97-2.01,4.97-5.13s-2.23-5.1-4.97-5.1-4.97,1.98-4.97,5.1,2.24,5.13,4.97,5.13ZM176.88,6.08c-.33-.96-1.09-1.53-2.18-1.53-1.29,0-2.34.94-2.34,2.46s1.05,2.47,2.34,2.47c1.15,0,2-.61,2.22-1.59h1.57c-.18,1.83-1.85,3.03-3.79,3.03-2.12,0-3.86-1.63-3.86-3.92s1.74-3.92,3.86-3.92,3.45,1.16,3.77,2.99h-1.59Z" fill="#fff" stroke-width="0"/>
</svg>