<?xml version="1.0" encoding="UTF-8"?>
<svg id="Layer_1" data-name="Layer 1" xmlns="http://www.w3.org/2000/svg" viewBox="0 0 72 6">
  <path d="M3.05,1.93c0-.09,0-.17,0-.25,0-.06-.01-.12-.03-.18-.01-.05-.03-.08-.06-.08-.05,0-.1.06-.14.17-.04.11-.11.29-.21.54l-1.28,3.2H.43l1.27-3.2c.09-.26.19-.48.28-.68s.19-.36.3-.48c.11-.13.23-.23.35-.29.13-.06.28-.1.44-.1.24,0,.43.12.58.35s.22.56.22,1v2.06c0,.09,0,.18,0,.26,0,.06.01.12.02.17,0,.05.03.08.06.08.04,0,.08-.04.12-.13.04-.09.09-.21.16-.39h0l.74-1.85c.09-.26.19-.48.28-.68.09-.19.19-.36.3-.48s.23-.23.35-.29c.13-.06.28-.1.44-.1.24,0,.43.12.58.35.15.23.22.56.22,1v3.4h-.84V1.93c0-.09,0-.17,0-.25,0-.06-.01-.12-.03-.18-.01-.05-.03-.08-.06-.08-.05,0-.1.06-.14.17-.05.11-.12.29-.21.54l-.66,1.66c-.09.26-.19.48-.28.67-.09.19-.19.35-.3.48s-.22.22-.35.29c-.13.06-.28.09-.44.09-.24,0-.43-.12-.58-.35-.15-.23-.22-.56-.22-1V1.93Z" fill="#231f20" stroke-width="0"/>
  <path d="M10.27.54c.33,0,.65.06.94.19.29.13.55.3.77.52.22.22.39.48.52.77.13.3.19.61.19.94s-.06.65-.19.94c-.13.29-.3.55-.52.77s-.48.4-.77.52c-.29.13-.61.19-.94.19s-.65-.06-.94-.19c-.3-.13-.55-.3-.77-.52-.22-.22-.39-.48-.52-.77-.13-.29-.19-.61-.19-.94s.06-.65.19-.94c.13-.3.3-.55.52-.77s.48-.39.77-.52c.3-.13.61-.19.94-.19ZM10.27,4.54c.22,0,.42-.04.61-.12.19-.08.36-.2.5-.35.14-.15.26-.32.34-.51.08-.19.12-.4.12-.61s-.04-.42-.12-.61c-.08-.19-.2-.36-.34-.5-.14-.14-.31-.25-.5-.34-.19-.08-.4-.13-.61-.13s-.42.04-.61.13c-.19.08-.36.2-.5.34-.14.14-.26.31-.34.5-.08.19-.12.4-.12.61s.04.42.12.61c.08.19.2.36.34.51.14.15.31.26.5.35.19.08.4.12.61.12Z" fill="#231f20" stroke-width="0"/>
  <path d="M15.12,5.35c-.27,0-.51-.05-.74-.15s-.43-.24-.61-.41-.31-.38-.41-.61c-.1-.23-.15-.48-.15-.74V.6h.84v2.84c0,.15.03.29.08.42.06.13.13.24.23.34s.21.17.34.23c.13.06.27.08.42.08s.29-.03.42-.08c.13-.06.24-.13.33-.23.09-.1.17-.21.23-.34.06-.13.08-.27.08-.42V.6h.84v2.84c0,.27-.05.51-.15.74s-.24.43-.41.61c-.17.17-.38.31-.61.41s-.48.15-.74.15Z" fill="#231f20" stroke-width="0"/>
  <path d="M22.31,3.94c0,.26-.03.48-.09.66-.06.18-.13.32-.22.43-.09.11-.18.19-.28.24s-.19.07-.27.07c-.17,0-.31-.02-.43-.06-.12-.04-.24-.11-.34-.22-.11-.11-.22-.26-.33-.45-.11-.19-.24-.44-.38-.75l-.68-1.42c-.04-.07-.08-.16-.13-.27-.05-.11-.1-.22-.16-.32-.06-.11-.11-.2-.17-.27-.06-.08-.11-.12-.15-.13-.04,0-.08.03-.1.11s-.04.23-.03.45v3.36h-.84V1.98c0-.26.03-.48.09-.66s.13-.32.21-.43.17-.19.27-.23.19-.07.27-.07c.17,0,.31.02.43.06.12.04.24.12.35.22.11.11.22.26.33.45.11.19.24.44.38.75l.7,1.48c.04.09.09.19.14.3.05.11.11.21.16.31.06.1.11.18.16.24s.1.1.14.09c.04,0,.07-.04.09-.13.02-.08.03-.23.02-.43V.59h.84v3.35Z" fill="#231f20" stroke-width="0"/>
  <path d="M23,.59h.84v4.74h-.84V.59Z" fill="#231f20" stroke-width="0"/>
  <path d="M27.58,3.28l1.1,2.06h-.95l-.47-.89c-.06-.11-.13-.23-.19-.35s-.13-.24-.19-.35c-.06-.1-.13-.19-.2-.26-.07-.07-.14-.1-.2-.1h-.55c-.15,0-.28.05-.39.16-.11.11-.16.24-.16.39v1.4h-.84v-1.4c0-.19.04-.38.11-.54.07-.17.17-.32.3-.44.13-.13.27-.23.44-.3.17-.07.35-.11.54-.11h1.13c.12,0,.22-.03.31-.08.08-.05.15-.12.19-.21.04-.08.06-.17.06-.27s-.02-.19-.06-.27-.1-.15-.19-.21c-.08-.05-.19-.08-.31-.08h-2.52v-.84h2.52c.25,0,.47.05.67.16.19.11.35.24.46.41.12.17.2.35.24.56s.04.41-.01.61-.14.38-.27.55-.32.3-.55.4Z" fill="#231f20" stroke-width="0"/>
  <path d="M32.49,4.5h1.76v.84h-1.76c-.19,0-.38-.04-.54-.11-.17-.07-.32-.17-.44-.3-.13-.13-.23-.27-.3-.44-.07-.17-.11-.35-.11-.54V.59h.84v3.34c0,.16.05.29.16.4.11.11.24.16.4.16Z" fill="#231f20" stroke-width="0"/>
  <path d="M39.95,5.34h-.84V1.98c0-.18-.02-.32-.05-.42-.04-.11-.11-.16-.23-.16-.09,0-.19.03-.28.1-.09.07-.17.14-.25.23s-.15.18-.21.28c-.06.09-.11.17-.15.24l-2,3.09h-1l2-3.09c.17-.27.33-.5.48-.71.15-.21.3-.39.46-.53.16-.14.32-.25.5-.33.18-.07.38-.11.61-.11.28,0,.51.12.69.37s.26.6.26,1.05v3.36Z" fill="#231f20" stroke-width="0"/>
  <path d="M43.89,3.39h-1.35v-.84h1.35c.19,0,.38.04.54.11s.32.17.44.3.23.27.3.44c.07.17.11.35.11.54s-.04.38-.11.54c-.07.17-.17.32-.3.44s-.27.23-.44.3c-.17.07-.35.11-.54.11h-.89c-.32,0-.63-.06-.92-.19-.29-.13-.54-.3-.75-.51s-.38-.46-.5-.75-.19-.6-.19-.92.06-.64.19-.93.29-.54.51-.75.47-.38.75-.51.6-.19.93-.19h1.71v.84h-1.71c-.21,0-.41.04-.6.12-.19.08-.35.19-.49.33-.14.14-.25.3-.33.49s-.12.39-.12.6.04.41.12.6c.08.19.19.35.33.49s.3.25.49.33c.19.08.39.12.6.12h.87c.18,0,.32-.06.42-.17.09-.12.14-.24.14-.38s-.05-.27-.14-.38c-.09-.11-.23-.17-.42-.17Z" fill="#231f20" stroke-width="0"/>
  <path d="M46.99,4.06c-.1.1-.15.19-.14.25s.06.11.16.14c.1.03.22.04.37.04h2.43v.84h-2.43c-.29,0-.53-.04-.71-.11-.18-.07-.32-.17-.43-.28-.1-.11-.17-.23-.21-.35-.04-.12-.05-.24-.05-.33,0-.15.03-.29.09-.41s.13-.23.23-.32.19-.18.3-.25c.11-.07.21-.14.3-.2l1.32-.72c.22-.12.4-.24.55-.35.14-.11.24-.21.28-.29.04-.08.02-.15-.06-.2-.08-.05-.23-.07-.45-.07h-2.35v-.84h2.35c.3,0,.54.04.72.11.18.07.32.17.43.28s.17.23.21.35.05.23.05.33c0,.16-.03.31-.1.44-.07.13-.15.24-.25.34-.1.1-.21.19-.32.26-.12.07-.22.14-.32.2l-1.43.78c-.25.14-.42.27-.52.37Z" fill="#231f20" stroke-width="0"/>
  <path d="M52.71.54c.33,0,.65.06.94.19.29.13.55.3.77.52.22.22.39.48.52.77.13.3.19.61.19.94s-.06.65-.19.94c-.13.29-.3.55-.52.77s-.48.4-.77.52c-.29.13-.61.19-.94.19s-.65-.06-.94-.19c-.3-.13-.55-.3-.77-.52-.22-.22-.39-.48-.52-.77-.13-.29-.19-.61-.19-.94s.06-.65.19-.94c.13-.3.3-.55.52-.77s.48-.39.77-.52c.3-.13.61-.19.94-.19ZM52.71,4.54c.22,0,.42-.04.61-.12.19-.08.36-.2.5-.35.14-.15.26-.32.34-.51.08-.19.12-.4.12-.61s-.04-.42-.12-.61c-.08-.19-.2-.36-.34-.5-.14-.14-.31-.25-.5-.34-.19-.08-.4-.13-.61-.13s-.42.04-.61.13c-.19.08-.36.2-.5.34-.14.14-.26.31-.34.5-.08.19-.12.4-.12.61s.04.42.12.61c.08.19.2.36.34.51.14.15.31.26.5.35.19.08.4.12.61.12Z" fill="#231f20" stroke-width="0"/>
  <path d="M57.56,5.35c-.27,0-.51-.05-.74-.15s-.43-.24-.61-.41-.31-.38-.41-.61c-.1-.23-.15-.48-.15-.74V.6h.84v2.84c0,.15.03.29.08.42.06.13.13.24.23.34s.21.17.34.23c.13.06.27.08.42.08s.29-.03.42-.08c.13-.06.24-.13.33-.23.09-.1.17-.21.23-.34.06-.13.08-.27.08-.42V.6h.84v2.84c0,.27-.05.51-.15.74s-.24.43-.41.61c-.17.17-.38.31-.61.41s-.48.15-.74.15Z" fill="#231f20" stroke-width="0"/>
  <path d="M61.55,4.5h1.76v.84h-1.76c-.19,0-.38-.04-.54-.11-.17-.07-.32-.17-.44-.3-.13-.13-.23-.27-.3-.44-.07-.17-.11-.35-.11-.54V.59h.84v3.34c0,.16.05.29.16.4.11.11.24.16.4.16Z" fill="#231f20" stroke-width="0"/>
  <path d="M64,.59h.84v4.74h-.84V.59Z" fill="#231f20" stroke-width="0"/>
  <path d="M69,.5c1.38,0,2.5,1.04,2.5,2.5s-1.12,2.5-2.5,2.5-2.5-1.04-2.5-2.5,1.12-2.5,2.5-2.5ZM69,5.02c1.08,0,1.96-.79,1.96-2.03s-.88-2.01-1.96-2.01-1.96.78-1.96,2.01.88,2.03,1.96,2.03ZM69.87,2.64c-.13-.38-.43-.61-.86-.61-.51,0-.93.37-.93.97s.42.98.93.98c.45,0,.79-.24.88-.63h.62c-.07.72-.73,1.2-1.49,1.2-.84,0-1.52-.64-1.52-1.55s.68-1.55,1.52-1.55,1.36.46,1.49,1.18h-.63Z" fill="#231f20" stroke-width="0"/>
</svg>