<?xml version="1.0" encoding="UTF-8"?>
<svg id="Layer_1" data-name="Layer 1" xmlns="http://www.w3.org/2000/svg" xmlns:xlink="http://www.w3.org/1999/xlink" viewBox="0 0 349 100">
  <defs>
    <linearGradient id="linear-gradient" x1="212.64" y1="39.71" x2="289.2" y2="39.71" gradientUnits="userSpaceOnUse">
      <stop offset="0" stop-color="#939598"/>
      <stop offset="1" stop-color="#fff"/>
    </linearGradient>
    <linearGradient id="linear-gradient-2" x1="226.4" y1="46.74" x2="275.44" y2="32.68" gradientUnits="userSpaceOnUse">
      <stop offset="0" stop-color="#8e9090"/>
      <stop offset=".45" stop-color="#373b42" stop-opacity="0"/>
      <stop offset="1" stop-color="#5d6871"/>
    </linearGradient>
    <clipPath id="clippath">
      <circle cx="250.92" cy="39.71" r="23.42" fill="none" stroke-width="0"/>
    </clipPath>
    <clipPath id="clippath-1">
      <circle cx="250.92" cy="38.65" r="12.77" fill="none" stroke-width="0"/>
    </clipPath>
  </defs>
  <g>
    <path d="M8.32,83.31h-.89l.25-.22c-.08.3-.2.66-.34,1.08s-.3.86-.47,1.32c-.17.46-.34.9-.51,1.31l-1.75,4.34h-.61l3.46-8.34h.84l3.46,8.34h-.61l-1.8-4.34c-.16-.42-.33-.86-.5-1.33s-.32-.92-.44-1.34c-.13-.42-.23-.77-.29-1.04l.21.22ZM10.22,88.48h-4.67v-.5h4.67v.5Z" fill="#171717" stroke-width="0"/>
    <path d="M14.48,88.83l.04.04-.33.47c-.07.11-.13.21-.17.29-.04.08-.06.18-.06.28,0,.16.07.27.21.34s.32.1.56.1h2.06c.64,0,1.15.13,1.52.39.38.26.56.64.56,1.13,0,.39-.1.71-.29.97-.19.25-.51.44-.96.57-.45.13-1.07.19-1.87.19s-1.42-.06-1.88-.18c-.45-.12-.78-.3-.96-.52-.19-.23-.29-.49-.29-.8,0-.22.06-.41.19-.58.13-.16.33-.3.59-.42.26-.12.6-.21,1-.29l.22.07c-.34,0-.62.06-.83.18s-.36.27-.46.44c-.1.17-.15.33-.15.49,0,.25.08.46.24.61s.42.28.79.35c.37.07.87.11,1.51.11.7,0,1.24-.04,1.6-.13.37-.09.62-.22.76-.4.14-.17.21-.38.21-.62,0-.3-.12-.54-.37-.74-.25-.19-.62-.29-1.12-.29h-2.3c-.15,0-.31-.02-.48-.07s-.32-.13-.44-.26c-.12-.13-.18-.29-.18-.51,0-.16.05-.3.14-.43s.21-.25.35-.35l.57-.44ZM16.04,85.05l.53-.11-.07.42-.49-.18c.27.04.53.1.78.18.26.08.49.2.7.33s.38.32.5.53c.13.22.19.48.19.8,0,.44-.1.82-.28,1.12-.19.3-.48.53-.87.69-.39.16-.88.24-1.46.24-.82,0-1.44-.2-1.86-.58-.42-.39-.63-.9-.63-1.52,0-.49.11-.9.31-1.24s.51-.58.9-.75.86-.25,1.41-.25h2.96v.53h-.53c-.15,0-.33-.01-.55-.03-.22-.02-.46-.05-.72-.08-.26-.03-.54-.06-.83-.09ZM15.57,85.26c-.66,0-1.14.15-1.46.44-.31.29-.47.7-.47,1.22s.15.94.46,1.22c.31.27.81.41,1.5.41s1.21-.14,1.54-.41c.33-.28.49-.68.49-1.22s-.18-.93-.53-1.22c-.36-.29-.86-.44-1.52-.44ZM13.98,90.93v-.28h.22l.11.22-.33.05Z" fill="#171717" stroke-width="0"/>
    <path d="M23.4,91.28c-.67,0-1.23-.14-1.68-.41-.46-.27-.8-.67-1.02-1.18s-.34-1.11-.34-1.79.12-1.29.37-1.78c.24-.49.59-.87,1.04-1.13.45-.26.98-.4,1.58-.4s1.13.12,1.54.37c.4.25.7.59.9,1.04.2.44.3.96.3,1.56v.22c0,.11,0,.21-.03.3h-5.38v-.49h5.06l-.18.18c0-.82-.16-1.47-.49-1.94-.33-.47-.91-.71-1.73-.71s-1.39.24-1.8.73c-.41.49-.61,1.19-.61,2.12,0,.85.21,1.53.61,2.04.41.51,1.03.76,1.85.76.48,0,.86-.08,1.14-.24s.49-.37.64-.63c.15-.26.27-.56.36-.88l.53.18c-.11.44-.28.83-.5,1.14-.22.32-.51.56-.86.72-.35.16-.78.24-1.29.24Z" fill="#171717" stroke-width="0"/>
    <path d="M28.63,86.3h.36l-.19.28c.11-.33.29-.65.54-.95.25-.3.56-.55.93-.75.37-.19.78-.29,1.24-.29s.83.08,1.15.25c.32.17.56.41.73.74s.25.74.25,1.22v4.34h-.56v-4.27c0-.38-.05-.7-.15-.96-.1-.26-.27-.46-.51-.59-.24-.14-.55-.2-.95-.2-.51,0-.97.1-1.38.31-.41.21-.73.49-.96.84-.24.36-.35.76-.35,1.22v3.66h-.56v-6.41h.56v2.47l-.14-.9Z" fill="#171717" stroke-width="0"/>
    <path d="M40.81,86.85c-.08-.37-.2-.69-.35-.95-.15-.26-.37-.46-.65-.6s-.67-.21-1.16-.21c-.79,0-1.39.24-1.8.73-.41.49-.61,1.19-.61,2.12,0,.57.09,1.06.27,1.48s.45.75.82.97c.37.23.82.34,1.37.34.48,0,.86-.08,1.14-.24s.49-.37.64-.63c.15-.26.27-.56.36-.88l.53.18c-.16.68-.46,1.2-.88,1.56-.42.36-1.01.54-1.77.54-.67,0-1.23-.14-1.68-.41-.46-.27-.8-.67-1.02-1.18-.23-.51-.34-1.11-.34-1.79s.12-1.29.37-1.78c.24-.49.59-.87,1.04-1.13.45-.26.98-.4,1.58-.4.55,0,1,.08,1.36.24.36.16.65.39.86.71.21.32.37.71.46,1.18l-.54.14Z" fill="#171717" stroke-width="0"/>
    <path d="M46.09,91.28c-.67,0-1.23-.14-1.68-.41s-.79-.67-1.02-1.18c-.23-.51-.34-1.11-.34-1.79s.12-1.29.37-1.78c.24-.49.59-.87,1.04-1.13s.97-.4,1.58-.4,1.13.12,1.54.37c.4.25.7.59.9,1.04.2.44.3.96.3,1.56v.22c0,.11-.01.21-.03.3h-5.38v-.49h5.06l-.18.18c0-.82-.16-1.47-.49-1.94-.33-.47-.91-.71-1.73-.71s-1.39.24-1.79.73c-.41.49-.61,1.19-.61,2.12,0,.85.2,1.53.61,2.04.41.51,1.02.76,1.85.76.48,0,.86-.08,1.14-.24s.49-.37.64-.63c.15-.26.27-.56.36-.88l.53.18c-.11.44-.28.83-.5,1.14-.22.32-.51.56-.86.72s-.78.24-1.29.24Z" fill="#171717" stroke-width="0"/>
    <path d="M54.03,87.94c0-1.13.22-1.97.67-2.53.44-.55,1.08-.83,1.92-.83.52,0,.95.1,1.29.31.34.21.61.48.81.82.2.34.34.7.42,1.09l-.05.67c0-.68-.21-1.25-.63-1.69s-.99-.67-1.71-.67-1.26.22-1.61.65c-.35.43-.53,1.15-.53,2.16s.17,1.74.53,2.18c.35.44.89.67,1.61.67.47,0,.89-.11,1.24-.31s.62-.49.81-.85c.19-.36.29-.77.29-1.22l.08.24c0,.35-.06.69-.19,1.01-.13.32-.32.6-.56.85-.24.25-.52.44-.84.59-.32.14-.67.21-1.06.21-.78,0-1.39-.28-1.82-.83-.43-.55-.65-1.39-.65-2.51ZM59.27,86.99h-.21l-.19-.76h.47l-.07.76ZM59.34,89.66h-.46l.17-.56h.29v.56ZM59.08,91.14v-9.32h.56v9.32h-.56Z" fill="#171717" stroke-width="0"/>
    <path d="M64.81,91.28c-.67,0-1.23-.14-1.68-.41s-.79-.67-1.02-1.18c-.23-.51-.34-1.11-.34-1.79s.12-1.29.37-1.78c.24-.49.59-.87,1.04-1.13s.97-.4,1.58-.4,1.13.12,1.54.37c.4.25.7.59.9,1.04.2.44.3.96.3,1.56v.22c0,.11-.01.21-.03.3h-5.38v-.49h5.06l-.18.18c0-.82-.16-1.47-.49-1.94-.33-.47-.91-.71-1.73-.71s-1.39.24-1.79.73c-.41.49-.61,1.19-.61,2.12,0,.85.2,1.53.61,2.04.41.51,1.02.76,1.85.76.48,0,.86-.08,1.14-.24s.49-.37.64-.63c.15-.26.27-.56.36-.88l.53.18c-.11.44-.28.83-.5,1.14-.22.32-.51.56-.86.72s-.78.24-1.29.24Z" fill="#171717" stroke-width="0"/>
    <path d="M77.88,86.85c-.08-.37-.2-.69-.35-.95-.15-.26-.37-.46-.65-.6s-.67-.21-1.16-.21c-.79,0-1.39.24-1.8.73-.41.49-.61,1.19-.61,2.12,0,.57.09,1.06.27,1.48s.45.75.82.97c.37.23.82.34,1.37.34.48,0,.86-.08,1.14-.24s.49-.37.64-.63c.15-.26.27-.56.36-.88l.53.18c-.16.68-.46,1.2-.88,1.56-.42.36-1.01.54-1.77.54-.67,0-1.23-.14-1.68-.41-.46-.27-.8-.67-1.02-1.18s-.34-1.11-.34-1.79.12-1.29.37-1.78c.24-.49.59-.87,1.04-1.13.45-.26.98-.4,1.58-.4.55,0,1,.08,1.36.24.36.16.65.39.86.71.21.32.37.71.46,1.18l-.54.14Z" fill="#171717" stroke-width="0"/>
    <path d="M83.16,91.28c-.67,0-1.23-.14-1.68-.41-.46-.27-.8-.67-1.02-1.18s-.34-1.11-.34-1.79.12-1.29.38-1.78c.25-.49.6-.87,1.06-1.13.46-.26,1-.4,1.61-.4s1.16.13,1.61.4c.45.26.81.64,1.06,1.13.25.49.38,1.08.38,1.78,0,1.04-.26,1.86-.77,2.47s-1.27.91-2.27.91ZM83.16,85.12c-.81,0-1.42.25-1.84.74-.42.5-.63,1.17-.63,2.02,0,.57.09,1.06.26,1.49.18.43.45.77.81,1.01.37.24.83.36,1.38.36.84,0,1.47-.26,1.88-.79.41-.53.61-1.22.61-2.07,0-.57-.1-1.07-.29-1.48-.19-.41-.47-.73-.83-.95-.37-.22-.82-.33-1.36-.33Z" fill="#171717" stroke-width="0"/>
    <path d="M88.75,86.3h.36l-.2.28c.13-.35.32-.68.56-.98.24-.3.55-.55.91-.73.37-.19.8-.28,1.3-.28.39,0,.73.08,1.03.25s.53.41.69.74.24.74.24,1.22l.11.25v4.09h-.56v-4.27c0-.38-.06-.7-.17-.96-.12-.26-.29-.46-.53-.59-.24-.14-.54-.2-.91-.2-.51,0-.97.1-1.38.31-.41.21-.73.49-.97.84-.24.36-.35.76-.35,1.22v3.66h-.56v-6.41h.56v2.47l-.14-.9ZM93.47,86.42h.44l-.14.14c.1-.32.26-.62.48-.93.22-.3.51-.55.89-.75.38-.2.85-.3,1.41-.3.4,0,.75.08,1.06.25.31.17.56.41.74.74.18.33.27.74.27,1.22v4.34h-.56v-4.27c0-.38-.06-.7-.17-.96-.12-.26-.29-.46-.53-.59-.23-.14-.54-.2-.91-.2-.54,0-1.01.1-1.42.31-.41.21-.72.49-.95.84-.22.36-.33.76-.33,1.22h-.29v-1.06Z" fill="#171717" stroke-width="0"/>
    <path d="M101.57,86.3h.36l-.2.28c.13-.35.32-.68.56-.98.24-.3.55-.55.91-.73.37-.19.8-.28,1.3-.28.39,0,.73.08,1.03.25s.53.41.69.74.24.74.24,1.22l.11.25v4.09h-.56v-4.27c0-.38-.06-.7-.17-.96-.12-.26-.29-.46-.53-.59-.24-.14-.54-.2-.91-.2-.51,0-.97.1-1.38.31-.41.21-.73.49-.97.84-.24.36-.35.76-.35,1.22v3.66h-.56v-6.41h.56v2.47l-.14-.9ZM106.29,86.42h.44l-.14.14c.1-.32.26-.62.48-.93.22-.3.51-.55.89-.75.38-.2.85-.3,1.41-.3.4,0,.75.08,1.06.25.31.17.56.41.74.74.18.33.27.74.27,1.22v4.34h-.56v-4.27c0-.38-.06-.7-.17-.96-.12-.26-.29-.46-.53-.59-.23-.14-.54-.2-.91-.2-.54,0-1.01.1-1.42.31-.41.21-.72.49-.95.84-.22.36-.33.76-.33,1.22h-.29v-1.06Z" fill="#171717" stroke-width="0"/>
    <path d="M118.9,89.57h-.36l.2-.28c-.1.32-.28.64-.53.95s-.57.56-.94.75c-.37.19-.78.29-1.24.29s-.83-.08-1.14-.25c-.31-.17-.56-.41-.73-.74-.17-.33-.26-.74-.26-1.22v-4.34h.56v4.27c0,.37.05.69.15.95.1.26.27.46.51.6.23.14.55.2.95.2.52,0,.98-.1,1.38-.31s.72-.48.96-.84.35-.76.35-1.22v-3.66h.56v6.41h-.56v-2.47l.14.9Z" fill="#171717" stroke-width="0"/>
    <path d="M122.35,86.3h.36l-.19.28c.11-.33.29-.65.54-.95.25-.3.56-.55.93-.75.37-.19.78-.29,1.24-.29s.83.08,1.15.25c.32.17.56.41.73.74s.25.74.25,1.22v4.34h-.56v-4.27c0-.38-.05-.7-.15-.96-.1-.26-.27-.46-.51-.59-.24-.14-.55-.2-.95-.2-.51,0-.97.1-1.38.31-.41.21-.73.49-.96.84-.24.36-.35.76-.35,1.22v3.66h-.56v-6.41h.56v2.47l-.14-.9Z" fill="#171717" stroke-width="0"/>
    <path d="M130.78,82.89h-.83v-.82h.83v.82ZM130.64,91.14h-.56v-6.41h.56v6.41Z" fill="#171717" stroke-width="0"/>
    <path d="M138.09,86.85c-.08-.37-.2-.69-.35-.95-.15-.26-.37-.46-.65-.6s-.67-.21-1.16-.21c-.79,0-1.39.24-1.8.73-.41.49-.61,1.19-.61,2.12,0,.57.09,1.06.27,1.48s.45.75.82.97c.37.23.82.34,1.37.34.48,0,.86-.08,1.14-.24s.49-.37.64-.63c.15-.26.27-.56.36-.88l.53.18c-.16.68-.46,1.2-.88,1.56-.42.36-1.01.54-1.77.54-.67,0-1.23-.14-1.68-.41-.46-.27-.8-.67-1.02-1.18s-.34-1.11-.34-1.79.12-1.29.37-1.78c.24-.49.59-.87,1.04-1.13.45-.26.98-.4,1.58-.4.55,0,1,.08,1.36.24.36.16.65.39.86.71.21.32.37.71.46,1.18l-.54.14Z" fill="#171717" stroke-width="0"/>
    <path d="M142.28,91.28c-.43,0-.79-.06-1.1-.17s-.54-.3-.69-.56c-.16-.26-.24-.6-.24-1.02,0-.49.19-.9.56-1.23s.92-.49,1.65-.49h2.62v.42h-2.59c-.56,0-.97.11-1.26.33-.28.22-.42.55-.42.99,0,.23.05.44.15.62s.26.32.49.43c.23.11.53.16.93.16.5,0,.94-.08,1.31-.25.38-.17.67-.4.88-.68.21-.29.31-.62.31-.99v-1.93c0-.57-.14-1.01-.4-1.32-.27-.31-.75-.46-1.45-.46-.51,0-.92.12-1.24.36-.32.24-.55.56-.71.94l-.54-.23c.13-.32.31-.59.55-.84.24-.24.52-.43.85-.56s.69-.2,1.09-.2c.56,0,1.01.08,1.36.26.35.17.61.43.78.76.17.34.26.76.26,1.26v4.27h-.51v-1.78l.17.4h-.42l.21-.36c-.09.39-.25.73-.48,1.01-.23.28-.52.5-.87.65-.35.15-.76.22-1.24.22Z" fill="#171717" stroke-width="0"/>
    <path d="M147.23,84.73h4.1v.53h-4.1v-.53ZM148.39,89.33v-6.54h.56v6.56c0,.46.1.82.29,1.06.19.24.5.36.93.36.2,0,.39-.01.54-.04s.35-.07.57-.13l.1.47c-.13.04-.26.07-.39.1-.13.03-.26.06-.4.07-.14.02-.29.02-.44.02-.4,0-.73-.08-.99-.24s-.45-.39-.58-.68c-.13-.29-.19-.63-.19-1.02Z" fill="#171717" stroke-width="0"/>
    <path d="M154.08,82.89h-.83v-.82h.83v.82ZM153.94,91.14h-.56v-6.41h.56v6.41Z" fill="#171717" stroke-width="0"/>
    <path d="M159.31,91.28c-.67,0-1.23-.14-1.68-.41-.46-.27-.8-.67-1.02-1.18s-.34-1.11-.34-1.79.12-1.29.38-1.78c.25-.49.6-.87,1.06-1.13.46-.26,1-.4,1.61-.4s1.16.13,1.61.4c.45.26.81.64,1.06,1.13.25.49.38,1.08.38,1.78,0,1.04-.26,1.86-.77,2.47s-1.27.91-2.27.91ZM159.31,85.12c-.81,0-1.42.25-1.84.74-.42.5-.63,1.17-.63,2.02,0,.57.09,1.06.26,1.49.18.43.45.77.81,1.01.37.24.83.36,1.38.36.84,0,1.47-.26,1.88-.79.41-.53.61-1.22.61-2.07,0-.57-.1-1.07-.29-1.48-.19-.41-.47-.73-.83-.95-.37-.22-.82-.33-1.36-.33Z" fill="#171717" stroke-width="0"/>
    <path d="M164.9,86.3h.36l-.2.28c.11-.33.29-.65.54-.95.25-.3.56-.55.93-.75.37-.19.78-.29,1.24-.29s.83.08,1.15.25c.32.17.56.41.73.74s.25.74.25,1.22v4.34h-.56v-4.27c0-.38-.05-.7-.15-.96-.1-.26-.27-.46-.51-.59-.23-.14-.55-.2-.95-.2-.51,0-.97.1-1.38.31-.41.21-.73.49-.97.84-.24.36-.35.76-.35,1.22v3.66h-.56v-6.41h.56v2.47l-.14-.9Z" fill="#171717" stroke-width="0"/>
    <path d="M178.61,91.28c-.67,0-1.23-.14-1.68-.41s-.79-.67-1.02-1.18c-.23-.51-.34-1.11-.34-1.79s.12-1.29.37-1.78c.24-.49.59-.87,1.04-1.13s.97-.4,1.58-.4,1.13.12,1.54.37c.4.25.7.59.9,1.04.2.44.3.96.3,1.56v.22c0,.11-.01.21-.03.3h-5.38v-.49h5.06l-.18.18c0-.82-.16-1.47-.49-1.94-.33-.47-.91-.71-1.73-.71s-1.39.24-1.79.73c-.41.49-.61,1.19-.61,2.12,0,.85.2,1.53.61,2.04.41.51,1.02.76,1.85.76.48,0,.86-.08,1.14-.24s.49-.37.64-.63c.15-.26.27-.56.36-.88l.53.18c-.11.44-.28.83-.5,1.14-.22.32-.51.56-.86.72s-.78.24-1.29.24Z" fill="#171717" stroke-width="0"/>
    <path d="M182.7,84.73h4.1v.53h-4.1v-.53ZM183.87,89.33v-6.54h.56v6.56c0,.46.1.82.29,1.06.2.24.51.36.93.36.21,0,.39-.01.54-.04.16-.02.35-.07.57-.13l.1.47c-.13.04-.26.07-.39.1-.13.03-.26.06-.4.07-.14.02-.29.02-.44.02-.4,0-.73-.08-.99-.24s-.45-.39-.58-.68c-.12-.29-.19-.63-.19-1.02Z" fill="#171717" stroke-width="0"/>
    <path d="M192.84,84.73v8.73h-.56v-8.73h.56ZM192.64,86.99l-.07-.76h.47l-.2.76h-.21ZM192.57,89.66v-.56h.29l.16.56h-.46ZM197.88,87.94c0,1.12-.22,1.96-.65,2.51-.43.55-1.04.83-1.82.83-.39,0-.74-.07-1.06-.21-.32-.14-.6-.34-.84-.59-.24-.24-.43-.53-.56-.85-.13-.32-.2-.66-.2-1.01l.08-.24c0,.45.1.86.29,1.22.2.36.47.65.82.85.35.21.76.31,1.23.31.72,0,1.26-.22,1.61-.67s.53-1.17.53-2.18-.18-1.73-.53-2.16c-.35-.43-.89-.65-1.61-.65-.47,0-.88.1-1.23.31-.35.21-.62.48-.82.84-.19.35-.29.76-.29,1.22l-.06-.67c.09-.39.24-.75.43-1.09.19-.34.46-.61.81-.82.34-.21.77-.31,1.28-.31.83,0,1.47.28,1.92.83.44.55.67,1.39.67,2.53Z" fill="#171717" stroke-width="0"/>
    <path d="M200.45,86.17h.29l-.26.95c.04-.4.12-.75.24-1.06s.29-.57.51-.79.46-.39.75-.5.6-.17.95-.17h.1v.56h-.1c-.52,0-.95.1-1.31.29s-.62.48-.79.88c-.17.4-.26.92-.26,1.57v3.25h-.56v-6.41h.56v2.22l-.11-.78Z" fill="#171717" stroke-width="0"/>
    <path d="M207.55,91.28c-.67,0-1.23-.14-1.68-.41-.46-.27-.8-.67-1.02-1.18s-.34-1.11-.34-1.79.12-1.29.38-1.78c.25-.49.6-.87,1.06-1.13.46-.26,1-.4,1.61-.4s1.16.13,1.61.4c.45.26.81.64,1.06,1.13.25.49.38,1.08.38,1.78,0,1.04-.26,1.86-.77,2.47-.51.61-1.27.91-2.27.91ZM207.55,85.12c-.81,0-1.42.25-1.84.74-.42.5-.63,1.17-.63,2.02,0,.57.09,1.06.26,1.49.18.43.45.77.81,1.01.37.24.83.36,1.38.36.84,0,1.47-.26,1.88-.79.41-.53.61-1.22.61-2.07,0-.57-.1-1.07-.29-1.48-.19-.41-.47-.73-.83-.95-.37-.22-.82-.33-1.36-.33Z" fill="#171717" stroke-width="0"/>
    <path d="M212.23,87.94c0-1.13.22-1.97.67-2.53.44-.55,1.09-.83,1.92-.83.52,0,.95.1,1.29.31.34.21.61.48.81.82.2.34.34.7.42,1.09l-.06.67c0-.68-.21-1.25-.63-1.69s-.99-.67-1.7-.67-1.26.22-1.61.65c-.35.43-.53,1.15-.53,2.16s.18,1.74.53,2.18.89.67,1.61.67c.47,0,.88-.11,1.24-.31s.62-.49.81-.85c.19-.36.29-.77.29-1.22l.08.24c0,.35-.07.69-.2,1.01-.13.32-.32.6-.56.85-.24.25-.52.44-.84.59-.32.14-.68.21-1.06.21-.78,0-1.39-.28-1.82-.83-.44-.55-.65-1.39-.65-2.51ZM217.48,86.99h-.21l-.2-.76h.47l-.07.76ZM217.55,89.66h-.46l.16-.56h.29v.56ZM217.28,91.14v-9.32h.56v9.32h-.56Z" fill="#171717" stroke-width="0"/>
    <path d="M225.37,89.57h-.36l.2-.28c-.1.32-.28.64-.53.95s-.57.56-.94.75c-.37.19-.78.29-1.24.29s-.83-.08-1.14-.25c-.31-.17-.56-.41-.73-.74-.17-.33-.26-.74-.26-1.22v-4.34h.56v4.27c0,.37.05.69.15.95.1.26.27.46.51.6.23.14.55.2.95.2.52,0,.98-.1,1.38-.31s.72-.48.96-.84c.24-.36.35-.76.35-1.22v-3.66h.56v6.41h-.56v-2.47l.14.9Z" fill="#171717" stroke-width="0"/>
    <path d="M233.05,86.85c-.08-.37-.2-.69-.35-.95-.15-.26-.36-.46-.65-.6s-.67-.21-1.16-.21c-.79,0-1.39.24-1.79.73-.41.49-.61,1.19-.61,2.12,0,.57.09,1.06.27,1.48.18.42.46.75.82.97.37.23.82.34,1.37.34.48,0,.86-.08,1.14-.24s.49-.37.64-.63c.15-.26.27-.56.36-.88l.53.18c-.17.68-.46,1.2-.88,1.56-.42.36-1.01.54-1.77.54-.67,0-1.23-.14-1.68-.41s-.79-.67-1.02-1.18c-.23-.51-.34-1.11-.34-1.79s.12-1.29.37-1.78c.24-.49.59-.87,1.04-1.13s.97-.4,1.58-.4c.55,0,1,.08,1.36.24.36.16.65.39.86.71.21.32.37.71.46,1.18l-.54.14Z" fill="#171717" stroke-width="0"/>
    <path d="M235.05,84.73h4.1v.53h-4.1v-.53ZM236.22,89.33v-6.54h.56v6.56c0,.46.1.82.29,1.06.19.24.5.36.93.36.2,0,.39-.01.54-.04s.35-.07.57-.13l.1.47c-.13.04-.26.07-.39.1-.13.03-.26.06-.4.07-.14.02-.29.02-.44.02-.4,0-.73-.08-.99-.24s-.45-.39-.58-.68c-.13-.29-.19-.63-.19-1.02Z" fill="#171717" stroke-width="0"/>
    <path d="M241.91,82.89h-.83v-.82h.83v.82ZM241.77,91.14h-.56v-6.41h.56v6.41Z" fill="#171717" stroke-width="0"/>
    <path d="M247.14,91.28c-.67,0-1.23-.14-1.68-.41s-.79-.67-1.02-1.18c-.23-.51-.34-1.11-.34-1.79s.13-1.29.38-1.78c.25-.49.6-.87,1.06-1.13.46-.26.99-.4,1.6-.4s1.16.13,1.61.4c.46.26.81.64,1.06,1.13.25.49.38,1.08.38,1.78,0,1.04-.26,1.86-.77,2.47-.51.61-1.27.91-2.27.91ZM247.14,85.12c-.81,0-1.42.25-1.84.74-.42.5-.63,1.17-.63,2.02,0,.57.09,1.06.26,1.49.17.43.44.77.81,1.01.37.24.83.36,1.38.36.84,0,1.47-.26,1.88-.79.41-.53.61-1.22.61-2.07,0-.57-.1-1.07-.29-1.48-.19-.41-.47-.73-.84-.95-.37-.22-.82-.33-1.36-.33Z" fill="#171717" stroke-width="0"/>
    <path d="M252.73,86.3h.36l-.19.28c.11-.33.29-.65.54-.95.25-.3.56-.55.93-.75.37-.19.78-.29,1.24-.29s.83.08,1.15.25c.32.17.56.41.73.74s.25.74.25,1.22v4.34h-.56v-4.27c0-.38-.05-.7-.15-.96-.1-.26-.27-.46-.51-.59-.24-.14-.55-.2-.95-.2-.51,0-.97.1-1.38.31-.41.21-.73.49-.96.84-.24.36-.35.76-.35,1.22v3.66h-.56v-6.41h.56v2.47l-.14-.9Z" fill="#171717" stroke-width="0"/>
    <path d="M265.34,91.28c-.43,0-.79-.06-1.1-.17s-.54-.3-.69-.56c-.16-.26-.24-.6-.24-1.02,0-.49.19-.9.56-1.23s.92-.49,1.65-.49h2.62v.42h-2.59c-.56,0-.97.11-1.26.33-.28.22-.42.55-.42.99,0,.23.05.44.15.62s.26.32.49.43c.23.11.53.16.93.16.5,0,.94-.08,1.31-.25.38-.17.67-.4.88-.68.21-.29.31-.62.31-.99v-1.93c0-.57-.14-1.01-.4-1.32-.27-.31-.75-.46-1.45-.46-.51,0-.92.12-1.24.36-.32.24-.55.56-.71.94l-.54-.23c.13-.32.31-.59.55-.84.24-.24.52-.43.85-.56s.69-.2,1.09-.2c.56,0,1.01.08,1.36.26.35.17.61.43.78.76.17.34.26.76.26,1.26v4.27h-.51v-1.78l.17.4h-.42l.21-.36c-.09.39-.25.73-.48,1.01-.23.28-.52.5-.87.65-.35.15-.76.22-1.24.22Z" fill="#171717" stroke-width="0"/>
    <path d="M275.94,89.57h-.36l.2-.28c-.1.32-.28.64-.53.95s-.57.56-.94.75c-.37.19-.78.29-1.24.29s-.83-.08-1.14-.25c-.31-.17-.56-.41-.73-.74-.17-.33-.26-.74-.26-1.22v-4.34h.56v4.27c0,.37.05.69.15.95.1.26.27.46.51.6.23.14.55.2.95.2.52,0,.98-.1,1.38-.31s.72-.48.96-.84.35-.76.35-1.22v-3.66h.56v6.41h-.56v-2.47l.14.9Z" fill="#171717" stroke-width="0"/>
    <path d="M278.48,87.94c0-1.13.22-1.97.67-2.53.44-.55,1.08-.83,1.92-.83.52,0,.95.1,1.29.31.34.21.61.48.81.82.2.34.34.7.42,1.09l-.05.67c0-.68-.21-1.25-.63-1.69s-.99-.67-1.71-.67-1.26.22-1.61.65c-.35.43-.53,1.15-.53,2.16s.17,1.74.53,2.18.89.67,1.61.67c.47,0,.89-.11,1.24-.31.35-.21.62-.49.81-.85.19-.36.29-.77.29-1.22l.08.24c0,.35-.06.69-.19,1.01-.13.32-.32.6-.56.85-.24.25-.52.44-.84.59-.32.14-.67.21-1.06.21-.78,0-1.39-.28-1.82-.83-.43-.55-.65-1.39-.65-2.51ZM283.72,86.99h-.21l-.19-.76h.47l-.07.76ZM283.79,89.66h-.46l.17-.56h.29v.56ZM283.53,91.14v-9.32h.56v9.32h-.56Z" fill="#171717" stroke-width="0"/>
    <path d="M287.59,82.89h-.83v-.82h.83v.82ZM287.45,91.14h-.56v-6.41h.56v6.41Z" fill="#171717" stroke-width="0"/>
    <path d="M292.82,91.28c-.67,0-1.23-.14-1.68-.41s-.79-.67-1.02-1.18c-.23-.51-.34-1.11-.34-1.79s.13-1.29.38-1.78c.25-.49.6-.87,1.06-1.13.46-.26.99-.4,1.6-.4s1.16.13,1.61.4c.46.26.81.64,1.06,1.13.25.49.38,1.08.38,1.78,0,1.04-.26,1.86-.77,2.47s-1.27.91-2.27.91ZM292.82,85.12c-.81,0-1.42.25-1.84.74-.42.5-.63,1.17-.63,2.02,0,.57.09,1.06.26,1.49.17.43.44.77.81,1.01.37.24.83.36,1.38.36.84,0,1.47-.26,1.88-.79.41-.53.61-1.22.61-2.07,0-.57-.1-1.07-.29-1.48-.19-.41-.47-.73-.84-.95-.37-.22-.82-.33-1.36-.33Z" fill="#171717" stroke-width="0"/>
    <path d="M300.51,91.14h-.65l-2.89-6.41h.61l1.04,2.39c.19.42.36.83.52,1.23.16.4.32.82.47,1.23.15.42.3.86.44,1.32l-.25-.25h.78l-.29.25c.13-.42.28-.85.44-1.27.16-.42.33-.84.51-1.25.18-.41.35-.82.53-1.23l1.04-2.42h.61l-2.91,6.41Z" fill="#171717" stroke-width="0"/>
    <path d="M305.89,82.89h-.83v-.82h.83v.82ZM305.75,91.14h-.56v-6.41h.56v6.41Z" fill="#171717" stroke-width="0"/>
    <path d="M310.88,91.29c-.6,0-1.1-.08-1.49-.24-.39-.16-.69-.4-.91-.71-.22-.31-.38-.68-.49-1.1l.54-.11c.08.29.21.56.37.81s.4.45.72.6c.32.15.74.22,1.27.22.59,0,1.04-.11,1.33-.31.3-.21.44-.52.44-.95,0-.3-.07-.53-.22-.7-.15-.17-.38-.31-.69-.41-.31-.1-.7-.19-1.18-.25-.52-.08-.94-.2-1.27-.36-.32-.16-.56-.35-.7-.58-.14-.23-.21-.5-.21-.81,0-.52.19-.95.56-1.28.38-.33.93-.5,1.67-.5.52,0,.93.07,1.24.22.31.15.55.35.73.6.17.26.31.56.42.9l-.56.14c-.13-.51-.35-.86-.66-1.05s-.7-.29-1.18-.29c-.57,0-.99.11-1.27.32s-.42.51-.42.9c0,.21.06.41.18.58.12.17.32.32.58.44.27.12.63.21,1.09.28.56.07,1.02.19,1.38.34.36.15.63.35.8.59s.26.54.26.9c0,.33-.07.64-.22.92-.15.28-.4.5-.74.66s-.81.24-1.39.24Z" fill="#171717" stroke-width="0"/>
    <path d="M320.24,89.57h-.36l.2-.28c-.1.32-.28.64-.53.95-.25.31-.57.56-.94.75-.37.19-.78.29-1.24.29s-.83-.08-1.14-.25c-.31-.17-.56-.41-.73-.74-.17-.33-.26-.74-.26-1.22v-4.34h.56v4.27c0,.37.05.69.15.95.1.26.27.46.51.6.23.14.55.2.95.2.52,0,.98-.1,1.38-.31s.72-.48.96-.84.35-.76.35-1.22v-3.66h.56v6.41h-.56v-2.47l.14.9Z" fill="#171717" stroke-width="0"/>
    <path d="M325.83,91.28c-.67,0-1.23-.14-1.68-.41s-.79-.67-1.02-1.18c-.23-.51-.34-1.11-.34-1.79s.12-1.29.37-1.78c.24-.49.59-.87,1.04-1.13s.97-.4,1.58-.4,1.13.12,1.54.37c.4.25.7.59.9,1.04.2.44.3.96.3,1.56v.22c0,.11-.01.21-.03.3h-5.38v-.49h5.06l-.18.18c0-.82-.16-1.47-.49-1.94-.33-.47-.91-.71-1.73-.71s-1.39.24-1.79.73c-.41.49-.61,1.19-.61,2.12,0,.85.2,1.53.61,2.04.41.51,1.02.76,1.85.76.48,0,.86-.08,1.14-.24s.49-.37.64-.63c.15-.26.27-.56.36-.88l.53.18c-.11.44-.28.83-.5,1.14-.22.32-.51.56-.86.72s-.78.24-1.29.24Z" fill="#171717" stroke-width="0"/>
    <path d="M331.39,81.82v9.32h-.56v-9.32h.56Z" fill="#171717" stroke-width="0"/>
    <path d="M334.95,81.82v9.32h-.56v-9.32h.56Z" fill="#171717" stroke-width="0"/>
    <path d="M340.32,91.28c-.67,0-1.23-.14-1.68-.41-.46-.27-.8-.67-1.02-1.18s-.34-1.11-.34-1.79.12-1.29.37-1.78c.24-.49.59-.87,1.04-1.13.45-.26.98-.4,1.58-.4s1.13.12,1.54.37c.4.25.7.59.9,1.04.2.44.3.96.3,1.56v.22c0,.11,0,.21-.03.3h-5.38v-.49h5.06l-.18.18c0-.82-.16-1.47-.49-1.94-.33-.47-.91-.71-1.73-.71s-1.39.24-1.8.73c-.41.49-.61,1.19-.61,2.12,0,.85.21,1.53.61,2.04.41.51,1.03.76,1.85.76.48,0,.86-.08,1.14-.24s.49-.37.64-.63c.15-.26.27-.56.36-.88l.53.18c-.11.44-.28.83-.5,1.14-.22.32-.51.56-.86.72-.35.16-.78.24-1.29.24Z" fill="#171717" stroke-width="0"/>
  </g>
  <g>
    <path d="M4.83,75.53V3.58h32.28c8.29,0,14.67,1.66,19.12,4.98,4.45,3.33,6.68,7.86,6.68,13.62,0,3.91-.87,7.2-2.62,9.87-1.75,2.68-4.1,4.73-7.04,6.17s-6.13,2.16-9.56,2.16l1.85-3.08c4.11,0,7.74.72,10.9,2.16,3.15,1.44,5.65,3.54,7.5,6.32,1.85,2.77,2.77,6.22,2.77,10.33,0,6.17-2.31,10.95-6.94,14.34-4.63,3.39-11.5,5.09-20.61,5.09H4.83ZM15.11,67.2h23.64c5.69,0,10.04-.96,13.05-2.87,3.01-1.92,4.53-4.94,4.53-9.05s-1.51-7.23-4.53-9.15c-3.01-1.92-7.36-2.88-13.05-2.88H14.18v-8.33h22c5.21,0,9.25-.96,12.13-2.88,2.88-1.91,4.32-4.79,4.32-8.63s-1.44-6.72-4.32-8.64-6.92-2.88-12.13-2.88H15.11v55.3Z" fill="#171717" stroke-width="0"/>
    <path d="M101.56,76.15c-5.83,0-10.95-1.19-15.37-3.6-4.42-2.39-7.85-5.69-10.28-9.87-2.44-4.18-3.65-8.98-3.65-14.39s1.18-10.21,3.54-14.39c2.37-4.18,5.62-7.45,9.77-9.82,4.15-2.36,8.82-3.54,14.03-3.54s9.94,1.16,13.98,3.49c4.04,2.33,7.21,5.6,9.51,9.82,2.29,4.21,3.44,9.13,3.44,14.75,0,.41-.02.89-.05,1.44-.04.55-.09,1.06-.15,1.54h-46.36v-7.09h41.22l-4.01,2.47c.07-3.49-.65-6.61-2.16-9.35-1.51-2.74-3.58-4.88-6.22-6.43-2.64-1.54-5.7-2.31-9.2-2.31s-6.48.77-9.15,2.31c-2.68,1.54-4.77,3.7-6.27,6.48-1.51,2.77-2.26,5.95-2.26,9.51v1.64c0,3.63.84,6.87,2.52,9.71,1.68,2.85,4.02,5.06,7.04,6.63,3.01,1.58,6.48,2.37,10.38,2.37,3.22,0,6.15-.55,8.79-1.65,2.64-1.1,4.95-2.74,6.94-4.93l5.45,6.37c-2.47,2.88-5.54,5.07-9.2,6.58-3.67,1.51-7.76,2.26-12.28,2.26Z" fill="#171717" stroke-width="0"/>
  </g>
  <path d="M140.39,75.5V2.99h12.33c9.63,0,19.89,4.35,19.89,14.61s-9.53,16.78-26,16.78h-4.14v41.12h-2.07ZM146.61,33.34c15.12,0,23.41-5.59,23.41-15.74,0-9.32-6.94-13.57-17.4-13.57h-10.15v29.31h4.14Z" fill="#171717" stroke-width="0"/>
  <path d="M180.07,75.5V2.99h12.33c9.63,0,19.89,5.08,19.89,14.5,0,8.49-8.29,14.29-20.61,15.54l16.88,42.47h-2.07l-16.88-42.26c-1.04.1-2.18.1-3.31.1h-4.15v42.16h-2.07ZM182.14,32.3h4.15c13.77,0,23.41-4.77,23.41-14.4,0-8.91-8.18-13.88-17.3-13.88h-10.26v28.28Z" fill="#171717" stroke-width="0"/>
  <path d="M292.35,75.5V2.99h12.12c25.38,0,38.53,13.98,38.53,35.12s-14.19,37.39-38.53,37.39h-12.12ZM304.05,74.46c22.89,0,36.36-14.81,36.36-36.77,0-20.61-11.91-33.66-36.56-33.66h-9.43v70.43h9.63Z" fill="#171717" stroke-width="0"/>
  <rect x="128.89" y="69.36" width="6.13" height="6.13" fill="#171717" stroke-width="0"/>
  <g>
    <g>
      <circle cx="250.92" cy="39.71" r="38.28" fill="url(#linear-gradient)" stroke-width="0"/>
      <circle cx="274.26" cy="15.07" r="2.13" fill="#171717" stroke-width="0"/>
    </g>
    <circle cx="250.92" cy="39.71" r="25.5" fill="url(#linear-gradient-2)" stroke-width="0"/>
    <g>
      <circle cx="250.92" cy="38.65" r="10.64" fill="#bfc0c2" stroke-width="0"/>
      <g clip-path="url(#clippath)">
        <rect x="227.5" y="16.29" width="46.84" height="46.84" fill="#2a3542" stroke-width="0"/>
        <circle cx="250.92" cy="39.71" r="23.42" fill="#2a3542" stroke-width="0"/>
        <circle cx="250.92" cy="39.71" r="22.75" fill="#2b3642" stroke-width="0"/>
        <circle cx="250.92" cy="39.71" r="22.09" fill="#2b3643" stroke-width="0"/>
        <circle cx="250.92" cy="39.71" r="21.42" fill="#2b3644" stroke-width="0"/>
        <circle cx="250.92" cy="39.71" r="20.75" fill="#2c3744" stroke-width="0"/>
        <circle cx="250.92" cy="39.71" r="20.09" fill="#2c3745" stroke-width="0"/>
        <circle cx="250.92" cy="39.71" r="19.42" fill="#2d3845" stroke-width="0"/>
        <circle cx="250.92" cy="39.71" r="18.75" fill="#2d3846" stroke-width="0"/>
        <circle cx="250.92" cy="39.71" r="18.09" fill="#2d3946" stroke-width="0"/>
        <circle cx="250.92" cy="39.71" r="17.42" fill="#2e3947" stroke-width="0"/>
        <circle cx="250.92" cy="39.71" r="16.75" fill="#2e3a47" stroke-width="0"/>
        <circle cx="250.92" cy="39.71" r="16.09" fill="#2f3a48" stroke-width="0"/>
        <circle cx="250.92" cy="39.71" r="15.42" fill="#2f3a48" stroke-width="0"/>
        <circle cx="250.92" cy="39.71" r="14.75" fill="#2f3b49" stroke-width="0"/>
        <circle cx="250.92" cy="39.71" r="14.09" fill="#303b49" stroke-width="0"/>
        <circle cx="250.92" cy="39.71" r="13.42" fill="#303c4a" stroke-width="0"/>
        <circle cx="250.92" cy="39.71" r="12.75" fill="#303c4a" stroke-width="0"/>
        <circle cx="250.92" cy="39.71" r="12.09" fill="#313d4b" stroke-width="0"/>
        <circle cx="250.92" cy="39.71" r="11.42" fill="#313d4c" stroke-width="0"/>
        <circle cx="250.92" cy="39.71" r="10.75" fill="#323e4c" stroke-width="0"/>
        <circle cx="250.92" cy="39.71" r="10.09" fill="#323e4d" stroke-width="0"/>
        <circle cx="250.92" cy="39.71" r="9.42" fill="#323e4d" stroke-width="0"/>
        <circle cx="250.92" cy="39.71" r="8.75" fill="#333f4e" stroke-width="0"/>
        <circle cx="250.92" cy="39.71" r="8.09" fill="#333f4e" stroke-width="0"/>
        <circle cx="250.92" cy="39.71" r="7.42" fill="#34404f" stroke-width="0"/>
        <circle cx="250.92" cy="39.71" r="6.75" fill="#34404f" stroke-width="0"/>
        <circle cx="250.92" cy="39.71" r="6.09" fill="#344150" stroke-width="0"/>
        <circle cx="250.92" cy="39.71" r="5.42" fill="#354150" stroke-width="0"/>
        <circle cx="250.92" cy="39.71" r="4.75" fill="#354251" stroke-width="0"/>
        <circle cx="250.92" cy="39.71" r="4.09" fill="#364252" stroke-width="0"/>
        <circle cx="250.92" cy="39.71" r="3.42" fill="#364352" stroke-width="0"/>
        <circle cx="250.92" cy="39.71" r="2.75" fill="#364353" stroke-width="0"/>
        <circle cx="250.92" cy="39.71" r="2.09" fill="#374353" stroke-width="0"/>
        <circle cx="250.92" cy="39.71" r="1.42" fill="#374454" stroke-width="0"/>
        <circle cx="250.92" cy="39.71" r=".75" fill="#384454" stroke-width="0"/>
      </g>
      <g clip-path="url(#clippath-1)">
        <rect x="238.15" y="25.87" width="0" height="25.55" fill="#929493" stroke-width="0"/>
        <rect x="238.15" y="25.87" width="0" height="25.55" fill="#868888" stroke-width="0"/>
        <rect x="238.15" y="25.87" width="0" height="25.55" fill="#7a7c7d" stroke-width="0"/>
        <rect x="238.15" y="25.87" width="0" height="25.55" fill="#6f7173" stroke-width="0"/>
        <rect x="238.15" y="25.87" width="0" height="25.55" fill="#646769" stroke-width="0"/>
        <rect x="238.15" y="25.87" width="0" height="25.55" fill="#5a5c60" stroke-width="0"/>
        <rect x="238.15" y="25.87" width="0" height="25.55" fill="#4f5357" stroke-width="0"/>
        <rect x="238.15" y="25.87" width="0" height="25.55" fill="#464a4e" stroke-width="0"/>
        <rect x="238.15" y="25.87" width="0" height="25.55" fill="#3c4146" stroke-width="0"/>
        <rect x="238.15" y="25.87" width="0" height="25.55" fill="#33383e" stroke-width="0"/>
        <rect x="238.15" y="25.87" width="0" height="25.55" fill="#2a3036" stroke-width="0"/>
        <rect x="238.15" y="25.87" width=".31" height="25.55" fill="#242a30" stroke-width="0"/>
        <rect x="238.46" y="25.87" width=".31" height="25.55" fill="#242a30" stroke-width="0"/>
        <rect x="238.77" y="25.87" width=".31" height="25.55" fill="#242a30" stroke-width="0"/>
        <rect x="239.08" y="25.87" width=".31" height="25.55" fill="#242a30" stroke-width="0"/>
        <rect x="239.38" y="25.87" width=".31" height="25.55" fill="#242a30" stroke-width="0"/>
        <rect x="239.69" y="25.87" width=".31" height="25.55" fill="#242a30" stroke-width="0"/>
        <rect x="240" y="25.87" width=".31" height="25.55" fill="#242a30" stroke-width="0"/>
        <rect x="240.31" y="25.87" width=".31" height="25.55" fill="#242a30" stroke-width="0"/>
        <rect x="240.62" y="25.87" width=".31" height="25.55" fill="#242a30" stroke-width="0"/>
        <rect x="240.93" y="25.87" width=".31" height="25.55" fill="#242a30" stroke-width="0"/>
        <rect x="241.24" y="25.87" width=".31" height="25.55" fill="#242a30" stroke-width="0"/>
        <rect x="241.55" y="25.87" width=".31" height="25.55" fill="#24292f" stroke-width="0"/>
        <rect x="241.86" y="25.87" width=".31" height="25.55" fill="#23292f" stroke-width="0"/>
        <rect x="242.17" y="25.87" width=".31" height="25.55" fill="#23292e" stroke-width="0"/>
        <rect x="242.48" y="25.87" width=".31" height="25.55" fill="#23282d" stroke-width="0"/>
        <rect x="242.79" y="25.87" width=".31" height="25.55" fill="#23272c" stroke-width="0"/>
        <rect x="243.1" y="25.87" width=".31" height="25.55" fill="#22262a" stroke-width="0"/>
        <rect x="243.4" y="25.87" width=".31" height="25.55" fill="#222528" stroke-width="0"/>
        <rect x="243.71" y="25.87" width=".31" height="25.55" fill="#212326" stroke-width="0"/>
        <rect x="244.02" y="25.87" width="1.47" height="25.55" fill="#212326" stroke-width="0"/>
        <rect x="245.5" y="25.87" width="1.47" height="25.55" fill="#212426" stroke-width="0"/>
        <rect x="246.97" y="25.87" width="1.47" height="25.55" fill="#212427" stroke-width="0"/>
        <rect x="248.44" y="25.87" width="1.47" height="25.55" fill="#222527" stroke-width="0"/>
        <rect x="249.91" y="25.87" width="1.47" height="25.55" fill="#222528" stroke-width="0"/>
        <rect x="251.38" y="25.87" width="1.47" height="25.55" fill="#222629" stroke-width="0"/>
        <rect x="252.85" y="25.87" width="1.47" height="25.55" fill="#232629" stroke-width="0"/>
        <rect x="254.33" y="25.87" width="1.47" height="25.55" fill="#23272a" stroke-width="0"/>
        <rect x="255.8" y="25.87" width=".53" height="25.55" fill="#23272a" stroke-width="0"/>
        <rect x="256.32" y="25.87" width=".53" height="25.55" fill="#232729" stroke-width="0"/>
        <rect x="256.85" y="25.87" width=".53" height="25.55" fill="#222629" stroke-width="0"/>
        <rect x="257.38" y="25.87" width=".53" height="25.55" fill="#222628" stroke-width="0"/>
        <rect x="257.9" y="25.87" width=".53" height="25.55" fill="#222527" stroke-width="0"/>
        <rect x="258.43" y="25.87" width=".53" height="25.55" fill="#222527" stroke-width="0"/>
        <rect x="258.96" y="25.87" width=".53" height="25.55" fill="#212426" stroke-width="0"/>
        <rect x="259.48" y="25.87" width=".53" height="25.55" fill="#212426" stroke-width="0"/>
        <rect x="260.01" y="25.87" width=".53" height="25.55" fill="#212325" stroke-width="0"/>
        <rect x="260.54" y="25.87" width=".53" height="25.55" fill="#202225" stroke-width="0"/>
        <rect x="261.06" y="25.87" width=".53" height="25.55" fill="#202224" stroke-width="0"/>
        <rect x="261.59" y="25.87" width=".53" height="25.55" fill="#202123" stroke-width="0"/>
        <rect x="262.12" y="25.87" width=".53" height="25.55" fill="#1f2123" stroke-width="0"/>
        <rect x="262.64" y="25.87" width=".53" height="25.55" fill="#1f2022" stroke-width="0"/>
        <rect x="263.17" y="25.87" width=".53" height="25.55" fill="#1f2022" stroke-width="0"/>
      </g>
      <circle cx="250.92" cy="38.65" r="10.64" fill="#262b2d" stroke-width="0"/>
      <circle cx="250.92" cy="38.65" r="5.32" fill="#21252d" stroke-width="0"/>
      <circle cx="250.92" cy="38.65" r="4.44" fill="#21232c" stroke-width="0"/>
    </g>
  </g>
</svg>