<?xml version="1.0" encoding="UTF-8"?>
<svg id="Layer_1" data-name="Layer 1" xmlns="http://www.w3.org/2000/svg" viewBox="0 0 308 114.5">
  <g>
    <path d="M124.74,65.85c-.31-5.35-1.76-8.57-8.8-8.57-7.73,0-12.39,4.67-14.08,14.08-.23,1.45-.38,2.75-.38,3.98,0,2.45.61,4.74,1.84,6.81,1.22,2.14,3.83,3.21,7.88,3.21,7.04,0,9.72-3.83,11.86-8.57l4.51,1.53c-2.98,7.42-8.03,11.63-16.83,11.63-5.58,0-9.41-1.53-11.48-4.51-2.06-2.98-3.06-6.27-3.06-9.94,0-1.45.15-3.06.46-4.74,1.91-11.32,9.1-18.05,19.51-18.05,9.79,0,13.39,4.28,13.62,12.01l-5.05,1.15Z" fill="#171717" stroke-width="0"/>
    <path d="M138.97,86.05c-1.53-2.6-2.3-5.51-2.3-8.72,0-1.99.23-4.21.69-6.73,2.14-11.86,7.8-17.9,16.07-17.9,6.81,0,10.1,4.05,11.32,9.18h.77l1.53-8.34h5.2l-6.2,35.57h-5.28l1.45-8.42h-.76c-2.98,5.2-8.19,9.26-14.23,9.26-3.98,0-6.73-1.3-8.26-3.9ZM164.29,68.91v.08c.15-.92.23-1.76.23-2.52,0-2.22-.69-4.21-2.14-6.12-1.45-1.91-3.83-2.83-7.27-2.83-6.96,0-10.86,3.9-12.62,13.77-.38,2.07-.54,3.83-.54,5.36,0,2.3.54,4.28,1.61,6.04.99,1.76,3.29,2.68,6.81,2.68,6.43,0,11.47-4.51,12.93-10.71l.99-5.74Z" fill="#171717" stroke-width="0"/>
    <path d="M188.84,62.26l.84.08c3.14-6.66,7.65-9.56,13.16-9.56h.92l-1.07,5.74h-.46c-8.57,0-13.01,3.82-14.77,13.54l-2.98,17.06h-5.28l6.27-35.57h4.9l-1.53,8.72Z" fill="#171717" stroke-width="0"/>
    <path d="M216.84,62.26l.84.08c3.14-6.66,7.65-9.56,13.16-9.56h.92l-1.07,5.74h-.46c-8.57,0-13.01,3.82-14.77,13.54l-2.98,17.06h-5.28l6.27-35.57h4.9l-1.53,8.72Z" fill="#171717" stroke-width="0"/>
    <path d="M236.57,81.46c-.69-2.29-.99-4.44-.99-6.43,0-1.61.15-3.21.46-4.97,2.06-11.25,9.49-17.37,19.81-17.37,7.27,0,12.16,3.75,13.69,8.34.69,2.37,1.07,4.59,1.07,6.66,0,1.45-.15,3.06-.38,4.67-2.07,11.25-9.03,17.6-19.81,17.6-7.73,0-12.55-3.83-13.85-8.49ZM241.24,70.83c-.23,1.53-.38,2.98-.38,4.28,0,2.52.61,4.82,1.76,7.04s3.83,3.37,8.03,3.37c8.26,0,12.93-5.36,14.38-14,.23-1.53.38-2.91.38-4.21,0-2.52-.61-4.82-1.91-6.96-1.3-2.14-4.05-3.21-8.11-3.21-7.96,0-12.62,4.9-14.15,13.69Z" fill="#171717" stroke-width="0"/>
    <path d="M280.48,53.54h5.97l1.84-10.33h5.2l-1.84,10.33h12.01l-.69,4.36h-12.09l-3.59,20.58c-.15.76-.23,1.45-.23,2.06,0,2.45.84,4.67,5.36,4.67,1.84,0,3.29-.31,5.43-.92l.23,4.59c-2.37.61-4.13,1.07-6.89,1.07-3.9,0-6.43-.92-7.57-2.83-1.22-1.91-1.84-3.9-1.84-6.04,0-.92.08-1.91.31-2.98l3.6-20.2h-5.97l.76-4.36Z" fill="#171717" stroke-width="0"/>
  </g>
  <g>
    <path d="M92.66,33.49c-4.71-.71-8.67,1.21-12.72,2.82,1.86-1.32,3.73-2.66,5.79-4.11-5.9-.69-9.76,2.5-13.53,6.05.6-1.52,1.2-3.05,1.86-4.74-2.75,1.23-4.01,3.83-6.22,5.42.31-.74.63-1.48,1.03-2.45-.5.21-.86.27-1.11.47-1.52,1.21-3.05,2.41-4.5,3.7-2.14,1.92-4.22,3.91-6.33,5.87-.08-.07-.17-.16-.26-.23.74-2.19,1.76-4.22,3.23-6.03,1.81-2.24,4.27-3.65,6.54-5.32.97-.7,1.91-1.44,2.87-2.17-.05-.12-.1-.24-.15-.36-1.88.46-3.77.94-5.65,1.4,1.15-1.41,2.69-2.22,4.5-2.58,1.38-.27,2.77-.5,4.15-.79,1.27-.26,2-1.07,2.24-2.59-1.18-.06-2.31-.21-3.43-.13-1.11.07-2.21.37-3.53.61.61-.44,1.02-.83,1.49-1.06,1.47-.7,2.95-1.4,4.46-1.97,1.69-.65,2.89-1.69,3.6-3.54-.99.25-1.84.46-2.64.66.65-1.24,1.25-2.41,1.85-3.59-.08-.06-.17-.12-.26-.19-3,1.05-5.61,2.76-7.58,5.21-2.84,3.54-5.48,7.25-8.17,10.91-2.79,3.81-5.22,7.82-6.74,12.35-.03.12-.14.22-.31.46,0-1.89-.18-3.59.05-5.25.33-2.4,1.01-4.75,1.47-7.14.2-1.03.21-2.09.3-3.13-.13-.04-.26-.09-.4-.13-.77,1.16-1.64,2.27-2.28,3.5-2.13,4.15-3.01,8.61-3.07,13.26,0,.42-.09.84-.14,1.28h-.34c-.09-.26-.23-.51-.26-.76-.14-1.33-.33-2.67-.36-4.02-.12-5.12,1.57-9.63,4.43-13.84,1.44-2.12,2.48-4.5,3.71-6.76-.09-.08-.19-.17-.28-.26-.58.29-1.2.52-1.73.87-2.88,1.91-4.31,4.78-5.02,8.02-.6,2.71-1.01,5.45-1.51,8.17-.16-.27-.23-.57-.22-.86.04-1.63,0-3.28.17-4.89.51-4.64,2.37-8.62,6.03-11.63,1.06-.87,2.23-1.61,3.29-2.49,1.19-.99,1.81-2.31,2.02-4.03-.93.69-1.71,1.27-2.48,1.85.55-1.5.96-2.92.45-4.61-2.1,2.62-4.11,5.14-6.14,7.66-.1-.06-.19-.12-.29-.18.86-1.7,1.62-3.45,2.62-5.08.91-1.49,2.08-2.84,3.14-4.25,1.06-1.42,1.53-2.97,1.22-4.93-.67.59-1.21,1.08-1.76,1.55-.53.46-1.06.9-1.59,1.36,1.08-3.22,1.53-6.39.95-9.8-2.5,2.06-4.2,4.5-5.11,7.63-.41-.53-.72-.94-1.04-1.35-.1,0-.19,0-.28.02-.34,1.9-.81,3.8-.99,5.73-.17,1.9-.04,3.84-.04,5.77-.08,0-.17.02-.26.03-.71-2.21-1.42-4.42-2.2-6.84-1.61,3.13-1.18,6.18-.55,9.28-.47-.06-.77-.1-1.33-.17.68,1.71,1.13,3.34,1.95,4.75.96,1.67,1.13,3.23.7,5.11-.5,2.16-.59,4.41-.86,6.62-.39-.75-.65-1.52-.89-2.29-1.17-3.63-2.24-7.29-2.37-11.14-.08-2.5.02-5,.03-7.49,0-1.56-.36-3.05-1.13-4.41-.17-.31-.42-.58-.64-.87-.08.02-.16.04-.24.06-.38,2.43-.76,4.85-1.14,7.29-.18-.17-.26-.35-.27-.52-.12-1.66-.33-3.32-.33-4.98,0-3.35-1.48-5.99-3.69-8.31-.12,0-.23.02-.35.04.17,2.14.35,4.3.53,6.61-.59-.36-.98-.6-1.47-.9.16,2.12,1.31,3.66,2.47,5.43-1.42-.61-2.63-1.14-3.83-1.66-.07.05-.13.1-.2.14.31.79.58,1.59.94,2.34,1,2.05,2.67,3.58,4.26,5.17.88.89,1.73,1.81,2.6,2.71-.03.02-.07.06-.1.08-1.93-.94-3.86-1.87-5.8-2.81-.05.08-.11.17-.17.26.69,2.18,1.99,3.96,3.72,5.42,1.59,1.33,3.14,2.78,3.85,4.72,1.29,3.49,2.33,7.08,3.46,10.62-.12.05-.25.09-.37.13-.5-1.26-1.01-2.52-1.52-3.78-.95-2.41-1.87-4.84-2.88-7.22-.55-1.3-1.61-2.07-3.03-2.42-.25,2.2,1.08,3.78,1.91,5.61-.47-.13-.8-.22-1.38-.39.58,1.08.99,1.99,1.52,2.82,2.36,3.73,4.76,7.44,7.15,11.16.33.51.7,1.01.96,1.55.12.22,0,.55,0,.83-.27-.07-.59-.05-.78-.21-.36-.31-.68-.68-.97-1.06-2.83-3.84-5.59-7.74-8.51-11.51-1.83-2.35-2.87-4.81-2.55-7.85.13-1.31-.23-2.66-.36-3.99-.12-.02-.22-.04-.33-.07-.16.26-.32.53-.56.93-1-3.11-1.17-6.34-3.9-8.43.19,2.15.39,4.3.59,6.45-1.72-3.4-2.9-7.1-5.88-9.87-.07.51-.11.89-.17,1.42-1.85-2.41-3.93-4.28-6.69-5.52.19,3.69,1.9,6.52,4.02,9.23-1.47-.72-2.92-1.44-4.51-2.22.31,1.77.93,3.17,2.28,4.14,1.69,1.22,3.43,2.37,5.1,3.6,1.05.77,2.03,1.65,3.03,2.48-.06.07-.11.14-.17.21-1.2-.64-2.38-1.33-3.63-1.9-1.23-.56-2.52-1-3.78-1.49-.09.12-.17.23-.26.36,1.03,1.37,2.06,2.73,3.09,4.09-1.37-.42-2.77-.85-4.31-1.33,1.56,3.01,3.76,4.84,6.85,5.64,5.7,1.47,10.29,4.6,13.95,9.17.14.17.24.38.49.77-7.58-5.26-12.19-7.23-15.14-6.46.22.26.41.5.62.74,1.81,2.09,4.14,3.49,6.52,4.84,2.64,1.5,5.34,2.93,7.83,4.65,1.96,1.37,3.65,3.13,5.46,4.71-.06.07-.12.15-.17.22-5.74-2.04-10.64-5.71-16.04-8.41-.05.07-.11.12-.16.19.8,1.23,1.61,2.44,2.42,3.67-.09.07-.17.15-.26.22-1.52-1.36-3.05-2.71-4.57-4.07-2.26-2.02-4.67-3.79-7.63-4.69-1.33-.41-2.69-.65-4.24-.46,1.84,1.47,3.56,2.82,5.27,4.18-.03.07-.07.14-.12.22-4.18-2.05-8.16-4.69-13.23-4.32,1.79,2.96,4.6,4.25,7.52,5.38-1.07.11-2.13.22-3.25.34,1.52,1.76,3.77,2.86,6,2.75,4.85-.26,9.51.55,14.04,2.17,1.52.54,3.05,1.03,4.58,1.53-.03.12-.06.26-.08.38-2.13-.36-4.26-.7-6.38-1.07-2.9-.51-5.78-1.1-8.69-1.47-1.08-.14-2.24.22-3.37.35,0,.13-.02.26-.02.39,2.37.79,4.74,1.58,7.27,2.42-4.16.12-8.24-.31-12.2,1.38,1.62,1.09,3.26,1.84,5.08,2.14,1.83.31,3.62,0,5.41-.49-.4.34-.8.68-1.29,1.11,2.01.37,3.76.16,5.42-.68,1.08-.54,2.1-1.23,3.22-1.7,1.05-.45,2.18-.69,3.28-1.02.04.11.08.22.12.33-2.36.84-4.15,2.4-5.73,4.48,2.61.15,4.89-.31,7.03-1.75-.07.41-.12.7-.2,1.16,1.03-.73,1.92-1.37,2.81-1.99,1.84-1.3,4.02-1.31,5.61,0-.17.23-.34.46-.52.68-3.06,3.78-4.39,8.05-3.67,12.9.45,3.06,1.41,5.84,3.92,7.88.46.38.77,1.01,1.05,1.57.74,1.52,1.85,2.63,3.48,3.1.88.26,1.41.76,1.85,1.51,1.39,2.33,3.4,3.87,6.01,4.65.69.21,1.13.05,1.51-.6.43-.75,1.01-1.42,1.53-2.12-.12,1.26-.43,2.39-.53,3.55-.11,1.38.53,2.1,2.01,2.54,1.23-1.68,2.16-3.68,4.31-4.77-.84,1.28-1.68,2.34-2.28,3.54-1.14,2.27-.44,4,1.81,5.15.58.3,1.13.82,1.49,1.37.9,1.37,2.03,2.37,3.62,2.84.43.12.84.43,1.16.75,1.47,1.47,2.91,3,4.38,4.48.24.23.58.46.9.51,1.86.28,3.14,1.45,4.32,2.77.19.21.45.37.69.51,2.48,1.47,4.97,2.93,7.45,4.38.27.16.56.26,1.04.48-.2-2.97-.33-5.78-.59-8.58-.22-2.44-.89-4.77-2.2-6.89-.22-.35-.17-.86-.27-1.29-.34-1.45-.44-3.03-1.11-4.31-.87-1.65-1.59-3.23-1.89-5.11-.3-1.85-1.43-3.51-1.55-5.46-.03-.69-.47-1.35-.5-2.03-.07-1.82-.72-3.41-1.59-4.98-.36-.64-.5-1.41-.65-2.14-.3-1.43-.52-2.88-.79-4.31-.17-.9-.39-1.79-.55-2.69-.26-1.6-.31-3.27-.79-4.8-1.85-5.9-5.64-10.03-11.58-12-1.06-.36-2.19-.51-3.29-.76-.04-.08-.07-.17-.11-.27,1.11-.66,2.18-1.43,3.35-1.97,1.56-.73,3.11-.55,4.5.55.65.52,1.37.97,2.18,1.53-.09-.55-.14-.91-.22-1.43,2.04,1.5,4.15,2.37,6.71,2.18-1.31-2.08-2.81-3.78-4.89-4.98,1.08.32,2.12.72,3.06,1.28,1.15.69,2.2,1.54,3.32,2.29,1.33.88,2.82,1.09,4.5.86-.29-.36-.5-.62-.9-1.13,3.06,1.24,5.77.84,8.54-.52-3.49-2.32-7.44-2.35-11.27-3.03,1.8-.39,3.6-.78,5.41-1.17-6.05-2.74-11.96-.62-17.92.19.33-.23.68-.42,1.03-.58,3.68-1.62,7.52-2.53,11.57-2.24,1.69.12,3.37.37,5.06.55,1.93.21,3.56-.44,5.1-1.81-1.16-.24-2.18-.45-3.46-.72,2.95-.81,5.62-1.62,7.4-4.21ZM83.28,104.38c-.88-.25-1.65-.44-2.39-.68-.55-.17-1.04-.45-.73-1.17.3-.68.84-.74,1.42-.41.86.48,1.54,1.12,1.71,2.25ZM75.05,75.91c-1.32.12-2.42.22-3.51.31,0,.04,0,.08-.02.12.89.28,1.77.54,2.65.84,1.23.43,1.71,1.18,1.69,2.65h-3.95c0,.08,0,.16-.02.23.75.13,1.51.23,2.24.41,1.19.3,2.26.77,2.52,2.17.1.53,0,.84-.61.94-.91.14-1.81.38-2.87.61,4.55.61,4.98,2.24,5.08,4.56-.65.12-1.33.23-2.01.34-.68.11-1.36.2-2.04.49.57.1,1.15.19,1.72.3,1.85.32,3.4,1.23,4.09,2.98,1.05,2.7,1.86,5.49,2.83,8.44-2.67-1.6-3.06-1.66-6.1-1.09.49-1.39,1.53-2.14,2.91-2.82-.82-.41-1.52-.75-2.32-1.15.53-.46.97-.84,1.52-1.31-2.8-.8-4.66.97-6.74,2.04.22-1.26.95-2.2,3.13-4.04-2.43-1.32-4.59-.46-6.72.66-.12-1.96,1.66-3.84,5.45-5.84-1.56-1.29-4.31-1.2-7.48.24.43-1.37,1.24-1.97,6.11-4.61-3.15-.63-6.04-.14-9.03,1.2.84-2.53,2.62-3.87,4.97-5-4.54-1.44-8.45-.37-12.31,1.59,3.44-4.48,7.6-7.79,13.55-7.99,1.51-.05,3.02.21,4.18,1.36.35.36.63.78,1.1,1.36ZM61.18,51.46c4.64.97,7.63,4.04,9.85,8.32-3.09-.72-5.86-.37-8.5.96,2.79-.31,5.5-.12,8.08,1.08,1.32.61,1.72,1.28,1.63,2.92-.43-.12-.84-.26-1.24-.38-.41-.12-.83-.26-1.46-.45,2.29,2.05,3.75,4.29,3.97,7.33-1.37-.21-2.6-.46-3.83-.56-3.28-.26-6.34.59-9.33,1.85-.97.41-1.95.8-2.95,1.14-.65.22-1.4.31-1.81-.4-.41-.7-.04-1.32.51-1.77,1.41-1.15,2.83-2.28,4.23-3.39-3-.55-5.9,0-8.65,1.56,1.67-2.33,3.92-3.91,6.48-5.14-.8-.5-2.23-.6-4.04-.17-1.37.32-2.74.69-4.04,1.21-1.3.52-2.5,1.27-3.73,1.9.89-4.34,9.94-10.14,17.61-11.38-7.21-1.76-13.52.53-19.62,4.65,1.1-2.07,2.3-3.82,3.88-5.26,3.68-3.35,7.95-5.06,12.95-4.01Z" fill="#171717" stroke-width="0"/>
    <path d="M57.97,35.89c.28-.43.44-.66.6-.9,2.63-4.1,5.35-8.14,8.86-11.56,1.67-1.63,3.53-3.05,5.3-4.57,2.18-1.87,2.92-4.55,1.9-7.18-3.33,3.49-7.07,6.44-9.76,10.68.14-1.92.27-3.56.4-5.37-3.55,3.07-4.73,6.92-4.95,11.23-.43-.91-.87-1.82-1.36-2.85-1.59,3.44-1.36,6.86-.98,10.52Z" fill="#171717" stroke-width="0"/>
  </g>
  <g>
    <path d="M140.31,97.93c1.18.18,1.9.8,1.82,1.88-.08,1.56-1.46,2.46-3.56,2.46h-2.35v-.06c.27-.1.48-.39.54-.81l1.03-5.81c.08-.45-.02-.67-.25-.81v-.06h2.59c1.65,0,2.35.5,2.3,1.43-.06,1-.88,1.62-2.12,1.78ZM139.42,97.99h-1.02l-.73,4.14h.82c1.57,0,2.44-.88,2.54-2.49.08-1.11-.57-1.65-1.62-1.65ZM139.71,94.85h-.75l-.53,3.01h1.02c1.2,0,1.8-.66,1.87-1.71.08-1.1-.63-1.3-1.61-1.3Z" fill="#171717" stroke-width="0"/>
    <path d="M147.82,97.06l-.46.74h-.03c-.17-.35-.39-.49-.69-.49-.82,0-1.32.94-1.61,1.91l-.39,2.25c-.06.33,0,.63.22.74v.06h-1.71v-.06c.27-.11.43-.4.49-.74l.56-3.18c.08-.47-.05-.66-.27-.89v-.04c.57-.08.99-.23,1.43-.5h.05l-.37,2.14c.36-1.02.92-2.27,1.97-2.27.39,0,.64.16.81.34Z" fill="#171717" stroke-width="0"/>
    <path d="M152.44,100.99l.03.04c-.52.77-1.29,1.31-2.28,1.31-1.28,0-2.16-.79-2.16-2.17,0-1.86,1.38-3.45,3.17-3.45,1.02,0,1.57.52,1.57,1.23,0,1.41-1.89,1.96-3.59,2.25.08.93.6,1.59,1.52,1.59.58,0,1.2-.2,1.73-.8ZM149.16,99.9v.22c1.6-.35,2.79-1.08,2.79-2.41,0-.57-.27-.87-.79-.87-1.14,0-2,1.71-2,3.06Z" fill="#171717" stroke-width="0"/>
    <path d="M159.17,101.54l.02.02c-.29.54-.62.79-1.1.79-.56,0-.87-.42-.74-1.23l.16-.83c-.64,1.19-1.46,2.05-2.36,2.05s-1.38-.65-1.38-1.73c0-1.97,1.46-3.89,3.24-3.89.47,0,.94.17,1.23.56l.84-.4h.03l-.78,4.44c-.06.35-.02.6.31.6.18,0,.35-.11.52-.37h.01ZM157.98,97.65c-.05-.52-.39-.78-.88-.78-1.18,0-2.24,2.1-2.24,3.81,0,.75.26,1.12.74,1.12.68,0,1.4-.76,1.97-1.83l.41-2.31Z" fill="#171717" stroke-width="0"/>
    <path d="M165.27,101.54l.02.02c-.32.6-.67.78-1.15.78-.57,0-.84-.37-1.12-1.04l-.62-1.41c1.32-.47,2.27-1.18,2.27-2.03,0-.33-.15-.54-.43-.54-.72,0-1.75,1.27-2.39,2.19l-.35,1.97c-.05.29-.03.61.25.72v.06h-1.77v-.06c.29-.13.46-.42.51-.72l1.03-5.77c.06-.38-.05-.66-.3-.89v-.05c.62-.09,1.03-.22,1.5-.49h.05l-.87,4.98c.79-1.06,2.05-2.54,3.02-2.54.48,0,.73.21.73.61,0,.7-.96,1.76-2.31,2.33l.8,1.75c.1.21.27.54.54.54.19,0,.37-.13.6-.42h0Z" fill="#171717" stroke-width="0"/>
    <path d="M166.72,100.9l.46-2.64c.07-.45-.05-.66-.27-.89v-.05c.59-.09,1.02-.22,1.48-.49h.04l-.77,4.38c-.09.53.05.7.3.7.19,0,.37-.11.54-.37h0l.02.03c-.3.55-.63.78-1.12.78-.56,0-.87-.47-.69-1.44ZM167.56,95.19c0-.36.32-.72.74-.72.31,0,.56.25.56.59,0,.36-.32.72-.73.72-.32,0-.57-.26-.57-.59Z" fill="#171717" stroke-width="0"/>
    <path d="M175.24,101.53l.02.03c-.3.55-.63.78-1.12.78-.55,0-.88-.45-.71-1.44l.38-2.14c.16-.95,0-1.5-.58-1.5-.75,0-1.68,1.12-1.98,1.97l-.39,2.24c-.05.33,0,.63.23.74v.06h-1.72v-.06c.27-.12.44-.4.49-.74l.56-3.18c.08-.47-.06-.67-.27-.89v-.04c.58-.09.99-.23,1.43-.5h.05l-.35,2.03c.5-.98,1.42-2.17,2.53-2.17.98,0,1.21.85,1,2.12l-.43,2.37c-.09.52.06.7.31.7.17,0,.36-.1.54-.37h0Z" fill="#171717" stroke-width="0"/>
    <path d="M180.74,102.13c-.3,1.66-1.37,2.29-2.62,2.29-1.03,0-1.72-.71-1.95-1.45l.04-.04h.01c.19.52.73.96,1.66.96.85,0,1.54-.4,1.75-1.52l.38-1.92c-.62,1.11-1.38,1.89-2.25,1.89s-1.4-.61-1.4-1.68c0-2.17,1.46-3.94,3.24-3.94.47,0,.94.17,1.24.56l.84-.4h.03l-.96,5.26ZM180.07,100.14l.49-2.51c-.05-.5-.39-.76-.87-.76-1.18,0-2.24,1.96-2.24,3.7,0,.85.24,1.22.76,1.22.63,0,1.31-.64,1.87-1.66Z" fill="#171717" stroke-width="0"/>
    <path d="M185.9,100.9l.91-5.2c.08-.45-.04-.66-.27-.89v-.05c.6-.09,1.03-.22,1.48-.5h.05l-1.23,6.95c-.09.52.05.7.3.7.18,0,.36-.09.55-.37h0v.03c-.28.55-.62.78-1.07.78-.58,0-.91-.45-.74-1.44Z" fill="#171717" stroke-width="0"/>
    <path d="M189.1,100.9l.46-2.64c.07-.45-.05-.66-.27-.89v-.05c.59-.09,1.02-.22,1.48-.49h.04l-.77,4.38c-.09.53.05.7.3.7.19,0,.37-.11.54-.37h0l.02.03c-.3.55-.63.78-1.12.78-.56,0-.87-.47-.69-1.44ZM189.94,95.19c0-.36.32-.72.74-.72.31,0,.56.25.56.59,0,.36-.32.72-.73.72-.32,0-.57-.26-.57-.59Z" fill="#171717" stroke-width="0"/>
    <path d="M197.62,101.53l.02.03c-.3.55-.63.78-1.12.78-.55,0-.88-.45-.71-1.44l.38-2.14c.16-.95,0-1.5-.58-1.5-.75,0-1.68,1.12-1.98,1.97l-.39,2.24c-.05.33,0,.63.23.74v.06h-1.72v-.06c.27-.12.44-.4.49-.74l.56-3.18c.08-.47-.06-.67-.27-.89v-.04c.58-.09.99-.23,1.43-.5h.05l-.35,2.03c.5-.98,1.42-2.17,2.53-2.17.98,0,1.21.85,1,2.12l-.43,2.37c-.09.52.06.7.31.7.17,0,.36-.1.54-.37h0Z" fill="#171717" stroke-width="0"/>
    <path d="M203.19,100.99l.03.04c-.52.77-1.29,1.31-2.28,1.31-1.28,0-2.16-.79-2.16-2.17,0-1.86,1.38-3.45,3.17-3.45,1.02,0,1.57.52,1.57,1.23,0,1.41-1.89,1.96-3.59,2.25.08.93.6,1.59,1.52,1.59.58,0,1.2-.2,1.73-.8ZM199.91,99.9v.22c1.6-.35,2.79-1.08,2.79-2.41,0-.57-.27-.87-.79-.87-1.14,0-2,1.71-2,3.06Z" fill="#171717" stroke-width="0"/>
    <path d="M204.11,101.69l.52-.84h.05c.05.52.5,1.36,1.34,1.36.73,0,1.28-.52,1.28-1.08,0-.63-.46-.91-1.09-1.3-.55-.35-1.19-.71-1.19-1.5,0-.92.9-1.61,2.26-1.61.7,0,1.25.24,1.59.56l-.51.86h-.04c-.06-.52-.32-1.29-1.07-1.29s-1.25.51-1.25,1.08c0,.5.31.74,1.03,1.17.65.39,1.25.77,1.25,1.53,0,1.06-1.07,1.71-2.32,1.71-.76,0-1.45-.25-1.85-.65Z" fill="#171717" stroke-width="0"/>
    <path d="M209.62,101.76c0-.4.32-.74.78-.74.38,0,.65.26.65.6,0,.41-.31.76-.77.76-.39,0-.66-.29-.66-.62Z" fill="#171717" stroke-width="0"/>
    <path d="M219.26,97.93c1.18.18,1.9.8,1.82,1.88-.08,1.56-1.46,2.46-3.56,2.46h-2.35v-.06c.27-.1.48-.39.54-.81l1.03-5.81c.08-.45-.02-.67-.25-.81v-.06h2.59c1.65,0,2.35.5,2.3,1.43-.06,1-.88,1.62-2.12,1.78ZM218.37,97.99h-1.02l-.73,4.14h.82c1.57,0,2.44-.88,2.54-2.49.08-1.11-.57-1.65-1.62-1.65ZM218.66,94.85h-.75l-.53,3.01h1.02c1.2,0,1.8-.66,1.87-1.71.08-1.1-.63-1.3-1.61-1.3Z" fill="#171717" stroke-width="0"/>
    <path d="M227.89,101.53v.03c-.31.55-.63.78-1.08.78-.54,0-.87-.43-.71-1.36l.16-.83c-.49.97-1.4,2.19-2.52,2.19-1.04,0-1.21-.91-1-2.11l.34-1.94c.07-.47-.06-.67-.28-.89v-.05c.56-.08,1.03-.22,1.49-.5h.04l-.61,3.45c-.17.95-.02,1.5.57,1.5.74,0,1.61-.98,1.94-1.82l.5-2.86,1.02-.28h.04l-.77,4.36c-.09.52.07.7.32.7.18,0,.36-.13.53-.37h0Z" fill="#171717" stroke-width="0"/>
    <path d="M229.27,100.9l.46-2.64c.07-.45-.05-.66-.27-.89v-.05c.59-.09,1.02-.22,1.48-.49h.04l-.77,4.38c-.09.53.05.7.3.7.19,0,.37-.11.54-.37h0l.02.03c-.3.55-.63.78-1.12.78-.56,0-.87-.47-.69-1.44ZM230.11,95.19c0-.36.32-.72.74-.72.31,0,.56.25.56.59,0,.36-.32.72-.73.72-.32,0-.57-.26-.57-.59Z" fill="#171717" stroke-width="0"/>
    <path d="M232.4,100.9l.91-5.2c.08-.45-.04-.66-.27-.89v-.05c.6-.09,1.03-.22,1.48-.5h.05l-1.23,6.95c-.09.52.05.7.3.7.18,0,.36-.09.55-.37h0v.03c-.28.55-.62.78-1.07.78-.58,0-.91-.45-.74-1.44Z" fill="#171717" stroke-width="0"/>
    <path d="M240.88,101.53l.02.03c-.3.55-.63.78-1.1.78s-.74-.3-.74-.91c0-.17.1-.79.21-1.41-.7,1.38-1.62,2.32-2.55,2.32-.87,0-1.35-.62-1.35-1.68,0-2.03,1.32-3.94,3.21-3.94.42,0,.85.11,1.2.43.17-.95.27-1.56.27-1.7,0-.31-.12-.47-.3-.65v-.04c.59-.11,1.02-.21,1.48-.5h.05c-.81,4.59-1.27,7.09-1.27,7.27,0,.25.13.37.32.37.23,0,.35-.11.53-.37h0ZM239.69,97.68c-.09-.45-.48-.81-1.01-.81-1.39,0-2.23,2.22-2.23,3.76,0,.8.28,1.17.75,1.17.73,0,1.52-.87,2.15-2.21l.34-1.91Z" fill="#171717" stroke-width="0"/>
    <path d="M242.28,100.9l.46-2.64c.07-.45-.05-.66-.27-.89v-.05c.59-.09,1.02-.22,1.48-.49h.04l-.77,4.38c-.09.53.05.7.3.7.19,0,.37-.11.54-.37h0l.02.03c-.3.55-.63.78-1.12.78-.56,0-.87-.47-.69-1.44ZM243.12,95.19c0-.36.32-.72.74-.72.31,0,.56.25.56.59,0,.36-.32.72-.73.72-.32,0-.57-.26-.57-.59Z" fill="#171717" stroke-width="0"/>
    <path d="M250.8,101.53l.02.03c-.3.55-.63.78-1.12.78-.55,0-.88-.45-.71-1.44l.38-2.14c.16-.95,0-1.5-.58-1.5-.75,0-1.68,1.12-1.98,1.97l-.39,2.24c-.05.33,0,.63.23.74v.06h-1.72v-.06c.27-.12.44-.4.49-.74l.56-3.18c.08-.47-.06-.67-.27-.89v-.04c.58-.09.99-.23,1.43-.5h.05l-.35,2.03c.5-.98,1.42-2.17,2.53-2.17.98,0,1.21.85,1,2.12l-.43,2.37c-.09.52.06.7.31.7.17,0,.36-.1.54-.37h0Z" fill="#171717" stroke-width="0"/>
    <path d="M256.3,102.13c-.3,1.66-1.37,2.29-2.62,2.29-1.03,0-1.72-.71-1.95-1.45l.04-.04h.01c.19.52.73.96,1.66.96.85,0,1.54-.4,1.75-1.52l.38-1.92c-.62,1.11-1.38,1.89-2.25,1.89s-1.4-.61-1.4-1.68c0-2.17,1.46-3.94,3.24-3.94.47,0,.94.17,1.24.56l.84-.4h.03l-.96,5.26ZM255.63,100.14l.49-2.51c-.05-.5-.39-.76-.87-.76-1.18,0-2.24,1.96-2.24,3.7,0,.85.24,1.22.76,1.22.63,0,1.31-.64,1.87-1.66Z" fill="#171717" stroke-width="0"/>
    <path d="M265.99,96.92s-.02.16-.04.29c-.05.29-.1.49-.19.74-.49,1.39-1.47,2.81-2.75,4.32h-.88l-.59-4.47c-.05-.44-.16-.62-.46-.82v-.06h1.95v.06c-.45.17-.55.4-.49.91l.49,4.15c1.05-1.25,1.92-2.84,2.17-4.26.04-.26.07-.51.07-.86h.72Z" fill="#171717" stroke-width="0"/>
    <path d="M266.91,100.9l.46-2.64c.07-.45-.05-.66-.27-.89v-.05c.59-.09,1.02-.22,1.48-.49h.04l-.77,4.38c-.09.53.05.7.3.7.19,0,.37-.11.54-.37h0l.02.03c-.3.55-.63.78-1.12.78-.56,0-.87-.47-.69-1.44ZM267.75,95.19c0-.36.32-.72.74-.72.31,0,.56.25.56.59,0,.36-.32.72-.73.72-.32,0-.57-.26-.57-.59Z" fill="#171717" stroke-width="0"/>
    <path d="M269.45,101.69l.52-.84h.05c.05.52.5,1.36,1.34,1.36.73,0,1.28-.52,1.28-1.08,0-.63-.46-.91-1.09-1.3-.55-.35-1.19-.71-1.19-1.5,0-.92.9-1.61,2.26-1.61.7,0,1.25.24,1.59.56l-.51.86h-.04c-.06-.52-.32-1.29-1.07-1.29s-1.25.51-1.25,1.08c0,.5.31.74,1.03,1.17.65.39,1.25.77,1.25,1.53,0,1.06-1.07,1.71-2.32,1.71-.76,0-1.45-.25-1.85-.65Z" fill="#171717" stroke-width="0"/>
    <path d="M275.28,100.9l.46-2.64c.07-.45-.05-.66-.27-.89v-.05c.59-.09,1.02-.22,1.48-.49h.04l-.77,4.38c-.09.53.05.7.3.7.19,0,.37-.11.54-.37h0l.02.03c-.3.55-.63.78-1.12.78-.56,0-.87-.47-.69-1.44ZM276.12,95.19c0-.36.32-.72.74-.72.31,0,.56.25.56.59,0,.36-.32.72-.73.72-.32,0-.57-.26-.57-.59Z" fill="#171717" stroke-width="0"/>
    <path d="M278.27,100.17c0-1.76,1.39-3.45,3.15-3.45,1.3,0,2.15.87,2.15,2.19,0,1.76-1.38,3.43-3.14,3.43-1.32,0-2.16-.84-2.16-2.17ZM282.54,98.43c0-.99-.45-1.58-1.15-1.58-1.24,0-2.11,2.32-2.11,3.8,0,1,.47,1.57,1.16,1.57,1.25,0,2.1-2.3,2.1-3.79Z" fill="#171717" stroke-width="0"/>
    <path d="M290.29,101.53l.02.03c-.3.55-.63.78-1.12.78-.55,0-.88-.45-.71-1.44l.38-2.14c.16-.95,0-1.5-.58-1.5-.75,0-1.68,1.12-1.98,1.97l-.39,2.24c-.05.33,0,.63.23.74v.06h-1.72v-.06c.27-.12.44-.4.49-.74l.56-3.18c.08-.47-.06-.67-.27-.89v-.04c.58-.09.99-.23,1.43-.5h.05l-.35,2.03c.5-.98,1.42-2.17,2.53-2.17.98,0,1.21.85,1,2.12l-.43,2.37c-.09.52.06.7.31.7.17,0,.36-.1.54-.37h0Z" fill="#171717" stroke-width="0"/>
    <path d="M290.99,101.69l.52-.84h.05c.05.52.5,1.36,1.34,1.36.73,0,1.28-.52,1.28-1.08,0-.63-.46-.91-1.09-1.3-.55-.35-1.19-.71-1.19-1.5,0-.92.9-1.61,2.26-1.61.7,0,1.25.24,1.59.56l-.51.86h-.04c-.06-.52-.32-1.29-1.07-1.29s-1.25.51-1.25,1.08c0,.5.31.74,1.03,1.17.65.39,1.25.77,1.25,1.53,0,1.06-1.07,1.71-2.32,1.71-.76,0-1.45-.25-1.85-.65Z" fill="#171717" stroke-width="0"/>
    <path d="M296.49,101.76c0-.4.32-.74.78-.74.38,0,.65.26.65.6,0,.41-.31.76-.77.76-.39,0-.66-.29-.66-.62Z" fill="#171717" stroke-width="0"/>
  </g>
</svg>