<?xml version="1.0" encoding="UTF-8"?>
<svg id="Layer_1" data-name="Layer 1" xmlns="http://www.w3.org/2000/svg" viewBox="0 0 493 89.5">
  <path d="M483.63,6.7l.37-.19h-1.05c-14.65,0-29.3.02-43.95,0-3.81,10.89-7.1,21.94-9.71,33.19-.02.09-.04.17-.05.24h0s0,.03,0,.03c-.02.08-.03.15-.04.21l-.13.65h14.99c-5.1,7-9.36,14.29-12.79,22.04-3.45,7.77-6.04,15.81-7.66,24.2,11.61-20.05,27.57-35.49,47.91-46.33h-27.37c10.72-14.4,23.86-25.71,39.5-34.07Z" fill="#171717" stroke-width="0"/>
  <g>
    <path d="M272.05,30.56c-2.49-2.45-5.4-4.4-8.73-5.84-3.33-1.45-6.88-2.17-10.65-2.17s-7.33.72-10.66,2.17c-3.33,1.45-6.22,3.39-8.67,5.84-2.45,2.45-4.4,5.34-5.84,8.67-1.44,3.33-2.17,6.88-2.17,10.65s.73,7.33,2.17,10.66c1.45,3.33,3.39,6.24,5.84,8.73,2.45,2.49,5.34,4.46,8.67,5.9,3.33,1.45,6.88,2.17,10.66,2.17s7.32-.72,10.65-2.17c3.33-1.44,6.24-3.41,8.73-5.9,2.49-2.49,4.46-5.4,5.91-8.73,1.44-3.33,2.17-6.88,2.17-10.66s-.73-7.32-2.17-10.65c-1.45-3.33-3.42-6.22-5.91-8.67ZM274.52,60.3c-1.24,3.25-2.93,6.1-5.06,8.55-2.13,2.45-4.64,4.38-7.52,5.78-2.89,1.41-5.98,2.11-9.27,2.11s-6.37-.7-9.21-2.11c-2.85-1.4-5.34-3.33-7.47-5.78-2.13-2.45-3.81-5.3-5.06-8.55-1.24-3.25-1.87-6.72-1.87-10.41s.62-7.16,1.87-10.41c1.24-3.25,2.93-6.08,5.06-8.48,2.13-2.41,4.61-4.31,7.47-5.72,2.84-1.4,5.91-2.1,9.21-2.1s6.38.7,9.27,2.1c2.88,1.41,5.4,3.31,7.52,5.72,2.13,2.41,3.81,5.24,5.06,8.48,1.24,3.26,1.87,6.73,1.87,10.41s-.62,7.17-1.87,10.41Z" fill="#171717" stroke-width="0"/>
    <polygon points="257.84 6.07 247.49 17.38 247.49 17.98 257.72 13.05 257.84 6.07" fill="#171717" stroke-width="0"/>
    <path d="M21.47,39.2V10.87c0-9.09,4.37-9.09,6.5-9.09H4.95c1.06,0,2.71,0,4.01,1.18,1.42,1.06,2.48,3.43,2.48,7.91v56.54c0,9.21-4.37,9.21-6.49,9.21h46.27v-6.14s-19.71,5.43-29.75,5.43v-36.71Z" fill="#171717" stroke-width="0"/>
    <path d="M82.19,25.51h-1.18c-6.61,0-9.8,1.3-12.99,3.31-8.15,4.37-13.34,12.75-13.34,22.31,0,14.05,11.45,25.5,26.8,25.5,9.21,0,14.87-2.36,19.95-5.9l-.12-7.44c-3.07,3.19-8.85,11.45-19.83,11.45-6.97,0-12.99-3.19-15.46-12.63,0-.12,3.19-11.33,17.83-11.33s24.2,2.72,24.2-8.15c0-8.03-8.15-17.12-25.85-17.12ZM83.85,49.23c-13.58,0-17.35,8.15-18.3,10.98-.59-2.72-.83-5.78-.83-9.09,0-17.12,7.32-23.61,16.53-23.73.35,0,.71,0,.94.12v-.12c10.98,0,16.05,8.26,16.05,14.87,0,6.02-.47,6.96-14.4,6.96Z" fill="#171717" stroke-width="0"/>
    <path d="M165.42,70.13v-22.19c0-18.06-15.46-22.9-22.67-22.43-7.44.47-12.87,5.43-14.99,8.03v-8.03l-13.93,2.36s3.9-.71,3.9,6.61v35.53c0,6.61-4.37,6.61-6.49,6.61h23.02c-2.12,0-6.49,0-6.49-6.61v-34.47c1.53-1.89,7.08-8.03,14.99-8.5,10.98-.71,12.63,9.92,12.63,21.37v21.72c0,6.49-4.01,6.49-6.49,6.49h23.14c-2.24,0-6.61,0-6.61-6.49Z" fill="#171717" stroke-width="0"/>
    <path d="M211.93,25.51h-35.18v7.79c9.56-4.25,27.62-6.14,31.64-6.26l-31.64,49.58h44.5v-7.79c-9.44,4.25-27.51,6.14-31.64,6.26l31.64-49.58h-9.33Z" fill="#171717" stroke-width="0"/>
    <path d="M338.75,70.13v-22.19c0-18.06-15.46-22.9-22.67-22.43-7.44.47-12.87,5.43-14.99,8.03v-8.03l-13.93,2.36s3.9-.71,3.9,6.61v35.53c0,6.61-4.37,6.61-6.49,6.61h23.02c-2.12,0-6.49,0-6.49-6.61v-34.47c1.53-1.89,7.08-8.03,14.99-8.5,10.98-.71,12.63,9.92,12.63,21.37v21.72c0,6.49-4.01,6.49-6.49,6.49h23.14c-2.24,0-6.61,0-6.61-6.49Z" fill="#171717" stroke-width="0"/>
    <path d="M376.81,50.77c13.93,0,24.2,2.72,24.2-8.15,0-8.03-8.15-17.12-25.85-17.12h-1.18c-6.61,0-9.8,1.3-12.99,3.31-8.15,4.37-13.34,12.75-13.34,22.31,0,14.05,11.45,25.5,26.8,25.5,9.21,0,14.87-2.36,19.95-5.9l-.12-7.44c-3.07,3.19-8.85,11.45-19.83,11.45-6.96,0-12.99-3.19-15.46-12.63,0-.12,3.19-11.33,17.83-11.33ZM358.51,60.21c-.59-2.72-.83-5.78-.83-9.09,0-17.12,7.32-23.61,16.53-23.73.35,0,.71,0,.94.12v-.12c10.98,0,16.05,8.26,16.05,14.87,0,6.02-.47,6.96-14.4,6.96s-17.35,8.15-18.3,10.98Z" fill="#171717" stroke-width="0"/>
  </g>
</svg>