<?xml version="1.0" encoding="UTF-8"?>
<svg id="Layer_1" data-name="Layer 1" xmlns="http://www.w3.org/2000/svg" viewBox="0 0 706 90">
  <g>
    <path d="M52.88,8.5c4.69.31,9.39,2.45,12.23,7.44,7.72,13.59,15.44,27.18,22.87,40.92,3.99,7.38,1.02,16.49-6.14,20.43-7.68,4.23-17,1.94-21.37-5.68-7.65-13.34-15.2-26.75-22.46-40.3-5.68-10.6,2.03-22.96,14.87-22.8Z" fill="#171717" stroke-width="0"/>
    <path d="M98.84,9.39c4.69.31,9.39,2.45,12.23,7.44,7.72,13.59,15.44,27.18,22.87,40.92,3.99,7.38,1.02,16.49-6.14,20.43-7.68,4.23-17,1.94-21.37-5.68-7.65-13.34-15.2-26.75-22.46-40.3-5.68-10.6,2.03-22.96,14.87-22.8Z" fill="#171717" stroke-width="0"/>
    <path d="M13.19,62.16c.21-8.68,7.14-15.3,15.86-15.12,8.81.18,15.53,7.26,15.28,16.13-.24,8.56-7.41,15.2-16.1,14.9-8.75-.3-15.24-7.16-15.03-15.91Z" fill="#171717" stroke-width="0"/>
    <path d="M125.82,25.33c.21-8.68,7.14-15.3,15.86-15.12,8.81.18,15.53,7.26,15.28,16.13-.24,8.56-7.41,15.2-16.1,14.9-8.75-.3-15.24-7.16-15.03-15.91Z" fill="#171717" stroke-width="0"/>
  </g>
  <g>
    <path d="M204.48,10.25l13.17,36.98c2.63,7.73,2.63,12.65,2.63,14.58h2.63c0-1.93,0-6.85,2.63-14.58l13.17-36.98h12.56l7.47,70.26h-13.88l-3.43-41.63c-.35-4.04,3.34-4.39,2.99-8.52l-1.76-1.14-5.01,14.32-9.22,27.93h-13.88l-9.05-27.75-5.01-14.4-1.76,1.14c-.35,4.13,3.34,4.48,2.99,8.52l-3.43,41.54h-13.88l7.38-70.26h12.65Z" fill="#171717" stroke-width="0"/>
    <path d="M315.77,10.25v11.33h-36.98v13.7h28.19v11.24h-28.19v22.75h37.86v11.24h-51.73V10.25h50.85Z" fill="#171717" stroke-width="0"/>
    <path d="M385.68,40.9v15.28l3.25,24.33h-6.67l-4.3-11.07c-1.23-3.07,1.49-4.13.26-7.2l-1.58-.53-2.2,7.99c-3.43,6.85-9.22,12.21-18.79,12.21-21.52,0-36.36-15.02-36.36-36.54,0-22.84,15.9-36.54,35.66-36.54,12.47,0,24.42,7.55,30.48,18.97l-12.91,2.99c-3.6-6.76-10.98-10.63-18.01-10.63-11.51,0-21.34,10.45-21.34,25.21s9.84,25.56,21.34,25.56,17.48-7.29,19.15-14.41v-6.15h-19.76l-.09-9.49h31.88Z" fill="#171717" stroke-width="0"/>
    <path d="M454.29,80.51h-14.93l-4.3-13.09h-24.15l-4.3,13.09h-14.93l25.3-70.26h12.12l25.21,70.26ZM431.98,57.94l-6.32-20.2c-1.76-5.62-1.76-9.05-1.76-10.36h-1.76c0,1.32,0,4.74-1.76,10.36l-6.41,20.2h18.01Z" fill="#171717" stroke-width="0"/>
    <path d="M456.93,63.65l12.91-2.9c3.69,4.22,10.19,9.4,19.15,9.4s14.32-3.43,14.32-8.08c0-14.67-42.86-8.52-42.86-33.29,0-12.82,12.03-19.85,25.38-19.85,16.34,0,26.09,6.59,30.48,19.32l-12.91,1.67c-1.84-5.27-7.55-9.4-17.48-9.4-5.97,0-11.68,3.16-11.68,9.4,0,13.09,42.95,9.66,42.95,29.95,0,14.32-11.77,22.05-28.19,22.05-14.84,0-25.91-7.03-32.06-18.27Z" fill="#171717" stroke-width="0"/>
    <path d="M520.7,45.29c0-23.01,15.37-36.45,34.34-36.45s33.99,13.44,33.99,36.45-15.37,36.63-33.99,36.63-34.34-13.35-34.34-36.63ZM575.15,45.29c0-16.51-8.96-25.21-20.29-25.21s-20.29,8.08-20.29,25.21,8.96,25.3,20.29,25.3,20.29-8.17,20.29-25.3Z" fill="#171717" stroke-width="0"/>
    <path d="M644.37,10.25v11.33h-34.34v14.14h27.23v11.33l-27.23.09v33.38h-13.88V10.25h48.22Z" fill="#171717" stroke-width="0"/>
    <path d="M698.39,10.25v11.33h-18.97v58.93h-13.88V21.58h-18.97v-11.33h51.82Z" fill="#171717" stroke-width="0"/>
  </g>
</svg>