<?xml version="1.0" encoding="UTF-8"?>
<svg id="Layer_1" data-name="Layer 1" xmlns="http://www.w3.org/2000/svg" viewBox="0 0 308 89.5">
  <path d="M80.45,49.74v-13.98s10.58,0,10.58,0v-13.01s-10.66,0-10.66,0v-10.69s-12.99,0-12.99,0v10.69s-10.65,0-10.65,0c-.11-13.79-11.29-22.19-25.95-22.19-13.51,0-24.8,7.83-24.8,20.1,0,9.85,6.57,16.52,19.59,20l9.34,2.51c6.37,1.74,8.68,4.07,8.68,7.54,0,4.54-4.25,7.34-11.29,7.34-2.82.23-5.61-.64-7.8-2.43-2.19-1.78-3.61-4.35-3.97-7.15H4.45c1.33,13.82,11.99,22.14,27.84,22.14,15.63,0,27.2-8.69,27.2-20.67,0-9.47-5.5-15.75-17.66-19.32l-11.48-3.38c-5.88-1.74-8.49-3.58-8.49-7.15,0-3.57,2.8-7.15,8.88-7.15,1.31-.1,2.63.09,3.87.55,1.23.46,2.35,1.19,3.28,2.12.93.94,1.64,2.07,2.09,3.31.45,1.24.62,2.56.51,3.88h16.17s0,13.01,0,13.01h10.66s.03,0,.03,0v13.95s0,2.94,0,2.94c0,11.01,6.18,16.91,17.75,16.91,2.8.06,5.61-.1,8.38-.48v-11.98h-4.64c-6.12,0-8.24-1.87-8.45-7.39" fill="#171717" stroke-width="0"/>
  <path d="M117.15,1.52h-14.47s0,12.85,0,12.85h14.47s0-12.85,0-12.85Z" fill="#171717" stroke-width="0"/>
  <path d="M135.48,1.52h-14.47s0,12.85,0,12.85h14.47s0-12.85,0-12.85Z" fill="#171717" stroke-width="0"/>
  <path d="M127.56,46.54c0,8.13-3.76,11.79-8.88,11.79s-8.2-3.19-8.2-10.63v-24.95s-14.47,0-14.47,0v25.89c0,13.91,6.46,21.93,17.86,21.93,2.77.2,5.55-.36,8.03-1.62,2.48-1.26,4.57-3.17,6.05-5.52v6.18h14.09s0-46.86,0-46.86h-14.49s0,23.79,0,23.79Z" fill="#171717" stroke-width="0"/>
  <path d="M181.08,28.18c-1.75-2.02-3.94-3.63-6.39-4.7-2.45-1.07-5.12-1.58-7.79-1.48-12.45,0-21.81,10.16-21.81,24.35,0,14.18,8.88,24.25,21.81,24.25,2.83.1,5.64-.49,8.18-1.74,2.54-1.25,4.74-3.1,6.39-5.41v6.18h14.09s0-68.11,0-68.11h-14.47s0,26.66,0,26.66ZM180.98,46.16c0,7.44-4.25,12.37-10.61,12.37-1.52-.04-3.01-.39-4.39-1.04-1.37-.65-2.6-1.57-3.6-2.72-1-1.15-1.75-2.49-2.2-3.94-.45-1.45-.6-2.98-.43-4.49,0-7.34,4.34-12.27,10.61-12.27,1.45-.05,2.9.2,4.24.75,1.34.55,2.56,1.37,3.56,2.42,1,1.05,1.77,2.3,2.26,3.67.48,1.37.67,2.83.56,4.27v.98Z" fill="#171717" stroke-width="0"/>
  <path d="M233.38,22.75l-10.52,30.24-9.74-30.24h-15.43s17.86,47.72,17.86,47.72l-.39,1.26c-1.16,3.87-3.86,4.74-8.01,4.74h-7.17s-.48,12.07-.48,12.07c3.48.29,5.68.41,9.46.41,10.13,0,15.53-4.93,18.91-13.62l20.65-52.57h-15.15Z" fill="#171717" stroke-width="0"/>
  <path d="M271.01,22c-15.15,0-24.89,9.57-24.89,24.35,0,14.49,10.03,24.25,24.89,24.25,3.26.22,6.53-.25,9.59-1.39,3.06-1.13,5.85-2.9,8.19-5.19,2.33-2.29,4.16-5.05,5.35-8.09,1.19-3.04,1.73-6.31,1.58-9.57.17-3.28-.35-6.55-1.53-9.61-1.19-3.06-3.01-5.83-5.34-8.13-2.33-2.3-5.13-4.08-8.2-5.22-3.07-1.14-6.35-1.61-9.62-1.38ZM270.91,58.52c-6.27,0-10.03-4.83-10.03-12.17,0-7.34,3.76-12.27,10.03-12.27,6.27,0,10.04,4.93,10.04,12.27s-3.76,12.17-10.04,12.17Z" fill="#171717" stroke-width="0"/>
  <path d="M297.92,9.66v.15c.99.06,1.45.7,1.45,1.7v2.39s-1.99,0-1.99,0v-2c0-1-.36-1.36-1.3-1.36h-1.33v3.35s-2.03,0-2.03,0V4.92s3.65,0,3.65,0c2.03,0,3.08.85,3.08,2.66.04.48-.1.95-.38,1.33-.28.38-.69.65-1.16.75ZM294.75,6.64v2.24h1.54c.15.01.31-.01.45-.07.15-.05.27-.14.38-.25.11-.11.19-.24.25-.38.05-.14.07-.3.07-.45,0-.15-.01-.3-.07-.43-.05-.14-.13-.26-.24-.37-.11-.1-.23-.18-.37-.23-.14-.05-.29-.07-.44-.05h-1.57Z" fill="#171717" stroke-width="0"/>
  <path d="M295.71,2.78c1.31,0,2.59.39,3.68,1.12,1.09.73,1.94,1.76,2.44,2.98.5,1.21.63,2.54.38,3.83-.26,1.29-.89,2.47-1.81,3.39-.93.93-2.11,1.56-3.39,1.81-1.29.26-2.62.12-3.83-.38-1.21-.5-2.24-1.35-2.97-2.44-.73-1.09-1.11-2.37-1.11-3.68,0-1.76.7-3.44,1.94-4.69,1.24-1.24,2.93-1.94,4.68-1.94ZM295.71.55c-1.75,0-3.46.52-4.91,1.49-1.45.97-2.59,2.36-3.26,3.97-.67,1.62-.84,3.4-.5,5.12.34,1.72,1.18,3.3,2.42,4.53,1.24,1.24,2.81,2.08,4.53,2.42,1.72.34,3.5.17,5.11-.5,1.61-.67,3-1.8,3.97-3.26.97-1.46,1.49-3.17,1.49-4.92,0-2.35-.93-4.6-2.59-6.26-1.66-1.66-3.91-2.59-6.25-2.59Z" fill="#171717" stroke-width="0"/>
</svg>